SplineFontDB: 3.0
FontName: CrimsonText-Roman
FullName: Crimson Text
FamilyName: Crimson Text
Weight: Roman
Copyright: Copyright (c) 2010, Sebastian Kosch (sebastian@aldusleaf.org),\nwith Reserved Font Name "Crimson Text".\nThis Font Software is licensed under the SIL Open Font License, Version 1.1.\nThis license is available with a FAQ at: http://scripts.sil.org/OFL
Version: 0.13
ItalicAngle: 0
UnderlinePosition: -112
UnderlineWidth: 47
Ascent: 717
Descent: 307
sfntRevision: 0x00002147
LayerCount: 2
Layer: 0 0 "Back"  1
Layer: 1 0 "Fore"  0
NeedsXUIDChange: 1
XUID: [1021 559 149143806 1270264]
FSType: 0
OS2Version: 3
OS2_WeightWidthSlopeOnly: 0
OS2_UseTypoMetrics: 1
CreationTime: 1270926789
ModificationTime: 1292111495
PfmFamily: 17
TTFWeight: 400
TTFWidth: 5
LineGap: 92
VLineGap: 0
Panose: 2 0 5 3 0 0 0 0 0 0
OS2TypoAscent: 0
OS2TypoAOffset: 1
OS2TypoDescent: 0
OS2TypoDOffset: 1
OS2TypoLinegap: 307
OS2WinAscent: 0
OS2WinAOffset: 1
OS2WinDescent: 0
OS2WinDOffset: 1
HheadAscent: 0
HheadAOffset: 1
HheadDescent: 0
HheadDOffset: 1
OS2SubXSize: 666
OS2SubYSize: 716
OS2SubXOff: 0
OS2SubYOff: 143
OS2SupXSize: 666
OS2SupYSize: 716
OS2SupXOff: 0
OS2SupYOff: 490
OS2StrikeYSize: 50
OS2StrikeYPos: 264
OS2FamilyClass: 258
OS2Vendor: 'PfEd'
OS2CodePages: 20000001.00000000
OS2UnicodeRanges: 80000043.40000062.00000000.00000000
Lookup: 4 0 1 "'dlig' Standard Ligatures lookup 14"  {"'liga' Standard Ligatures lookup 14-1"  } ['dlig' ('DFLT' <'dflt' > 'grek' <'dflt' > 'latn' <'AZE ' 'CRT ' 'DEU ' 'FRA ' 'ITA ' 'MOL ' 'ROM ' 'TRK ' 'dflt' > ) ]
Lookup: 6 0 0 "Short f"  {"Short f-1"  } ['calt' ('DFLT' <'dflt' > 'grek' <'dflt' > 'latn' <'AZE ' 'CRT ' 'DEU ' 'FRA ' 'ITA ' 'MOL ' 'ROM ' 'TRK ' 'dflt' > ) ]
Lookup: 1 0 0 "Short f substition"  {"Short f substition-1"  } []

StartChar: exclam
Encoding: 33 33 1
Width: 280
Flags: W
HStem: -14 116<95.2549 184.152> 622 20G<126 157.5>
VStem: 82 115<-1.2356 90.0031> 90 97<321.44 631.133>
LayerCount: 2
Fore
SplineSet
142 642 m 0xd0
 173 642 187 610 187 579 c 0
 187 551 171 441 156 181 c 0
 155 161 152 157 132 148 c 0
 125 145 120 158 119 170 c 0
 100 477 90 528 90 579 c 0
 90 611 110 642 142 642 c 0xd0
82 45 m 0xe0
 82 77 108 102 140 102 c 0
 172 102 197 77 197 45 c 0
 197 13 172 -14 140 -14 c 0
 108 -14 82 13 82 45 c 0xe0
EndSplineSet
Validated: 1
Substitution2: "'sinf' Scientific Inferiors lookup 5-1" exclam.sinf
Substitution2: "'sups' Superscript lookup 6-1" exclam.ssup
Substitution2: "'smcp' Lowercase to Small Capitals lookup 2-1" exclam.sc
Substitution2: "'subs' Subscript lookup 1-1" exclam.subs
Substitution2: "'ordn' Ordinals lookup 0-1" exclam.ordn
EndChar

StartChar: quotedbl
Encoding: 34 34 2
Width: 348
Flags: W
HStem: 434 264<76.0527 110.617 239.42 271.623>
VStem: 42 99<522.226 678.189> 206 98<522.226 679.379>
LayerCount: 2
Fore
SplineSet
97 698 m 2
 111 698 l 2
 127 698 141 692 141 633 c 0
 141 577 116 516 110 449 c 0
 109 439 101 434 94 434 c 0
 86 434 77 439 76 447 c 0
 67 537 42 594 42 635 c 0
 42 653 71 698 97 698 c 2
260 698 m 2
 275 698 l 2
 291 698 304 692 304 633 c 0
 304 577 277 516 271 449 c 0
 270 439 262 434 255 434 c 0
 248 434 241 439 240 447 c 0
 231 537 206 594 206 635 c 0
 206 653 234 698 260 698 c 2
EndSplineSet
Validated: 1
Substitution2: "'smcp' Lowercase to Small Capitals lookup 2-1" quotedbl.sc
EndChar

StartChar: numbersign
Encoding: 35 35 3
Width: 476
Flags: W
HStem: 175 56<32.0959 116 182 267 333 439.493> 317 57<32.0959 137 204 289 355 439.215>
LayerCount: 2
Fore
SplineSet
301 24 m 1
 301 24 304 15 271 15 c 2
 258 15 l 2
 244 15 245 24 245 24 c 1
 267 175 l 1
 173 175 l 1
 151 24 l 2
 150 23 153 15 120 15 c 2
 107 15 l 2
 93 15 93 24 93 24 c 1
 116 175 l 1
 30 175 l 1
 30 175 24 175 24 185 c 0
 24 189 25 202 32 226 c 0
 34 232 39 231 39 231 c 1
 125 231 l 1
 137 317 l 1
 30 317 l 1
 30 317 24 318 24 328 c 0
 24 332 25 345 32 369 c 0
 34 375 39 374 39 374 c 1
 146 374 l 1
 170 530 l 2
 171 531 169 539 217 539 c 0
 231 539 227 530 227 530 c 1
 204 374 l 1
 298 374 l 1
 322 530 l 2
 323 531 321 539 369 539 c 0
 383 539 379 530 379 530 c 1
 355 374 l 1
 437 374 l 1
 437 374 444 377 444 367 c 0
 444 359 440 340 435 324 c 0
 433 318 429 317 429 317 c 1
 346 317 l 1
 333 231 l 1
 437 231 l 1
 437 231 444 234 444 224 c 0
 444 216 440 197 435 181 c 0
 433 175 429 175 429 175 c 1
 325 175 l 1
 301 24 l 1
277 231 m 1
 289 317 l 1
 195 317 l 1
 182 231 l 1
 277 231 l 1
EndSplineSet
Validated: 1
Substitution2: "'smcp' Lowercase to Small Capitals lookup 2-1" numbersign.sc
EndChar

StartChar: dollar
Encoding: 36 36 4
Width: 491
Flags: W
HStem: -8 39<187.671 313.551> 602 42<164.948 272.376>
VStem: 45 40<114.228 173.894> 55 76<439 552.445> 164 35<-48.3816 -8.51413> 284 35<639.634 680.877> 362 83<88.5059 208.454> 368 33<477.308 528.295>
LayerCount: 2
Fore
SplineSet
284 683 m 17xcc
 292 683 319 683 319 676 c 9
 199 -52 l 17
 190 -52 164 -50 164 -43 c 9
 284 683 l 17xcc
245 644 m 0
 296 644 365 625 390 621 c 1
 395 580 401 542 401 484 c 0
 401 476 398 476 394 476 c 0
 384 477 369 479 368 487 c 0
 363 520 322 602 240 602 c 0
 170 602 131 570 131 505 c 0xdd
 131 437 185 404 252 366 c 0
 339 316 445 266 445 170 c 0
 445 64 347 -8 241 -8 c 0
 181 -8 112 8 73 15 c 1
 60 50 47 124 45 166 c 0
 45 171 55 174 63 174 c 0
 72 174 82 169 85 166 c 1xee
 96 125 125 31 243 31 c 0
 303 31 362 67 362 141 c 0
 362 218 299 245 253 269 c 0
 141 327 55 377 55 473 c 0xde
 55 572 146 644 245 644 c 0
EndSplineSet
Validated: 5
Substitution2: "'smcp' Lowercase to Small Capitals lookup 2-1" dollar.sc
EndChar

StartChar: percent
Encoding: 37 37 5
Width: 680
Flags: W
HStem: -7 25<460.434 530.549> 289 24<447.266 516.513> 325 25<172.003 240.1> 621 24<158.377 227.599>
VStem: 49 64<408.045 571.079> 280 66<399.6 570.458> 337 64<76.045 237.871> 568 66<66.3943 238.458>
LayerCount: 2
Fore
SplineSet
195 621 m 0xfd
 136 621 113 555 113 496 c 0
 113 427 155 350 205 350 c 0
 263 350 280 418 280 476 c 0
 280 543 248 621 195 621 c 0xfd
199 645 m 0
 286 645 346 571 346 484 c 0
 346 404 290 325 199 325 c 0
 116 325 49 396 49 484 c 0
 49 573 110 645 199 645 c 0
484 289 m 0
 425 289 401 223 401 164 c 0xfb
 401 95 444 18 494 18 c 0
 552 18 568 86 568 144 c 0
 568 211 537 289 484 289 c 0
488 313 m 0
 575 313 634 239 634 152 c 0
 634 72 579 -7 487 -7 c 0
 404 -7 337 64 337 152 c 0
 337 241 399 313 488 313 c 0
607 624 m 1
 124 0 l 2
 120 -5 103 -12 91 -12 c 0
 77 -12 74 -3 73 -1 c 1
 555 624 l 2
 560 630 569 636 575 636 c 0
 604 636 598 633 607 624 c 1
EndSplineSet
Validated: 1
Substitution2: "'sinf' Scientific Inferiors lookup 5-1" percent.sinf
Substitution2: "'sups' Superscript lookup 6-1" percent.ssup
Substitution2: "'smcp' Lowercase to Small Capitals lookup 2-1" percent.sc
Substitution2: "'subs' Subscript lookup 1-1" percent.subs
Substitution2: "'ordn' Ordinals lookup 0-1" percent.ordn
EndChar

StartChar: ampersand
Encoding: 38 38 6
Width: 671
Flags: W
HStem: -3 43<200.243 343.066 515.5 608.13> 289 23<464.686 507.887 598.031 659.749> 620 36<263.399 356.509>
VStem: 54 86<94.0843 236.46> 162 73<445.099 592.5> 386 68<465.283 594.712>
LayerCount: 2
Fore
SplineSet
407 95 m 1
 342 161 243 314 243 314 c 1
 189 277 140 244 140 172 c 0
 140 78 209 40 282 40 c 0
 322 40 375 61 407 95 c 1
314 620 m 0
 271 620 235 589 235 543 c 0
 235 494 255 443 287 385 c 1
 349 421 386 453 386 530 c 0
 386 575 359 620 314 620 c 0
309 656 m 0
 397 656 454 616 454 544 c 0
 454 454 381 400 305 353 c 1
 347 282 403 210 453 154 c 1
 490 210 510 261 510 271 c 0
 510 291 471 285 465 289 c 1
 462 295 462 308 466 312 c 1
 545 312 l 2
 580 312 609 315 655 317 c 1
 658 315 660 309 660 304 c 7
 660 297 657 289 654 289 c 0
 637 289 596 279 585 272 c 0
 580 269 542 194 481 123 c 1
 526 76 555 45 579 45 c 0
 600 45 626 78 631 91 c 1
 642 91 654 80 654 73 c 1
 650 64 622 0 545 0 c 0
 486 0 430 72 430 72 c 1
 382 30 314 -3 248 -3 c 0
 131 -3 54 57 54 158 c 0
 54 254 136 307 220 350 c 1
 192 398 162 450 162 519 c 0
 162 595 225 656 309 656 c 0
EndSplineSet
Validated: 1
Substitution2: "'smcp' Lowercase to Small Capitals lookup 2-1" ampersand.sc
EndChar

StartChar: quotesingle
Encoding: 39 39 7
Width: 186
Flags: W
HStem: 434 264<75.4202 107.625>
VStem: 42 99<522.226 679.379>
LayerCount: 2
Fore
SplineSet
96 698 m 2
 111 698 l 2
 127 698 141 692 141 633 c 0
 141 577 113 516 107 449 c 0
 106 439 98 434 91 434 c 0
 84 434 77 439 76 447 c 0
 67 537 42 594 42 635 c 0
 42 653 70 698 96 698 c 2
EndSplineSet
Validated: 1
Substitution2: "'smcp' Lowercase to Small Capitals lookup 2-1" quotesingle.sc
EndChar

StartChar: parenleft
Encoding: 40 40 8
Width: 323
Flags: W
HStem: -121 26<260.363 274.986> 721 27<257.243 273.732>
VStem: 71 65<138.595 482.541>
LayerCount: 2
Fore
SplineSet
136 305 m 0
 136 95 236 -76 275 -95 c 0
 277 -96 277 -98 277 -100 c 0
 277 -107 270 -121 263 -121 c 0
 208 -121 71 66 71 305 c 0
 71 555 195 748 263 748 c 0
 270 748 276 731 276 724 c 0
 276 722 276 721 275 721 c 0
 213 691 136 508 136 305 c 0
EndSplineSet
Validated: 1
Substitution2: "'sinf' Scientific Inferiors lookup 5-1" parenleft.sinf
Substitution2: "'sups' Superscript lookup 6-1" parenleft.ssup
Substitution2: "'smcp' Lowercase to Small Capitals lookup 2-1" parenleft.sc
Substitution2: "'subs' Subscript lookup 1-1" parenleft.subs
Substitution2: "'ordn' Ordinals lookup 0-1" parenleft.ordn
EndChar

StartChar: parenright
Encoding: 41 41 9
Width: 322
Flags: W
HStem: -121 26<47.0137 61.6373> 721 27<48.2676 64.7572>
VStem: 186 65<138.595 482.541>
LayerCount: 2
Fore
SplineSet
186 305 m 0
 186 508 109 691 47 721 c 0
 46 721 46 722 46 724 c 0
 46 731 52 748 59 748 c 0
 127 748 251 555 251 305 c 0
 251 66 114 -121 59 -121 c 0
 52 -121 45 -107 45 -100 c 0
 45 -98 45 -96 47 -95 c 0
 86 -76 186 95 186 305 c 0
EndSplineSet
Validated: 1
Substitution2: "'sinf' Scientific Inferiors lookup 5-1" parenright.sinf
Substitution2: "'sups' Superscript lookup 6-1" parenright.ssup
Substitution2: "'smcp' Lowercase to Small Capitals lookup 2-1" parenright.sc
Substitution2: "'subs' Subscript lookup 1-1" parenright.subs
Substitution2: "'ordn' Ordinals lookup 0-1" parenright.ordn
EndChar

StartChar: asterisk
Encoding: 42 42 10
Width: 444
Flags: W
HStem: 390 61<315.125 398.976> 434 65<43.5068 153.988>
VStem: 135 57<572.979 660.875> 214 25<420.999 450.228>
LayerCount: 2
Fore
SplineSet
307 613 m 4x70
 324 632 348 640 363 625 c 4
 379 609 376 586 357 569 c 4
 322 537 288 532 260 505 c 5
 260 505 254 496 255 491 c 4
 256 486 260 483 265 481 c 4
 300 465 328 471 372 451 c 4
 395 441 410 421 401 402 c 4
 391 382 368 378 346 390 c 4xb0
 304 413 289 444 255 462 c 5
 255 462 246 467 241 465 c 4
 235 462 236 457 235 452 c 4
 231 414 244 389 239 341 c 4
 236 316 222 296 201 299 c 4
 179 302 168 322 173 347 c 4
 182 394 207 419 214 457 c 5
 214 457 215 466 211 470 c 4
 208 474 203 474 198 473 c 4
 161 465 141 444 93 434 c 4
 69 429 44 436 41 457 c 4
 37 479 54 496 79 499 c 4
 127 505 156 489 195 494 c 5
 195 494 204 497 206 502 c 4
 208 507 207 511 204 516 c 4
 185 549 159 562 135 604 c 4
 123 626 123 650 141 660 c 4
 161 670 181 660 192 637 c 4
 212 593 206 560 223 525 c 5
 223 525 228 515 233 514 c 4
 238 513 242 516 246 520 c 4
 272 548 275 577 307 613 c 4x70
EndSplineSet
Validated: 33
Substitution2: "'smcp' Lowercase to Small Capitals lookup 2-1" asterisk.sc
EndChar

StartChar: plus
Encoding: 43 43 11
Width: 582
Flags: W
HStem: 218 56<60.0959 263 319.001 520.904>
VStem: 263 56<11.3652 217.998 274 476.904>
LayerCount: 2
Fore
SplineSet
319 215 m 2
 319 23 l 1
 319 23 319 13 274 7 c 0
 271 7 270 6 268 6 c 0
 261 6 263 10 263 14 c 2
 263 213 l 2
 263 215 262 218 257 218 c 2
 58 218 l 1
 58 218 52 218 52 228 c 0
 52 232 53 245 60 269 c 0
 62 275 67 274 67 274 c 1
 258 274 l 2
 261 274 263 278 263 280 c 2
 263 470 l 1
 263 470 262 475 268 477 c 0
 292 484 305 485 309 485 c 0
 319 485 319 479 319 479 c 1
 319 279 l 2
 319 276 320 274 323 274 c 2
 523 274 l 2
 527 274 531 276 531 269 c 0
 531 260 527 246 521 224 c 0
 519 218 514 218 514 218 c 1
 323 218 l 2
 320 218 319 217 319 215 c 2
EndSplineSet
Validated: 1
Substitution2: "'sinf' Scientific Inferiors lookup 5-1" plus.sinf
Substitution2: "'sups' Superscript lookup 6-1" plus.ssup
Substitution2: "'smcp' Lowercase to Small Capitals lookup 2-1" plus.sc
Substitution2: "'subs' Subscript lookup 1-1" plus.subs
Substitution2: "'ordn' Ordinals lookup 0-1" plus.ordn
EndChar

StartChar: comma
Encoding: 44 44 12
Width: 239
Flags: W
HStem: -163 292
VStem: 118 79<-34.3011 73>
LayerCount: 2
Fore
SplineSet
118 -14 m 0
 118 19 88 54 88 76 c 0
 88 107 124 129 160 129 c 0
 168 129 176 128 184 125 c 1
 192 113 197 85 197 61 c 0
 197 51 197 42 195 35 c 0
 177 -49 154 -92 68 -163 c 1
 67 -163 l 2
 62 -163 44 -150 44 -141 c 0
 44 -134 118 -91 118 -14 c 0
EndSplineSet
Validated: 1
Substitution2: "'sinf' Scientific Inferiors lookup 5-1" comma.sinf
Substitution2: "'sups' Superscript lookup 6-1" comma.ssup
Substitution2: "'subs' Subscript lookup 1-1" comma.subs
Substitution2: "'ordn' Ordinals lookup 0-1" comma.ordn
EndChar

StartChar: hyphen
Encoding: 45 45 13
Width: 375
Flags: W
HStem: 199 62<59.6239 214.957> 210 63<168.043 316.493>
VStem: 58 261
LayerCount: 2
Fore
SplineSet
58 210 m 0x60
 58 258 67 261 70 261 c 2
 71 261 l 1xa0
 312 273 l 1
 313 273 l 2
 315 273 319 272 319 264 c 0
 319 215 306 210 306 210 c 1x60
 65 199 l 1xa0
 65 199 58 198 58 210 c 0x60
EndSplineSet
Validated: 1
Substitution2: "'sinf' Scientific Inferiors lookup 5-1" hyphen.sinf
Substitution2: "'sups' Superscript lookup 6-1" hyphen.ssup
Substitution2: "'smcp' Lowercase to Small Capitals lookup 2-1" hyphen.sc
Substitution2: "'subs' Subscript lookup 1-1" hyphen.subs
Substitution2: "'ordn' Ordinals lookup 0-1" hyphen.ordn
EndChar

StartChar: period
Encoding: 46 46 14
Width: 233
Flags: W
HStem: -14 116<72.6616 162.152>
VStem: 59 116<-0.338379 89.1519>
LayerCount: 2
Fore
SplineSet
59 45 m 0
 59 77 86 102 118 102 c 0
 150 102 175 77 175 45 c 0
 175 13 150 -14 118 -14 c 0
 86 -14 59 13 59 45 c 0
EndSplineSet
Validated: 1
Substitution2: "'sinf' Scientific Inferiors lookup 5-1" period.sinf
Substitution2: "'sups' Superscript lookup 6-1" period.ssup
Substitution2: "'subs' Subscript lookup 1-1" period.subs
Substitution2: "'ordn' Ordinals lookup 0-1" period.ordn
EndChar

StartChar: slash
Encoding: 47 47 15
Width: 424
Flags: W
LayerCount: 2
Fore
SplineSet
391 755 m 5
 95 -12 l 6
 93 -19 78 -35 43 -35 c 4
 28 -35 25 -28 25 -28 c 5
 321 739 l 5
 328 754 340 761 370 761 c 4
 384 761 387 757 391 755 c 5
EndSplineSet
Validated: 1
Substitution2: "'frac' Diagonal Fractions lookup 10 subtable" fraction
Substitution2: "'sinf' Scientific Inferiors lookup 5-1" slash.sinf
Substitution2: "'sups' Superscript lookup 6-1" slash.ssup
Substitution2: "'smcp' Lowercase to Small Capitals lookup 2-1" slash.sc
Substitution2: "'subs' Subscript lookup 1-1" slash.subs
Substitution2: "'ordn' Ordinals lookup 0-1" slash.ordn
EndChar

StartChar: zero
Encoding: 48 48 16
Width: 484
Flags: W
HStem: -3 38<192.809 287.186> 603 38<197.815 293.221>
VStem: 24 88<173.247 465.48> 372 88<172.095 470.738>
LayerCount: 2
Fore
SplineSet
112 320 m 4
 112 163 163 35 237 35 c 4
 326 35 372 168 372 325 c 4
 372 482 321 603 247 603 c 4
 163 603 112 477 112 320 c 4
24 319 m 4
 24 493 104 641 242 641 c 4
 382 641 460 493 460 319 c 4
 460 145 380 -3 242 -3 c 4
 106 -3 24 145 24 319 c 4
EndSplineSet
Validated: 1
Substitution2: "'pnum' Proportional Numbers lookup 12-1" zero.prop
Substitution2: "'zero' Slashed Zero lookup 11-1" slashedzero
Substitution2: "'sinf' Scientific Inferiors lookup 5-1" zero.sinf
Substitution2: "'sups' Superscript lookup 6-1" zero.ssup
Substitution2: "'onum' Oldstyle Figures lookup 3-1" zero.onum
Substitution2: "'smcp' Lowercase to Small Capitals lookup 2-1" zero.sc
Substitution2: "'subs' Subscript lookup 1-1" zero.subs
Substitution2: "'ordn' Ordinals lookup 0-1" zero.ordn
EndChar

StartChar: one
Encoding: 49 49 17
Width: 484
Flags: W
HStem: -3 29<130.188 196.454 306.612 370.916> 622 20G<286.5 293>
VStem: 209 83<36.9151 528.995>
LayerCount: 2
Fore
SplineSet
131 496 m 5
 123 500 113 514 113 521 c 4
 113 523 113 525 115 527 c 4
 218 597 285 642 288 642 c 6
 290 642 l 6
 296 642 301 628 302 623 c 5
 302 623 292 590 292 529 c 6
 292 135 l 6
 292 102 293 73 300 46 c 4
 303 35 359 26 367 26 c 4
 370 26 371 15 371 8 c 4
 371 3 371 -1 370 -3 c 5
 330 -1 289 2 249 2 c 4
 209 2 173 -1 133 -3 c 5
 128 2 128 26 133 26 c 4
 145 26 200 35 203 46 c 4
 208 66 209 84 209 103 c 6
 209 463 l 6
 209 523 204 529 195 529 c 4
 182 529 148 505 131 496 c 5
EndSplineSet
Validated: 1
Substitution2: "'pnum' Proportional Numbers lookup 12-1" one.prop
Substitution2: "'sinf' Scientific Inferiors lookup 5-1" one.sinf
Substitution2: "'sups' Superscript lookup 6-1" one.ssup
Substitution2: "'onum' Oldstyle Figures lookup 3-1" one.onum
Substitution2: "'smcp' Lowercase to Small Capitals lookup 2-1" one.sc
Substitution2: "'subs' Subscript lookup 1-1" one.subs
Substitution2: "'ordn' Ordinals lookup 0-1" one.ordn
EndChar

StartChar: two
Encoding: 50 50 18
Width: 484
Flags: W
HStem: 0 72<141.862 381.596> 572 70<167.995 278.576>
VStem: 64 19<495.173 502.585> 314 86<381.977 536.112> 403 32<105.094 159.922>
LayerCount: 2
Fore
SplineSet
256 642 m 0
 352 642 400 555 400 479 c 0
 400 326 218 153 142 79 c 0
 139 76 140 72 144 72 c 2
 337 72 l 2
 377 72 387 95 403 149 c 0
 406 158 411 160 417 160 c 0
 421 160 431 159 435 156 c 1
 425 105 417 68 408 16 c 0
 406 2 398 0 388 0 c 18
 388 0 67 0 60 0 c 1
 54 0 49 22 49 30 c 1
 175 158 314 340 314 459 c 0
 314 533 273 572 216 572 c 0
 136 572 95 509 83 489 c 1
 75 489 64 501 64 505 c 1
 71 530 134 642 256 642 c 0
EndSplineSet
Validated: 1
Substitution2: "'pnum' Proportional Numbers lookup 12-1" two.prop
Substitution2: "'sinf' Scientific Inferiors lookup 5-1" two.sinf
Substitution2: "'sups' Superscript lookup 6-1" two.ssup
Substitution2: "'onum' Oldstyle Figures lookup 3-1" two.onum
Substitution2: "'smcp' Lowercase to Small Capitals lookup 2-1" two.sc
Substitution2: "'subs' Subscript lookup 1-1" two.subs
Substitution2: "'ordn' Ordinals lookup 0-1" two.ordn
EndChar

StartChar: three
Encoding: 51 51 19
Width: 485
Flags: W
HStem: -5 40<154.3 288.27> 314 36<144.743 206.297> 583 59<162.868 265.246>
VStem: 297 75<438.797 550.729> 343 86<111.736 257.241>
LayerCount: 2
Fore
SplineSet
250 642 m 0xf0
 301 642 372 596 372 514 c 0xf0
 372 449 333 412 289 379 c 1
 343 360 429 305 429 206 c 0
 429 76 325 -5 196 -5 c 0
 135 -5 96 5 66 25 c 1
 60 29 56 46 56 54 c 0
 56 83 69 101 93 101 c 0
 113 101 130 72 152 56 c 0
 178 37 201 35 228 35 c 0
 275 35 343 68 343 180 c 0xe8
 343 261 282 321 216 321 c 0
 195 321 163 317 151 314 c 1
 147 319 144 332 144 340 c 0
 144 344 144 347 146 350 c 1
 233 365 297 410 297 496 c 0
 297 541 255 583 210 583 c 0
 147 583 122 539 113 532 c 1
 107 532 101 549 101 558 c 1
 132 604 172 642 250 642 c 0xf0
EndSplineSet
Validated: 1
Substitution2: "'pnum' Proportional Numbers lookup 12-1" three.prop
Substitution2: "'sinf' Scientific Inferiors lookup 5-1" three.sinf
Substitution2: "'sups' Superscript lookup 6-1" three.ssup
Substitution2: "'onum' Oldstyle Figures lookup 3-1" three.onum
Substitution2: "'smcp' Lowercase to Small Capitals lookup 2-1" three.sc
Substitution2: "'subs' Subscript lookup 1-1" three.subs
Substitution2: "'ordn' Ordinals lookup 0-1" three.ordn
EndChar

StartChar: four
Encoding: 52 52 20
Width: 482
Flags: W
HStem: -6 21G<318 349.5> 174 58<104.002 293 372 447.91> 625 20G<355 362>
VStem: 293 79<-5.44241 174 232 506.996>
LayerCount: 2
Fore
SplineSet
359 645 m 0
 365 645 372 643 372 635 c 2
 372 232 l 25
 434 232 l 18
 444 232 450 212 450 184 c 0
 450 178 447 176 444 174 c 1
 418 174 372 174 372 174 c 25
 372 -1 l 1
 372 -1 369 -6 330 -6 c 0
 306 -6 293 -5 293 2 c 2
 293 174 l 25
 40 174 l 1
 34 182 33 199 33 205 c 1
 336 633 l 2
 342 641 351 645 359 645 c 0
293 232 m 25
 293 498 l 2
 293 501 290 507 288 507 c 1
 288 507 288 506 287 505 c 2
 105 244 l 2
 104 243 104 242 104 241 c 0
 104 237 107 232 111 232 c 10
 293 232 l 25
EndSplineSet
Validated: 1
Substitution2: "'pnum' Proportional Numbers lookup 12-1" four.prop
Substitution2: "'sinf' Scientific Inferiors lookup 5-1" four.sinf
Substitution2: "'sups' Superscript lookup 6-1" four.ssup
Substitution2: "'onum' Oldstyle Figures lookup 3-1" four.onum
Substitution2: "'smcp' Lowercase to Small Capitals lookup 2-1" four.sc
Substitution2: "'subs' Subscript lookup 1-1" four.subs
Substitution2: "'ordn' Ordinals lookup 0-1" four.ordn
EndChar

StartChar: five
Encoding: 53 53 21
Width: 485
Flags: W
HStem: -5 40<155.774 290.834> 323 68<137.892 280.448> 546 77<163.631 370.868>
VStem: 342 86<111.314 264.203>
LayerCount: 2
Fore
SplineSet
139 623 m 5
 210 625 338 629 374 637 c 1
 377 633 379 627 379 616 c 0
 379 599 376 576 373 561 c 1
 329 548 189 549 173 546 c 0
 167 545 167 542 166 538 c 0
 153 474 146 431 137 378 c 1
 157 386 204 391 231 391 c 0
 338 391 428 306 428 206 c 0
 428 82 331 -5 201 -5 c 0
 140 -5 97 5 67 25 c 1
 61 29 57 46 57 54 c 0
 57 83 70 101 94 101 c 0
 114 101 131 72 153 56 c 0
 179 37 206 35 233 35 c 0
 280 35 342 71 342 180 c 0
 342 242 312 323 196 323 c 3
 175 323 128 318 109 312 c 1
 105 314 96 321 91 326 c 1
 112 458 132 581 139 623 c 5
EndSplineSet
Validated: 1
Substitution2: "'pnum' Proportional Numbers lookup 12-1" five.prop
Substitution2: "'sinf' Scientific Inferiors lookup 5-1" five.sinf
Substitution2: "'sups' Superscript lookup 6-1" five.ssup
Substitution2: "'onum' Oldstyle Figures lookup 3-1" five.onum
Substitution2: "'smcp' Lowercase to Small Capitals lookup 2-1" five.sc
Substitution2: "'subs' Subscript lookup 1-1" five.subs
Substitution2: "'ordn' Ordinals lookup 0-1" five.ordn
EndChar

StartChar: six
Encoding: 54 54 22
Width: 484
Flags: W
HStem: -6 39<194.432 303.169> 330 51<184.817 300.944>
VStem: 44 86<110.711 295.805> 357 83<107.505 269.304>
LayerCount: 2
Fore
SplineSet
130 210 m 4
 130 120 179 33 247 33 c 4
 302 33 357 84 357 174 c 4
 357 259 317 330 229 330 c 4
 191 330 154 305 145 285 c 4
 138 269 131 260 130 210 c 4
235 -6 m 4
 121 -6 44 100 44 208 c 4
 44 426 229 578 400 647 c 5
 409 647 423 626 423 620 c 5
 310 571 194 497 154 352 c 4
 152 344 154 340 158 344 c 4
 173 356 231 381 275 381 c 4
 372 381 440 282 440 195 c 4
 440 83 341 -6 235 -6 c 4
EndSplineSet
Validated: 1
Substitution2: "'pnum' Proportional Numbers lookup 12-1" six.prop
Substitution2: "'sinf' Scientific Inferiors lookup 5-1" six.sinf
Substitution2: "'sups' Superscript lookup 6-1" six.ssup
Substitution2: "'onum' Oldstyle Figures lookup 3-1" six.onum
Substitution2: "'smcp' Lowercase to Small Capitals lookup 2-1" six.sc
Substitution2: "'subs' Subscript lookup 1-1" six.subs
Substitution2: "'ordn' Ordinals lookup 0-1" six.ordn
EndChar

StartChar: seven
Encoding: 55 55 23
Width: 483
Flags: W
HStem: -6 21G<135.5 145.5> 553 80<94.9863 374>
LayerCount: 2
Fore
SplineSet
133 553 m 6
 97 553 81 508 70 474 c 0
 68 468 45 467 36 471 c 1
 45 516 60 576 67 621 c 0
 68 629 74 633 83 633 c 2
 372 633 l 2
 398 633 433 636 439 636 c 0
 445 636 446 632 446 627 c 0
 446 614 430 588 417 560 c 2
 154 -3 l 1
 152 -5 148 -6 143 -6 c 0
 128 -6 108 13 108 22 c 9
 374 553 l 1
 289 553 133 553 133 553 c 6
EndSplineSet
Validated: 33
Substitution2: "'pnum' Proportional Numbers lookup 12-1" seven.prop
Substitution2: "'sinf' Scientific Inferiors lookup 5-1" seven.sinf
Substitution2: "'sups' Superscript lookup 6-1" seven.ssup
Substitution2: "'onum' Oldstyle Figures lookup 3-1" seven.onum
Substitution2: "'smcp' Lowercase to Small Capitals lookup 2-1" seven.sc
Substitution2: "'subs' Subscript lookup 1-1" seven.subs
Substitution2: "'ordn' Ordinals lookup 0-1" seven.ordn
EndChar

StartChar: eight
Encoding: 56 56 24
Width: 484
Flags: W
HStem: -9 36<185.472 303.325> 608 35<194.803 290.828>
VStem: 53 79<77.0132 225.193> 81 74<431.64 556.309> 339 72<424.746 561.871> 349 81<86.3009 203.234>
LayerCount: 2
Fore
SplineSet
241 27 m 0xe4
 307 27 349 70 349 138 c 0
 349 221 235 287 221 295 c 0
 219 296 218 297 215 297 c 0
 214 297 212 297 211 296 c 0
 156 261 132 221 132 157 c 0
 132 75 188 27 241 27 c 0xe4
241 608 m 0
 193 608 155 562 155 492 c 0
 155 430 221 386 259 364 c 0
 261 363 263 362 265 362 c 0
 267 362 268 362 271 364 c 0
 312 391 339 431 339 486 c 0xd8
 339 544 301 608 241 608 c 0
247 643 m 0
 336 643 411 586 411 491 c 0xd8
 411 424 345 373 299 344 c 1
 295 343 296 340 299 338 c 0
 359 304 430 239 430 167 c 0
 430 67 339 -9 239 -9 c 0
 129 -9 53 57 53 154 c 0xe4
 53 242 144 293 183 318 c 0
 186 320 185 323 183 324 c 0
 141 349 81 406 81 480 c 0
 81 565 159 643 247 643 c 0
EndSplineSet
Validated: 1
Substitution2: "'pnum' Proportional Numbers lookup 12-1" eight.prop
Substitution2: "'sinf' Scientific Inferiors lookup 5-1" eight.sinf
Substitution2: "'sups' Superscript lookup 6-1" eight.ssup
Substitution2: "'onum' Oldstyle Figures lookup 3-1" eight.onum
Substitution2: "'smcp' Lowercase to Small Capitals lookup 2-1" eight.sc
Substitution2: "'subs' Subscript lookup 1-1" eight.subs
Substitution2: "'ordn' Ordinals lookup 0-1" eight.ordn
EndChar

StartChar: nine
Encoding: 57 57 25
Width: 484
Flags: W
HStem: -6 21G<100.5 176> 262 49<185.476 306.583> 608 39<180.705 286.475>
VStem: 45 83<370.706 533.073> 353 86<344.274 530.289>
LayerCount: 2
Fore
SplineSet
353 431 m 4
 353 521 306 608 233 608 c 4
 178 608 128 553 128 463 c 4
 128 382 170 311 255 311 c 4
 293 311 330 336 339 356 c 4
 346 372 352 381 353 431 c 4
249 647 m 4
 363 647 439 541 439 433 c 4
 439 215 247 46 105 -6 c 5
 96 -6 83 17 83 23 c 5
 169 57 289 144 329 289 c 4
 331 297 329 301 325 297 c 4
 310 280 252 262 217 262 c 4
 119 262 45 347 45 445 c 4
 45 557 143 647 249 647 c 4
EndSplineSet
Validated: 1
Substitution2: "'pnum' Proportional Numbers lookup 12-1" nine.prop
Substitution2: "'sinf' Scientific Inferiors lookup 5-1" nine.sinf
Substitution2: "'sups' Superscript lookup 6-1" nine.ssup
Substitution2: "'onum' Oldstyle Figures lookup 3-1" nine.onum
Substitution2: "'smcp' Lowercase to Small Capitals lookup 2-1" nine.sc
Substitution2: "'subs' Subscript lookup 1-1" nine.subs
Substitution2: "'ordn' Ordinals lookup 0-1" nine.ordn
EndChar

StartChar: colon
Encoding: 58 58 26
Width: 236
Flags: W
HStem: -14 120<73.7454 165.661> 310 120<73.7454 165.661>
VStem: 60 119<-0.254639 92.2546 324.152 416.661>
LayerCount: 2
Fore
SplineSet
179 371 m 0
 179 338 153 310 120 310 c 0
 87 310 60 338 60 371 c 0
 60 404 87 430 120 430 c 0
 153 430 179 404 179 371 c 0
179 46 m 0
 179 13 153 -14 120 -14 c 0
 87 -14 60 13 60 46 c 0
 60 79 87 106 120 106 c 0
 153 106 179 79 179 46 c 0
EndSplineSet
Validated: 1
Substitution2: "'sinf' Scientific Inferiors lookup 5-1" colon.sinf
Substitution2: "'sups' Superscript lookup 6-1" colon.ssup
Substitution2: "'smcp' Lowercase to Small Capitals lookup 2-1" colon.sc
Substitution2: "'subs' Subscript lookup 1-1" colon.subs
Substitution2: "'ordn' Ordinals lookup 0-1" colon.ordn
EndChar

StartChar: semicolon
Encoding: 59 59 27
Width: 244
Flags: W
HStem: 310 120<96.1521 188.661>
VStem: 82 120<324.152 416.661> 118 78<-59.5478 87.4361>
LayerCount: 2
Fore
SplineSet
196 39 m 0xa0
 196 11 193 -12 186 -33 c 0
 170 -81 133 -115 73 -165 c 0
 71 -166 68 -167 66 -167 c 0
 55 -167 45 -145 45 -140 c 0
 45 -131 118 -96 118 -14 c 0
 118 36 91 51 91 68 c 0
 91 93 124 124 161 124 c 0
 169 124 174 121 179 117 c 0
 195 102 196 70 196 39 c 0xa0
82 371 m 0xc0
 82 404 110 430 143 430 c 0
 176 430 202 404 202 371 c 0
 202 338 176 310 143 310 c 0
 110 310 82 338 82 371 c 0xc0
EndSplineSet
Validated: 1
Substitution2: "'sinf' Scientific Inferiors lookup 5-1" semicolon.sinf
Substitution2: "'sups' Superscript lookup 6-1" semicolon.ssup
Substitution2: "'smcp' Lowercase to Small Capitals lookup 2-1" semicolon.sc
Substitution2: "'subs' Subscript lookup 1-1" semicolon.subs
Substitution2: "'ordn' Ordinals lookup 0-1" semicolon.ordn
EndChar

StartChar: less
Encoding: 60 60 28
Width: 535
Flags: W
LayerCount: 2
Fore
SplineSet
475 35 m 0
 475 28 465 -15 459 -15 c 0
 458 -15 456 -14 454 -13 c 2
 79 177 l 2
 64 185 61 200 61 217 c 0
 61 228 69 236 79 241 c 2
 448 428 l 2
 450 429 452 430 453 430 c 0
 456 430 463 420 470 383 c 0
 471 377 467 374 467 374 c 1
 141 209 l 1
 472 41 l 1
 472 41 475 40 475 35 c 0
EndSplineSet
Validated: 1
Substitution2: "'sinf' Scientific Inferiors lookup 5-1" less.sinf
Substitution2: "'sups' Superscript lookup 6-1" less.ssup
Substitution2: "'smcp' Lowercase to Small Capitals lookup 2-1" less.sc
Substitution2: "'subs' Subscript lookup 1-1" less.subs
Substitution2: "'ordn' Ordinals lookup 0-1" less.ordn
EndChar

StartChar: equal
Encoding: 61 61 29
Width: 571
Flags: W
HStem: 117 56<61.0959 514.32> 259 56<55.9907 514.32>
LayerCount: 2
Fore
SplineSet
520 168 m 0
 520 159 516 145 510 123 c 0
 508 117 504 117 504 117 c 1
 59 117 l 1
 59 117 52 117 52 127 c 0
 52 131 54 144 61 168 c 0
 63 174 68 173 68 173 c 1
 512 173 l 2
 516 173 520 175 520 168 c 0
52 269 m 1
 52 269 57 315 67 315 c 2
 516 315 l 2
 518 315 520 314 520 310 c 0
 520 301 516 287 510 265 c 0
 508 259 504 259 504 259 c 1
 59 259 l 1
 59 259 52 259 52 269 c 1
EndSplineSet
Validated: 1
Substitution2: "'sinf' Scientific Inferiors lookup 5-1" equal.sinf
Substitution2: "'sups' Superscript lookup 6-1" equal.ssup
Substitution2: "'smcp' Lowercase to Small Capitals lookup 2-1" equal.sc
Substitution2: "'subs' Subscript lookup 1-1" equal.subs
Substitution2: "'ordn' Ordinals lookup 0-1" equal.ordn
EndChar

StartChar: greater
Encoding: 62 62 30
Width: 535
Flags: W
LayerCount: 2
Fore
SplineSet
67 382 m 0
 67 400 79 430 83 430 c 0
 84 430 86 429 88 428 c 2
 458 241 l 2
 468 236 475 228 475 217 c 0
 475 200 473 185 458 177 c 2
 83 -13 l 2
 81 -14 79 -15 78 -15 c 0
 72 -15 61 27 61 35 c 0
 61 39 64 41 64 41 c 1
 395 209 l 1
 70 374 l 1
 70 374 67 375 67 382 c 0
EndSplineSet
Validated: 1
Substitution2: "'sinf' Scientific Inferiors lookup 5-1" greater.sinf
Substitution2: "'sups' Superscript lookup 6-1" greater.ssup
Substitution2: "'smcp' Lowercase to Small Capitals lookup 2-1" greater.sc
Substitution2: "'subs' Subscript lookup 1-1" greater.subs
Substitution2: "'ordn' Ordinals lookup 0-1" greater.ordn
EndChar

StartChar: question
Encoding: 63 63 31
Width: 366
Flags: W
HStem: -14 116<72.2549 161.745> 558 84<72.4753 201.039>
VStem: 59 116<-1.2356 90.0031> 97 33<160.081 241.256> 269 50<431.799 535.824>
LayerCount: 2
Fore
SplineSet
112 558 m 0xd8
 98 558 65 565 65 598 c 0
 65 612 67 624 72 632 c 1
 82 637 101 642 122 642 c 0
 188 642 319 574 319 457 c 0
 319 389 293 347 218 304 c 0
 191 288 146 253 140 242 c 0
 131 226 130 218 130 173 c 0
 130 162 123 160 110 160 c 0
 105 160 97 161 97 168 c 0
 97 194 96 235 96 262 c 0
 96 336 145 361 182 385 c 0
 231 416 269 439 269 476 c 0
 269 538 226 565 188 565 c 0
 135 565 138 558 112 558 c 0xd8
59 45 m 0xe8
 59 77 85 102 117 102 c 0
 149 102 175 77 175 45 c 0
 175 13 149 -14 117 -14 c 0
 85 -14 59 13 59 45 c 0xe8
EndSplineSet
Validated: 1
Substitution2: "'sinf' Scientific Inferiors lookup 5-1" question.sinf
Substitution2: "'sups' Superscript lookup 6-1" question.ssup
Substitution2: "'smcp' Lowercase to Small Capitals lookup 2-1" question.sc
Substitution2: "'subs' Subscript lookup 1-1" question.subs
Substitution2: "'ordn' Ordinals lookup 0-1" question.ordn
EndChar

StartChar: at
Encoding: 64 64 32
Width: 819
Flags: W
HStem: -171 45<325.903 514.456> -13 40<568.229 663.34> -7 60<321.7 396.076> 359 51<389.398 505.942> 528 49<326.092 551.153>
VStem: 52 59<84.7869 323.137> 226 78<69.8158 245.56> 485 71<34.6331 90.0483 121.994 184.202> 730 49<107.515 335.991>
LayerCount: 2
Fore
SplineSet
730 214 m 0xdf80
 730 381 617 528 446 528 c 0
 265 528 111 399 111 223 c 0
 111 26 218 -126 469 -126 c 0
 496 -126 537 -105 540 -104 c 1
 540 -104 542 -113 542 -114 c 0
 542 -137 500 -171 414 -171 c 0
 198 -171 52 23 52 185 c 0
 52 432 234 577 457 577 c 0
 657 577 779 391 779 233 c 0
 779 40 675 -13 597 -13 c 0xdf80
 527 -13 485 51 485 92 c 0
 485 94 481 91 480 90 c 0
 463 61 386 -7 335 -7 c 0xbf80
 260 -7 226 73 226 141 c 0
 226 274 323 410 501 410 c 1
 590 401 l 1
 586 375 583 348 583 348 c 1
 558 125 l 2
 557 115 556 105 556 97 c 0
 556 37 583 27 606 27 c 0
 706 27 730 160 730 214 c 0xdf80
506 334 m 0
 506 347 504 359 455 359 c 0
 374 359 304 284 304 143 c 0
 304 73 338 53 363 53 c 0xbf80
 421 53 488 145 490 170 c 2
 505 322 l 1
 505 322 506 328 506 334 c 0
EndSplineSet
Validated: 1
Substitution2: "'smcp' Lowercase to Small Capitals lookup 2-1" at.sc
EndChar

StartChar: A
Encoding: 65 65 33
Width: 684
Flags: W
HStem: -3 29<20.0058 76.1719 173.109 232.234 435.344 487.385 615.161 665.846> 249 48<247 413.999> 643 20G<340 357.5>
LayerCount: 2
Fore
SplineSet
365 660 m 1
 565 132 l 2
 579 95 585 80 594 60 c 0
 604 36 654 26 662 26 c 0
 665 26 666 13 666 7 c 0
 666 2 665 0 664 -3 c 1
 624 -1 598 2 554 2 c 0
 508 2 484 -1 438 -3 c 1
 433 2 434 26 439 26 c 0
 451 26 485 32 490 44 c 0
 491 48 492 54 492 60 c 0
 492 90 478 129 478 129 c 1
 437 242 l 1
 437 242 434 246 431 246 c 0
 405 248 380 249 355 249 c 0
 314 249 273 247 228 244 c 0
 226 244 223 241 223 241 c 1
 180 131 l 1
 168 96 163 75 163 62 c 0
 163 51 166 46 171 42 c 0
 185 31 221 26 229 26 c 0
 234 26 233 3 231 -3 c 1
 191 -1 172 2 128 2 c 0
 82 2 70 -1 24 -3 c 1
 22 -1 20 6 20 12 c 0
 20 18 22 26 24 26 c 0
 36 26 71 32 81 45 c 0
 101 71 114 103 128 139 c 2
 302 586 l 1
 316 625 324 663 356 663 c 0
 359 663 362 661 365 660 c 1
249 299 m 0
 275 298 297 297 320 297 c 0
 351 297 380 298 411 300 c 0
 413 300 414 305 414 305 c 1
 333 526 l 1
 247 303 l 1
 247 303 247 299 249 299 c 0
EndSplineSet
Validated: 1
Substitution2: "'sinf' Scientific Inferiors lookup 5-1" A.sinf
Substitution2: "'sups' Superscript lookup 6-1" A.ssup
Substitution2: "'subs' Subscript lookup 1-1" A.subs
Substitution2: "'ordn' Ordinals lookup 0-1" A.ordn
EndChar

StartChar: B
Encoding: 66 66 34
Width: 592
Flags: W
HStem: -3 29<37.0264 97.6226> 0 45<212.843 384> 331 42<204.4 378.227> 616 41<213.67 362.739> 629 29<36.0898 99.8824>
VStem: 116 87<54.9668 326.846 374.772 608.951> 421 88<426.301 560.322> 457 95<104.534 259.02>
LayerCount: 2
Fore
SplineSet
457 176 m 0x65
 457 251 412 331 279 331 c 0
 245 331 232 329 207 327 c 1
 206 324 203 302 203 294 c 2
 203 148 l 2
 203 134 202 73 219 59 c 0
 231 48 261 45 273 45 c 0
 319 45 457 54 457 176 c 0x65
116 143 m 2
 116 521 l 2
 116 539 115 584 109 607 c 1
 104 619 52 629 40 629 c 0
 38 629 36 634 36 641 c 0
 36 648 38 656 40 658 c 1xad
 40 658 92 656 159 656 c 0
 252 656 241 657 300 657 c 0
 382 657 509 620 509 493 c 0x36
 509 413 426 372 410 366 c 0
 402 363 404 360 405 360 c 0
 441 354 552 289 552 187 c 0
 552 72 450 0 298 0 c 2
 161 0 l 2x75
 94 0 40 -3 40 -3 c 1
 39 -2 37 4 37 13 c 0
 37 19 38 26 40 26 c 0xa5
 52 26 101 35 109 49 c 0
 116 61 116 106 116 143 c 2
325 376 m 0
 377 381 421 413 421 470 c 0
 421 559 377 616 284 616 c 0x36
 260 616 227 613 213 609 c 0
 209 608 207 604 207 600 c 0
 205 573 203 499 203 499 c 1
 203 380 l 2
 203 376 234 373 269 373 c 0
 287 373 309 374 325 376 c 0
EndSplineSet
Validated: 33
Substitution2: "'sinf' Scientific Inferiors lookup 5-1" B.sinf
Substitution2: "'sups' Superscript lookup 6-1" B.ssup
Substitution2: "'subs' Subscript lookup 1-1" B.subs
Substitution2: "'ordn' Ordinals lookup 0-1" B.ordn
EndChar

StartChar: C
Encoding: 67 67 35
Width: 656
Flags: W
HStem: -6 43<296.992 497.809> 625 42<290.366 482.821>
VStem: 44 95<213.444 446.585> 579 34<483.297 533.511>
LayerCount: 2
Fore
SplineSet
634 183 m 5
 634 172 609 43 600 38 c 4
 542 3 453 -6 361 -6 c 4
 184 -6 44 145 44 322 c 4
 44 509 187 667 372 667 c 4
 438 667 535 658 615 642 c 5
 615 642 613 508 613 498 c 4
 613 488 602 483 592 483 c 4
 586 483 581 485 579 488 c 5
 573 519 542 625 375 625 c 4
 240 625 139 483 139 343 c 4
 139 187 225 37 399 37 c 4
 466 37 521 62 552 95 c 4
 584 129 593 192 601 192 c 4
 615 192 634 183 634 183 c 5
EndSplineSet
Validated: 1
Substitution2: "'sinf' Scientific Inferiors lookup 5-1" C.sinf
Substitution2: "'sups' Superscript lookup 6-1" C.ssup
Substitution2: "'subs' Subscript lookup 1-1" C.subs
Substitution2: "'ordn' Ordinals lookup 0-1" C.ordn
EndChar

StartChar: D
Encoding: 68 68 36
Width: 722
Flags: W
HStem: -3 46<188.585 452.762> -3 29<35.0058 95.6226> 614 44<210.704 439.756> 629 29<34.0898 97.8824>
VStem: 114 87<57.9039 603.534> 576 100<212.177 453.397>
LayerCount: 2
Fore
SplineSet
157 656 m 0x5c
 226 656 287 658 331 658 c 0
 562 658 676 496 676 336 c 0
 676 152 554 -3 330 -3 c 0xac
 286 -3 227 2 159 0 c 1
 92 1 38 -3 38 -3 c 1
 37 -2 35 3 35 12 c 0
 35 18 36 26 38 26 c 0
 50 26 99 35 107 49 c 0
 114 61 114 106 114 143 c 2
 114 521 l 2
 114 539 113 584 107 607 c 1
 102 619 50 629 38 629 c 0
 36 629 34 634 34 641 c 0
 34 648 36 656 38 658 c 1
 38 658 90 656 157 656 c 0x5c
201 535 m 2
 201 139 l 2
 201 109 205 88 216 63 c 0
 223 48 330 43 346 43 c 0
 499 43 576 145 576 340 c 0
 576 478 504 614 339 614 c 2
 334 614 l 2
 310 614 225 613 214 598 c 0
 203 583 201 553 201 535 c 2
EndSplineSet
Validated: 33
Substitution2: "'sinf' Scientific Inferiors lookup 5-1" D.sinf
Substitution2: "'sups' Superscript lookup 6-1" D.ssup
Substitution2: "'subs' Subscript lookup 1-1" D.subs
Substitution2: "'ordn' Ordinals lookup 0-1" D.ordn
EndChar

StartChar: E
Encoding: 69 69 37
Width: 571
Flags: W
HStem: -3 29<30.0264 90.6226> 0 44<202.074 453.53> 309 44<196 373.451> 616 48<256.651 437.938> 616 40<199.952 360.197> 629 29<29.0898 92.8824>
VStem: 109 87<49.5865 307.528 353.429 611.922> 402 32<230.002 287.868 373.107 427.976> 472 32<523.07 569.412>
LayerCount: 2
Fore
SplineSet
152 656 m 0x2b80
 246 656 366 664 475 664 c 1
 482 614 495 573 504 528 c 1
 501 525 493 523 486 523 c 0
 479 523 473 525 472 530 c 0
 450 610 409 616 356 616 c 2
 289 616 l 2
 248 616 203 615 201 603 c 0
 197 584 196 542 196 519 c 2
 196 359 l 2
 196 354 217 353 239 353 c 2
 292 353 l 2
 388 353 385 355 402 421 c 0
 403 426 410 428 417 428 c 0
 424 428 431 426 434 423 c 1
 434 234 l 1
 432 232 425 230 418 230 c 0
 411 230 404 233 402 238 c 0
 387 295 383 295 374 301 c 0
 363 308 306 309 268 309 c 0
 240 309 196 309 196 300 c 2
 196 145 l 2
 196 126 198 74 205 54 c 0
 208 45 231 44 273 44 c 2
 321 44 l 2
 359 44 418 46 447 61 c 0
 466 71 494 109 510 162 c 0
 511 166 517 168 524 168 c 0
 534 168 546 165 549 162 c 1
 530 108 502 40 495 -4 c 1
 386 -4 287 0 154 0 c 0x7380
 107 0 33 -3 33 -3 c 1
 32 -2 30 4 30 13 c 0
 30 19 31 26 33 26 c 0
 45 26 94 35 102 49 c 0
 109 61 109 106 109 143 c 2
 109 521 l 2
 109 539 108 584 102 607 c 1
 97 619 45 629 33 629 c 0
 31 629 29 634 29 641 c 0
 29 648 31 656 33 658 c 1xa780
 33 658 85 656 152 656 c 0x2b80
EndSplineSet
Validated: 1
Substitution2: "'sinf' Scientific Inferiors lookup 5-1" E.sinf
Substitution2: "'sups' Superscript lookup 6-1" E.ssup
Substitution2: "'subs' Subscript lookup 1-1" E.subs
Substitution2: "'ordn' Ordinals lookup 0-1" E.ordn
EndChar

StartChar: F
Encoding: 70 70 38
Width: 551
Flags: W
HStem: -3 29<42.0058 106.855 222.335 283.997> 306 44<207 383.451> 616 48<267.651 448.938> 616 40<210.952 371.197> 629 29<40.0898 103.882>
VStem: 120 87<36.9151 304.651 350.385 611.922> 412 32<227.002 284.868 373.74 429.976> 483 32<523.07 569.412>
LayerCount: 2
Fore
SplineSet
163 656 m 0xd7
 257 656 377 664 486 664 c 1
 493 614 506 573 515 528 c 1
 512 525 504 523 497 523 c 0
 490 523 484 525 483 530 c 0
 461 610 420 616 367 616 c 2
 300 616 l 2xe7
 259 616 214 615 212 603 c 0
 208 584 207 542 207 519 c 2
 207 356 l 2
 207 351 227 350 249 350 c 2
 302 350 l 2
 398 350 395 357 412 423 c 0
 413 428 420 430 427 430 c 0
 434 430 441 428 444 425 c 1
 444 231 l 1
 442 229 435 227 428 227 c 0
 421 227 414 230 412 235 c 0
 397 292 393 292 384 298 c 0
 373 305 316 306 278 306 c 0
 250 306 207 306 207 297 c 2
 207 139 l 2
 207 103 209 73 216 46 c 0
 219 35 272 26 280 26 c 0
 283 26 284 17 284 11 c 0
 284 6 283 0 282 -3 c 1
 242 -1 210 2 166 2 c 0
 120 2 92 -1 46 -3 c 1
 44 -1 42 6 42 12 c 0
 42 18 44 26 46 26 c 0
 58 26 108 34 113 46 c 1
 119 69 120 118 120 136 c 2
 120 521 l 2
 120 539 119 584 113 607 c 1
 108 619 56 629 44 629 c 0
 42 629 40 634 40 641 c 0
 40 648 42 656 44 658 c 1xcf
 44 658 96 656 163 656 c 0xd7
EndSplineSet
Validated: 1
Substitution2: "'sinf' Scientific Inferiors lookup 5-1" F.sinf
Substitution2: "'sups' Superscript lookup 6-1" F.ssup
Substitution2: "'subs' Subscript lookup 1-1" F.subs
Substitution2: "'ordn' Ordinals lookup 0-1" F.ordn
EndChar

StartChar: G
Encoding: 71 71 39
Width: 715
Flags: W
HStem: -6 43<304.632 526.722> 271 29<447.188 518.694 636.316 690.997> 625 42<287.782 486.546>
VStem: 44 97<224.895 446.796> 535 84<59.4725 258.241> 536 100<52.209 184.32> 579 34<483.297 536.346>
LayerCount: 2
Fore
SplineSet
44 322 m 0xf4
 44 509 187 667 372 667 c 0
 438 667 528 644 609 622 c 1
 609 622 613 508 613 498 c 0
 613 488 602 483 592 483 c 0
 586 483 581 485 579 488 c 1xf2
 573 519 549 625 375 625 c 0
 240 625 141 492 141 335 c 0
 141 197 243 37 399 37 c 0
 451 37 495 41 529 59 c 0
 535 62 536 67 536 74 c 0xf4
 536 101 535 156 535 156 c 1
 535 163 l 2
 535 180 535 228 527 249 c 0
 521 264 462 271 450 271 c 0
 445 271 445 295 450 300 c 1
 501 298 530 295 581 295 c 0
 623 295 649 298 689 300 c 1
 690 297 691 292 691 286 c 0
 691 279 690 271 687 271 c 0
 679 271 641 260 629 253 c 0
 620 247 619 234 619 186 c 0xf8
 619 150 622 124 622 114 c 0
 622 84 636 69 636 59 c 0
 636 53 629 48 611 41 c 0
 558 21 502 -6 361 -6 c 0
 184 -6 44 145 44 322 c 0xf4
EndSplineSet
Validated: 1
Substitution2: "'sinf' Scientific Inferiors lookup 5-1" G.sinf
Substitution2: "'sups' Superscript lookup 6-1" G.ssup
Substitution2: "'subs' Subscript lookup 1-1" G.subs
Substitution2: "'ordn' Ordinals lookup 0-1" G.ordn
EndChar

StartChar: H
Encoding: 72 72 40
Width: 707
Flags: W
HStem: -3 29<38.0058 102.855 218.335 279.234 430.188 493.855 608.335 669.997> 317 50<203 507> 633 29<38.0511 101.079 219.221 279.234 430.188 492.079 609.221 669.993>
VStem: 116 87<36.9151 316.069 367.001 621.28> 507 87<36.9151 314.999 367.001 621.28>
LayerCount: 2
Fore
SplineSet
507 135 m 2
 507 311 l 2
 507 313 505 315 505 315 c 1
 458 316 408 317 357 317 c 0
 203 317 203 316 203 312 c 2
 203 139 l 2
 203 103 205 73 212 46 c 0
 215 35 268 26 276 26 c 0
 281 26 280 3 278 -3 c 1
 238 -1 206 2 162 2 c 0
 116 2 88 -1 42 -3 c 1
 40 -1 38 6 38 12 c 0
 38 18 40 26 42 26 c 0
 54 26 104 34 109 46 c 1
 115 69 116 117 116 135 c 2
 116 523 l 2
 116 541 115 589 109 612 c 1
 104 624 54 633 42 633 c 0
 40 633 38 640 38 646 c 0
 38 652 40 660 42 662 c 1
 88 660 116 656 162 656 c 0
 206 656 238 660 278 662 c 1
 280 656 281 633 276 633 c 0
 268 633 215 623 212 612 c 0
 205 585 203 555 203 519 c 2
 203 370 l 2
 203 369 205 367 205 367 c 1
 254 366 301 365 357 365 c 0
 404 365 460 366 505 367 c 1
 505 367 507 369 507 371 c 2
 507 523 l 2
 507 541 506 589 500 612 c 1
 495 624 445 633 433 633 c 0
 428 633 428 657 433 662 c 1
 479 660 508 656 554 656 c 0
 598 656 628 660 668 662 c 1
 669 659 670 652 670 647 c 0
 670 641 669 633 666 633 c 0
 658 633 605 623 602 612 c 0
 595 585 594 555 594 519 c 2
 594 139 l 2
 594 103 595 73 602 46 c 0
 605 35 658 26 666 26 c 0
 669 26 670 17 670 11 c 0
 670 6 669 0 668 -3 c 1
 628 -1 598 2 554 2 c 0
 508 2 479 -1 433 -3 c 1
 428 2 428 26 433 26 c 0
 445 26 495 34 500 46 c 1
 506 69 507 117 507 135 c 2
EndSplineSet
Validated: 1
Substitution2: "'sinf' Scientific Inferiors lookup 5-1" H.sinf
Substitution2: "'sups' Superscript lookup 6-1" H.ssup
Substitution2: "'subs' Subscript lookup 1-1" H.subs
Substitution2: "'ordn' Ordinals lookup 0-1" H.ordn
EndChar

StartChar: I
Encoding: 73 73 41
Width: 318
Flags: W
HStem: -3 29<38.0058 102.855 218.335 279.997> 633 29<38.0511 101.079 219.221 279.993>
VStem: 116 87<36.9151 621.28>
LayerCount: 2
Fore
SplineSet
116 523 m 2
 116 541 115 589 109 612 c 1
 104 624 54 633 42 633 c 0
 40 633 38 640 38 646 c 0
 38 652 40 660 42 662 c 1
 88 660 116 657 162 657 c 0
 206 657 238 660 278 662 c 1
 279 659 280 652 280 647 c 0
 280 641 279 633 276 633 c 0
 268 633 215 623 212 612 c 0
 205 585 203 555 203 519 c 2
 203 139 l 6
 203 103 205 73 212 46 c 4
 215 35 268 26 276 26 c 4
 279 26 280 17 280 11 c 4
 280 6 279 0 278 -3 c 5
 238 -1 206 2 162 2 c 4
 116 2 88 -1 42 -3 c 5
 40 -1 38 6 38 12 c 4
 38 18 40 26 42 26 c 4
 54 26 104 34 109 46 c 5
 115 69 116 117 116 135 c 6
 116 523 l 2
EndSplineSet
Validated: 1
Substitution2: "'sinf' Scientific Inferiors lookup 5-1" I.sinf
Substitution2: "'sups' Superscript lookup 6-1" I.ssup
Substitution2: "'subs' Subscript lookup 1-1" I.subs
Substitution2: "'ordn' Ordinals lookup 0-1" I.ordn
EndChar

StartChar: J
Encoding: 74 74 42
Width: 322
Flags: W
HStem: -227 60<-43 61.7876> 633 29<54.0511 117.079 235.221 295.993>
VStem: 132 87<-38.9674 621.28>
LayerCount: 2
Fore
SplineSet
178 656 m 4
 222 656 254 660 294 662 c 1
 295 659 296 652 296 647 c 0
 296 641 295 633 292 633 c 0
 284 633 231 623 228 612 c 0
 221 585 219 555 219 519 c 2
 219 85 l 2
 219 -77 119 -227 -31 -227 c 0
 -55 -227 -83 -211 -83 -211 c 1
 -88 -205 -95 -189 -95 -174 c 0
 -95 -143 -65 -124 -33 -124 c 0
 1 -124 15 -167 43 -167 c 0
 77 -167 132 -100 132 77 c 2
 132 523 l 2
 132 541 131 589 125 612 c 1
 120 624 70 633 58 633 c 0
 56 633 54 640 54 646 c 0
 54 652 56 660 58 662 c 1
 104 660 132 656 178 656 c 4
EndSplineSet
Validated: 1
Substitution2: "'sinf' Scientific Inferiors lookup 5-1" J.sinf
Substitution2: "'sups' Superscript lookup 6-1" J.ssup
Substitution2: "'subs' Subscript lookup 1-1" J.subs
Substitution2: "'ordn' Ordinals lookup 0-1" J.ordn
EndChar

StartChar: K
Encoding: 75 75 43
Width: 693
Flags: W
HStem: -3 29<41.0058 105.855 221.335 282.234 423.188 468.795 618.648 686.848> 311 39<206 241.76> 633 29<41.0511 104.079 222.221 282.234 414.036 473.965 559.588 623.703>
VStem: 119 87<36.9151 310.997 350.002 621.28>
LayerCount: 2
Fore
SplineSet
165 656 m 0
 209 656 241 660 281 662 c 1
 283 656 284 633 279 633 c 0
 271 633 218 623 215 612 c 0
 208 585 206 555 206 519 c 2
 206 356 l 2
 206 353 213 350 213 350 c 1
 220 350 l 2
 234 350 254 352 278 379 c 0
 358 469 376 486 450 582 c 0
 455 588 474 610 474 620 c 0
 474 635 426 637 417 637 c 0
 412 637 412 653 415 662 c 1
 452 660 485 656 522 656 c 0
 566 656 583 660 623 662 c 1
 625 656 626 637 621 637 c 0
 612 636 562 633 529 595 c 2
 328 361 l 2
 320 352 329 341 335 334 c 2
 576 69 l 2
 611 30 674 26 682 26 c 0
 685 26 687 15 687 8 c 0
 687 3 686 -1 685 -3 c 1
 645 -1 602 2 561 2 c 0
 505 2 482 -1 426 -3 c 1
 421 2 421 26 426 26 c 0
 437 26 469 30 469 42 c 0
 469 60 402 143 242 307 c 0
 237 312 224 311 213 311 c 0
 209 311 206 307 206 303 c 2
 206 139 l 2
 206 103 208 73 215 46 c 0
 218 35 271 26 279 26 c 0
 284 26 283 3 281 -3 c 1
 241 -1 209 2 165 2 c 0
 119 2 91 -1 45 -3 c 1
 43 -1 41 6 41 12 c 0
 41 18 43 26 45 26 c 0
 57 26 107 34 112 46 c 1
 118 69 119 117 119 135 c 2
 119 523 l 2
 119 541 118 589 112 612 c 1
 107 624 57 633 45 633 c 0
 43 633 41 640 41 646 c 0
 41 652 43 660 45 662 c 1
 91 660 119 656 165 656 c 0
EndSplineSet
Validated: 1
Substitution2: "'sinf' Scientific Inferiors lookup 5-1" K.sinf
Substitution2: "'sups' Superscript lookup 6-1" K.ssup
Substitution2: "'subs' Subscript lookup 1-1" K.subs
Substitution2: "'ordn' Ordinals lookup 0-1" K.ordn
EndChar

StartChar: L
Encoding: 76 76 44
Width: 568
Flags: W
HStem: -1 29<36.0264 100.637> 2 42<208.604 458.564> 633 29<37.0511 100.079 218.221 278.993>
VStem: 115 87<49.5865 621.28>
LayerCount: 2
Fore
SplineSet
161 656 m 4xb0
 205 656 237 660 277 662 c 1
 278 659 279 652 279 647 c 0
 279 641 278 633 275 633 c 0
 267 633 214 623 211 612 c 0
 204 585 202 555 202 519 c 2
 202 142 l 2
 202 106 204 81 211 54 c 0
 214 45 237 44 279 44 c 2
 327 44 l 2
 365 44 424 46 453 61 c 0
 472 71 500 109 516 162 c 0
 517 166 523 168 530 168 c 0
 540 168 552 165 555 162 c 1
 536 108 508 40 501 -4 c 1
 392 -4 290 2 160 2 c 0x70
 113 2 39 -1 39 -1 c 1
 38 0 36 6 36 15 c 0
 36 21 37 28 39 28 c 0
 51 28 100 35 108 49 c 0
 115 61 115 106 115 143 c 2
 115 521 l 2
 115 539 114 589 108 612 c 1
 103 624 53 633 41 633 c 0
 39 633 37 640 37 646 c 0
 37 652 39 660 41 662 c 1
 87 660 115 656 161 656 c 4xb0
EndSplineSet
Validated: 1
Substitution2: "'sinf' Scientific Inferiors lookup 5-1" L.sinf
Substitution2: "'sups' Superscript lookup 6-1" L.ssup
Substitution2: "'subs' Subscript lookup 1-1" L.subs
Substitution2: "'ordn' Ordinals lookup 0-1" L.ordn
EndChar

StartChar: M
Encoding: 77 77 45
Width: 910
Flags: W
HStem: -3 29<26.0087 96.8058 198.819 265.997 635.051 697.806 817.703 879.993> 633 25<51.0511 119.956 809.735 859.948>
VStem: 127 52<44.8512 289.128> 138 57<359.796 581.944> 711 83<41.3231 347.261>
LayerCount: 2
Fore
SplineSet
167 657 m 0xd8
 201 657 237 660 259 662 c 1
 279 599 386 339 457 161 c 0
 458 159 460 159 461 159 c 0
 462 159 465 160 466 163 c 2
 466 163 564 393 622 542 c 0
 640 588 662 662 662 662 c 1
 694 660 726 658 745 658 c 0
 780 658 832 660 857 662 c 1
 858 659 860 652 860 647 c 0
 860 641 858 633 855 633 c 2
 853 633 l 2
 839 633 809 623 797 613 c 0
 789 607 785 572 785 546 c 0
 785 526 791 270 794 140 c 0
 795 101 799 74 809 48 c 0
 815 34 868 26 876 26 c 0
 879 26 880 18 880 12 c 0
 880 7 879 0 878 -3 c 1
 838 -1 803 2 759 2 c 0
 713 2 685 -1 639 -3 c 1
 637 -1 635 7 635 13 c 0
 635 19 637 26 639 26 c 0
 651 26 687 34 699 41 c 0
 706 45 711 70 711 84 c 0
 711 98 712 122 711 137 c 2
 699 489 l 2
 698 506 691 548 684 548 c 0
 682 548 681 546 679 541 c 2
 470 41 l 2
 466 32 451 -2 433 -2 c 0
 430 -2 427 -1 424 0 c 1
 195 582 l 1xd8
 191 364 179 87 179 75 c 0
 179 66 182 53 185 49 c 0
 195 36 254 26 262 26 c 0
 265 26 266 18 266 11 c 0
 266 5 265 0 264 -3 c 1
 224 -1 192 2 148 2 c 0
 102 2 77 -1 31 -3 c 1
 29 -1 26 6 26 12 c 0
 26 18 29 26 31 26 c 0
 43 26 96 34 109 48 c 0
 125 66 126 100 127 135 c 0xe8
 131 375 138 529 138 572 c 0
 138 586 137 601 134 612 c 1
 129 624 67 633 55 633 c 0
 53 633 51 641 51 647 c 0
 51 653 53 660 55 662 c 1
 101 660 121 657 167 657 c 0xd8
EndSplineSet
Validated: 33
Substitution2: "'sinf' Scientific Inferiors lookup 5-1" M.sinf
Substitution2: "'sups' Superscript lookup 6-1" M.ssup
Substitution2: "'subs' Subscript lookup 1-1" M.subs
Substitution2: "'ordn' Ordinals lookup 0-1" M.ordn
EndChar

StartChar: N
Encoding: 78 78 46
Width: 721
Flags: W
HStem: -3 29<20.0029 88.7816 186.656 253.987> 635 27<24.1875 89.2755 462.074 528.635 630.588 696.965>
VStem: 113 56<41.3891 567.234> 551 55<172.79 620.656>
LayerCount: 2
Fore
SplineSet
551 524 m 2
 551 541 550 589 544 612 c 1
 539 624 477 635 465 635 c 0
 460 635 460 657 465 662 c 1
 511 660 537 656 583 656 c 0
 627 656 655 660 695 662 c 1
 696 659 697 652 697 647 c 0
 697 641 696 635 693 635 c 0
 685 635 617 623 614 612 c 0
 607 585 606 555 606 519 c 2
 606 139 l 2
 606 81 607 51 609 -1 c 1
 606 -4 593 -5 590 -5 c 0
 581 -5 567 4 557 18 c 2
 169 568 l 1
 169 141 l 2
 169 105 169 75 176 48 c 0
 179 37 243 26 251 26 c 0
 256 26 255 3 253 -3 c 1
 213 -1 182 2 138 2 c 0
 92 2 69 -1 23 -3 c 1
 21 -1 20 6 20 12 c 0
 20 18 21 26 23 26 c 0
 35 26 98 37 103 50 c 0
 113 76 113 106 113 144 c 2
 113 537 l 2
 113 565 112 590 106 612 c 1
 101 624 39 633 27 633 c 0
 22 633 22 657 27 662 c 1
 66 661 83 660 129 660 c 0
 159 660 195 661 209 662 c 1
 254 579 437 327 548 172 c 1
 551 189 551 197 551 213 c 2
 551 524 l 2
EndSplineSet
Validated: 1
Substitution2: "'sinf' Scientific Inferiors lookup 5-1" N.sinf
Substitution2: "'sups' Superscript lookup 6-1" N.ssup
Substitution2: "'subs' Subscript lookup 1-1" N.subs
Substitution2: "'ordn' Ordinals lookup 0-1" N.ordn
EndChar

StartChar: O
Encoding: 79 79 47
Width: 728
Flags: W
HStem: -10 43<289.496 460.516> 625 42<268.698 434.137>
VStem: 44 99<213.089 450.855> 584 99<206.425 444.367>
LayerCount: 2
Fore
SplineSet
348 625 m 4
 214 625 143 484 143 350 c 4
 143 195 224 33 379 33 c 4
 514 33 584 174 584 309 c 4
 584 464 503 625 348 625 c 4
44 328 m 4
 44 515 187 667 363 667 c 4
 539 667 683 515 683 328 c 4
 683 141 539 -10 363 -10 c 4
 187 -10 44 141 44 328 c 4
EndSplineSet
Validated: 1
Substitution2: "'sinf' Scientific Inferiors lookup 5-1" O.sinf
Substitution2: "'sups' Superscript lookup 6-1" O.ssup
Substitution2: "'subs' Subscript lookup 1-1" O.subs
Substitution2: "'ordn' Ordinals lookup 0-1" O.ordn
EndChar

StartChar: P
Encoding: 80 80 48
Width: 545
Flags: W
HStem: -3 29<41.1103 101.623 233.789 297.997> 277 43<233.459 354.805> 616 44<210.589 362.736> 629 29<40.0898 103.882>
VStem: 120 87<49.5865 610.855> 416 92<392.8 560.255>
LayerCount: 2
Fore
SplineSet
164 656 m 17xdc
 223 656 246 660 305 660 c 0
 387 660 508 614 508 477 c 0
 508 403 444 277 304 277 c 0
 281 277 244 282 227 305 c 0
 224 309 222 333 227 331 c 0
 257 320 266 320 294 320 c 0
 360 320 416 385 416 462 c 0
 416 551 380 616 289 616 c 0xec
 265 616 233 613 219 609 c 0
 211 607 207 598 207 499 c 2
 207 142 l 2
 207 123 207 75 215 55 c 0
 223 35 286 26 294 26 c 0
 297 26 298 19 298 12 c 7
 298 6 297 0 296 -3 c 1
 256 -1 225 2 166 2 c 0
 99 2 44 -3 44 -3 c 1
 43 -2 41 6 41 15 c 0
 41 21 42 28 44 28 c 0
 56 28 105 35 113 49 c 0
 120 61 120 106 120 143 c 2
 120 521 l 2
 120 539 119 584 113 607 c 1
 108 619 56 629 44 629 c 0
 42 629 40 634 40 641 c 0
 40 648 42 656 44 658 c 1
 164 656 l 17xdc
EndSplineSet
Validated: 1
Substitution2: "'sinf' Scientific Inferiors lookup 5-1" P.sinf
Substitution2: "'sups' Superscript lookup 6-1" P.ssup
Substitution2: "'subs' Subscript lookup 1-1" P.subs
Substitution2: "'ordn' Ordinals lookup 0-1" P.ordn
EndChar

StartChar: Q
Encoding: 81 81 49
Width: 724
Flags: W
HStem: -136 52<584.379 744.468> 625 42<268.453 434.352>
VStem: 44 95<215.216 450.855> 588 95<205.533 444.367>
LayerCount: 2
Fore
SplineSet
348 625 m 0
 214 625 139 484 139 350 c 0
 139 195 224 33 379 33 c 0
 514 33 588 174 588 309 c 0
 588 464 503 625 348 625 c 0
692 -84 m 0
 732 -84 753 -76 760 -76 c 0
 768 -76 772 -86 772 -96 c 2
 772 -101 l 1
 717 -130 665 -136 604 -136 c 0
 494 -136 385 -33 277 0 c 0
 189 27 44 141 44 328 c 0
 44 515 187 667 363 667 c 0
 539 667 683 515 683 328 c 0
 683 141 546 22 459 5 c 1
 556 -41 588 -84 692 -84 c 0
EndSplineSet
Validated: 1
Substitution2: "'sinf' Scientific Inferiors lookup 5-1" Q.sinf
Substitution2: "'sups' Superscript lookup 6-1" Q.ssup
Substitution2: "'subs' Subscript lookup 1-1" Q.subs
Substitution2: "'ordn' Ordinals lookup 0-1" Q.ordn
EndChar

StartChar: R
Encoding: 82 82 50
Width: 660
Flags: W
HStem: -3 31<39.0593 104.545 224.994 295.997 618.726 669.999> 306 43<206.52 290.221> 616 44<208.926 371.344> 629 29<38.0898 101.882>
VStem: 118 87<49.5865 305.998 354.992 610.855> 427 92<404.097 563.06>
LayerCount: 2
Fore
SplineSet
287 616 m 0xec
 263 616 231 613 217 609 c 0
 209 607 206 598 205 499 c 2
 205 378 l 2
 205 351 249 349 292 349 c 2
 317 349 l 2
 354 349 427 391 427 477 c 0
 427 572 376 616 287 616 c 0xec
303 660 m 0
 385 660 519 614 519 477 c 0
 519 424 477 353 402 318 c 0
 397 316 393 313 396 308 c 0
 407 285 446 203 511 132 c 0
 564 74 623 27 667 27 c 1
 669 23 670 18 670 13 c 0
 670 7 670 4 667 -2 c 1
 660 -4 645 -5 640 -5 c 0
 524 -5 449 66 397 139 c 0
 327 238 302 286 266 302 c 0
 258 305 242 306 229 306 c 0
 216 306 205 306 205 289 c 2
 205 142 l 2
 205 123 205 75 213 55 c 0
 221 35 284 26 292 26 c 0
 295 26 296 19 296 12 c 7
 296 6 295 0 294 -3 c 1
 254 -1 223 2 164 2 c 0
 97 2 42 -3 42 -3 c 1
 41 -2 39 6 39 15 c 0
 39 21 40 28 42 28 c 0
 54 28 103 35 111 49 c 0
 118 61 118 106 118 143 c 2
 118 521 l 2
 118 539 117 584 111 607 c 1
 106 619 54 629 42 629 c 0
 40 629 38 634 38 641 c 0
 38 648 40 656 42 658 c 1xdc
 162 656 l 2
 221 656 244 660 303 660 c 0
EndSplineSet
Validated: 1
Substitution2: "'sinf' Scientific Inferiors lookup 5-1" R.sinf
Substitution2: "'sups' Superscript lookup 6-1" R.ssup
Substitution2: "'subs' Subscript lookup 1-1" R.subs
Substitution2: "'ordn' Ordinals lookup 0-1" R.ordn
EndChar

StartChar: S
Encoding: 83 83 51
Width: 491
Flags: W
HStem: -10 41<164.824 319.72> 625 41<178.362 314.749>
VStem: 41 41<119.3 183.72> 61 80<454.853 571.509> 368 87<89.7983 213.651>
LayerCount: 2
Fore
SplineSet
61 490 m 0xd8
 61 596 157 666 257 666 c 0
 319 666 342 653 408 638 c 1
 420 585 420 522 420 495 c 0
 420 488 413 488 410 488 c 0
 406 488 386 488 384 498 c 0
 378 548 329 625 250 625 c 0
 162 625 141 569 141 521 c 0xd8
 141 441 215 408 281 366 c 0
 347 324 455 272 455 173 c 0
 455 63 353 -10 246 -10 c 0
 178 -10 115 9 66 19 c 1
 54 78 41 166 41 178 c 0
 41 183 50 184 57 184 c 0
 68 184 79 179 82 175 c 1xe8
 89 145 116 31 248 31 c 0
 310 31 368 68 368 146 c 0
 368 229 304 250 235 290 c 0
 158 335 61 389 61 490 c 0xd8
EndSplineSet
Validated: 1
Substitution2: "'sinf' Scientific Inferiors lookup 5-1" S.sinf
Substitution2: "'sups' Superscript lookup 6-1" S.ssup
Substitution2: "'subs' Subscript lookup 1-1" S.subs
Substitution2: "'ordn' Ordinals lookup 0-1" S.ordn
EndChar

StartChar: T
Encoding: 84 84 52
Width: 669
Flags: W
HStem: -3 29<213.006 277.855 393.335 454.997> 615 45<91.0107 284.684 385.25 579.989>
VStem: 28 34<521.684 575.415> 291 87<36.9151 607.652> 609 34<521.684 575.415>
LayerCount: 2
Fore
SplineSet
335 656 m 0
 415 656 466 659 555 660 c 0
 569 660 608 667 624 671 c 1
 643 528 l 1
 640 525 628 521 619 521 c 0
 614 521 610 522 609 526 c 0
 590 600 574 615 497 615 c 0
 418 615 389 608 387 600 c 0
 379 572 378 538 378 500 c 2
 378 139 l 2
 378 103 380 73 387 46 c 0
 390 35 443 26 451 26 c 0
 454 26 455 17 455 11 c 0
 455 6 454 0 453 -3 c 1
 413 -1 381 2 337 2 c 0
 291 2 263 -1 217 -3 c 1
 215 -1 213 6 213 12 c 0
 213 18 215 26 217 26 c 0
 229 26 279 34 284 46 c 1
 290 69 291 117 291 135 c 2
 291 497 l 2
 291 537 290 586 282 600 c 0
 278 608 253 615 174 615 c 0
 97 615 81 600 62 526 c 0
 61 522 57 521 52 521 c 0
 43 521 31 525 28 528 c 1
 47 671 l 1
 63 667 102 660 116 660 c 0
 205 659 255 656 335 656 c 0
EndSplineSet
Validated: 1
Substitution2: "'sinf' Scientific Inferiors lookup 5-1" T.sinf
Substitution2: "'sups' Superscript lookup 6-1" T.ssup
Substitution2: "'subs' Subscript lookup 1-1" T.subs
Substitution2: "'ordn' Ordinals lookup 0-1" T.ordn
EndChar

StartChar: U
Encoding: 85 85 53
Width: 719
Flags: W
HStem: 0 49<295.945 470.388> 633 29<33.0511 96.0787 214.221 274.997 464.074 537.881 624.826 698.993>
VStem: 111 87<165.404 621.28> 553 55<146.536 620.656>
LayerCount: 2
Fore
SplineSet
157 657 m 0
 201 657 233 660 273 662 c 1
 274 659 275 654 275 648 c 0
 275 641 274 633 271 633 c 0
 263 633 210 623 207 612 c 0
 200 585 198 555 198 519 c 2
 198 296 l 2
 198 148 262 49 382 49 c 0
 479 49 553 102 553 274 c 2
 553 524 l 2
 553 541 552 589 546 612 c 1
 541 624 479 635 467 635 c 0
 462 635 462 657 467 662 c 1
 513 660 539 656 585 656 c 0
 629 656 657 660 697 662 c 1
 698 659 699 652 699 647 c 0
 699 641 698 635 695 635 c 0
 687 635 619 623 616 612 c 0
 609 585 608 555 608 519 c 2
 608 276 l 2
 608 55 502 0 358 0 c 0
 207 0 111 79 111 296 c 2
 111 523 l 2
 111 541 110 589 104 612 c 1
 99 624 49 633 37 633 c 0
 35 633 33 640 33 646 c 0
 33 652 35 660 37 662 c 1
 83 660 111 657 157 657 c 0
EndSplineSet
Validated: 1
Substitution2: "'sinf' Scientific Inferiors lookup 5-1" U.sinf
Substitution2: "'sups' Superscript lookup 6-1" U.ssup
Substitution2: "'subs' Subscript lookup 1-1" U.subs
Substitution2: "'ordn' Ordinals lookup 0-1" U.ordn
EndChar

StartChar: V
Encoding: 86 86 54
Width: 709
Flags: W
HStem: -9 21G<343 351.5> 633 29<17.0511 75.078 209.011 261.234 480.188 536.664 641.068 692.993>
VStem: 17 182<583 649> 553 140<585 649.5>
LayerCount: 2
Fore
SplineSet
136 657 m 0
 180 657 220 660 260 662 c 1
 262 656 263 633 258 633 c 0
 250 633 199 628 199 600 c 0
 199 566 251 444 368 157 c 0
 371 149 382 157 384 162 c 2
 534 524 l 2
 543 547 553 576 553 594 c 0
 553 626 495 633 483 633 c 0
 478 633 478 657 483 662 c 1
 520 660 553 657 590 657 c 0
 636 657 651 660 691 662 c 1
 692 659 693 652 693 647 c 0
 693 641 692 633 689 633 c 0
 681 633 643 631 629 605 c 0
 609 569 596 540 580 502 c 2
 380 24 l 2
 369 -3 358 -9 345 -9 c 0
 341 -9 337 -7 335 -3 c 2
 130 514 l 2
 115 553 102 584 85 610 c 0
 74 626 33 633 21 633 c 0
 19 633 17 640 17 646 c 0
 17 652 19 660 21 662 c 1
 67 660 90 657 136 657 c 0
EndSplineSet
Validated: 1
Substitution2: "'sinf' Scientific Inferiors lookup 5-1" V.sinf
Substitution2: "'sups' Superscript lookup 6-1" V.ssup
Substitution2: "'subs' Subscript lookup 1-1" V.subs
Substitution2: "'ordn' Ordinals lookup 0-1" V.ordn
EndChar

StartChar: W
Encoding: 87 87 55
Width: 1076
Flags: W
HStem: -8 21G<403 409 681 687> 633 29<16.0511 67.4274 205.688 252.234 302.006 353.427 490.804 537.234 596.188 647.347 753.191 805.234 855.188 904.197 1010.58 1060.99>
VStem: 915 146<590.5 649.5>
LayerCount: 2
Fore
SplineSet
146 657 m 0
 190 657 211 660 251 662 c 1
 253 656 254 633 249 633 c 0
 241 633 199 629 199 604 c 0
 199 586 209 555 222 530 c 2
 429 120 l 2
 433 112 442 120 444 125 c 2
 527 298 l 1
 422 514 l 2
 404 551 387 581 364 610 c 0
 352 625 318 633 306 633 c 0
 303 633 302 641 302 648 c 3
 302 654 304 660 306 662 c 1
 352 660 386 657 432 657 c 0
 476 657 496 660 536 662 c 1
 538 656 539 633 534 633 c 0
 526 633 485 630 485 604 c 0
 485 580 496 555 508 530 c 2
 574 395 l 1
 644 542 l 2
 654 564 658 583 658 600 c 0
 658 627 609 633 599 633 c 0
 594 633 594 657 599 662 c 1
 631 660 668 657 700 657 c 0
 751 657 764 660 804 662 c 1
 806 656 807 633 802 633 c 0
 794 633 749 623 733 605 c 0
 716 585 693 539 675 502 c 2
 598 344 l 1
 707 120 l 2
 711 112 717 120 719 125 c 0
 788 285 860 448 898 536 c 0
 908 560 915 582 915 599 c 0
 915 626 870 633 858 633 c 0
 853 633 853 657 858 662 c 1
 890 660 928 657 960 657 c 0
 1011 657 1019 660 1059 662 c 1
 1060 659 1061 652 1061 647 c 0
 1061 641 1060 633 1057 633 c 0
 1049 633 1009 625 992 605 c 0
 975 585 950 541 934 504 c 2
 722 24 l 2
 710 -2 691 -8 683 -8 c 0
 679 -8 676 -6 674 -3 c 2
 552 247 l 1
 444 24 l 2
 432 -2 413 -8 405 -8 c 0
 401 -8 398 -6 396 -3 c 2
 136 514 l 2
 118 551 101 581 78 610 c 0
 66 625 32 633 20 633 c 0
 18 633 16 640 16 646 c 0
 16 652 18 660 20 662 c 1
 66 660 100 657 146 657 c 0
EndSplineSet
Validated: 1
Substitution2: "'sinf' Scientific Inferiors lookup 5-1" W.sinf
Substitution2: "'sups' Superscript lookup 6-1" W.ssup
Substitution2: "'subs' Subscript lookup 1-1" W.subs
Substitution2: "'ordn' Ordinals lookup 0-1" W.ordn
EndChar

StartChar: X
Encoding: 88 88 56
Width: 688
Flags: W
HStem: -3 29<7.02719 77.8815 185.369 246.973 433.188 484.693 618.241 688.964> 633 29<48.1875 103.701 251.181 305.234 438.188 498.075 607.477 681.234>
LayerCount: 2
Fore
SplineSet
176 657 m 0
 225 657 264 660 304 662 c 1
 306 656 307 633 302 633 c 0
 288 633 242 627 242 601 c 0
 242 593 246 583 254 571 c 2
 369 396 l 1
 422 464 511 574 511 602 c 0
 511 615 483 633 441 633 c 0
 436 633 436 657 441 662 c 1
 478 660 531 657 568 657 c 0
 620 657 640 660 680 662 c 1
 682 656 683 633 678 633 c 0
 670 633 597 624 582 604 c 2
 394 358 l 1
 586 66 l 2
 605 37 651 26 684 26 c 0
 687 26 689 17 689 10 c 0
 689 5 688 -1 687 -3 c 1
 647 -1 623 2 582 2 c 0
 526 2 492 -1 436 -3 c 1
 431 2 431 26 436 26 c 0
 447 26 494 35 494 54 c 0
 494 57 491 63 489 66 c 2
 339 295 l 1
 274 208 175 77 175 55 c 0
 175 49 187 26 243 26 c 0
 246 26 247 16 247 10 c 0
 247 6 247 0 245 -3 c 1
 208 -1 169 2 132 2 c 0
 80 2 49 -1 9 -3 c 1
 8 0 7 5 7 10 c 0
 7 16 8 26 11 26 c 0
 19 26 75 30 99 54 c 1
 313 334 l 1
 173 548 l 2
 150 584 135 601 107 617 c 0
 90 627 63 633 51 633 c 0
 46 633 46 657 51 662 c 1
 100 660 127 657 176 657 c 0
EndSplineSet
Validated: 1
Substitution2: "'sinf' Scientific Inferiors lookup 5-1" X.sinf
Substitution2: "'sups' Superscript lookup 6-1" X.ssup
Substitution2: "'subs' Subscript lookup 1-1" X.subs
Substitution2: "'ordn' Ordinals lookup 0-1" X.ordn
EndChar

StartChar: Y
Encoding: 89 89 57
Width: 649
Flags: W
HStem: -3 27<203.007 260.578 384.671 438.997> 635 27<15.1131 67.667 222.138 272.234 406.074 461.438 577.81 634.965>
VStem: 279 87<36.0506 320.845> 478 157<586.5 649.5>
LayerCount: 2
Fore
SplineSet
139 656 m 0
 188 656 231 660 271 662 c 1
 273 656 274 635 269 635 c 0
 255 635 209 627 209 601 c 0
 209 593 213 583 220 571 c 2
 332 359 l 1
 337 354 340 358 342 361 c 0
 400 449 478 571 478 602 c 0
 478 615 451 635 409 635 c 0
 404 635 404 657 409 662 c 1
 446 660 490 656 527 656 c 0
 579 656 593 660 633 662 c 1
 634 659 635 652 635 647 c 0
 635 641 634 635 631 635 c 0
 623 635 564 624 549 604 c 1
 527 570 366 313 366 291 c 2
 366 139 l 2
 366 103 367 73 374 46 c 0
 377 35 427 24 435 24 c 0
 438 24 439 18 439 11 c 7
 439 5 438 0 437 -3 c 1
 397 -1 369 2 325 2 c 0
 279 2 253 -1 207 -3 c 1
 205 -1 203 5 203 11 c 3
 203 18 204 24 207 24 c 0
 219 24 266 34 271 46 c 1
 277 69 279 104 279 142 c 2
 279 267 l 2
 279 286 272 300 133 549 c 0
 113 586 107 597 84 613 c 0
 68 624 31 635 19 635 c 0
 17 635 15 640 15 646 c 0
 15 652 17 660 19 662 c 1
 68 660 90 656 139 656 c 0
EndSplineSet
Validated: 1
Substitution2: "'sinf' Scientific Inferiors lookup 5-1" Y.sinf
Substitution2: "'sups' Superscript lookup 6-1" Y.ssup
Substitution2: "'subs' Subscript lookup 1-1" Y.subs
Substitution2: "'ordn' Ordinals lookup 0-1" Y.ordn
EndChar

StartChar: Z
Encoding: 90 90 58
Width: 600
Flags: W
HStem: 0 51<162.005 482.331> 608 48<126.574 422.091> 646 19G<58 70 491 535>
VStem: 29 42<481.351 541.543>
LayerCount: 2
Fore
SplineSet
214 656 m 2xd0
 323 656 l 2
 407 656 449 660 533 666 c 1
 537 665 543 643 543 633 c 1
 541 625 169 76 169 76 c 2
 165 70 162 65 162 61 c 0
 162 54 169 51 176 51 c 2
 402 51 l 2
 503 51 529 122 548 172 c 0
 549 174 557 175 562 175 c 0
 572 175 582 170 586 166 c 1
 562 87 552 50 542 0 c 1
 46 0 l 1
 40 7 38 18 38 26 c 0
 38 33 39 39 42 43 c 2
 425 608 l 1
 213 608 l 2xd0
 120 608 95 570 71 484 c 0
 70 481 66 480 61 480 c 0
 50 480 32 486 29 489 c 1
 41 545 54 600 62 665 c 1xb0
 78 661 200 656 214 656 c 2xd0
EndSplineSet
Validated: 1
Substitution2: "'sinf' Scientific Inferiors lookup 5-1" Z.sinf
Substitution2: "'sups' Superscript lookup 6-1" Z.ssup
Substitution2: "'subs' Subscript lookup 1-1" Z.subs
Substitution2: "'ordn' Ordinals lookup 0-1" Z.ordn
EndChar

StartChar: bracketleft
Encoding: 91 91 59
Width: 361
Flags: W
HStem: -102 45<180 287.216> 695 45<180 287.966>
VStem: 121 59<-57.4548 695.272>
LayerCount: 2
Fore
SplineSet
140 740 m 0
 221 740 284 749 300 749 c 0
 302 749 306 747 306 737 c 0
 306 714 290 707 288 706 c 2
 288 706 241 695 187 695 c 0
 181 695 180 687 180 687 c 1
 180 -49 l 1
 180 -49 181 -57 187 -57 c 0
 209 -57 251 -61 289 -74 c 0
 298 -77 301 -84 301 -96 c 0
 301 -107 295 -114 295 -114 c 1
 295 -114 222 -102 140 -102 c 0
 122 -102 121 -80 121 -79 c 2
 121 717 l 2
 121 718 122 740 140 740 c 0
EndSplineSet
Validated: 1
Substitution2: "'sinf' Scientific Inferiors lookup 5-1" bracketleft.sinf
Substitution2: "'sups' Superscript lookup 6-1" bracketleft.ssup
Substitution2: "'smcp' Lowercase to Small Capitals lookup 2-1" bracketleft.sc
Substitution2: "'subs' Subscript lookup 1-1" bracketleft.subs
Substitution2: "'ordn' Ordinals lookup 0-1" bracketleft.ordn
EndChar

StartChar: backslash
Encoding: 92 92 60
Width: 430
Flags: W
LayerCount: 2
Fore
SplineSet
396 -7 m 0
 396 -34 378 -38 373 -39 c 1
 367 -39 349 -37 349 -37 c 1
 36 755 l 1
 36 755 43 761 57 761 c 0
 87 761 99 754 106 739 c 2
 393 13 l 2
 395 9 396 1 396 -7 c 0
EndSplineSet
Validated: 1
Substitution2: "'sinf' Scientific Inferiors lookup 5-1" backslash.sinf
Substitution2: "'sups' Superscript lookup 6-1" backslash.ssup
Substitution2: "'smcp' Lowercase to Small Capitals lookup 2-1" backslash.sc
Substitution2: "'subs' Subscript lookup 1-1" backslash.subs
Substitution2: "'ordn' Ordinals lookup 0-1" backslash.ordn
EndChar

StartChar: bracketright
Encoding: 93 93 61
Width: 361
Flags: W
HStem: -102 45<68.8968 183> 695 45<75.0343 183>
VStem: 183 58<-56.9942 694.994>
LayerCount: 2
Fore
SplineSet
183 -49 m 1
 183 687 l 1
 183 687 182 695 176 695 c 0
 122 695 75 706 75 706 c 2
 74 707 57 714 57 737 c 0
 57 747 60 749 62 749 c 2
 63 749 l 1
 63 749 141 740 223 740 c 0
 241 740 241 718 241 717 c 2
 241 -79 l 2
 241 -80 241 -102 223 -102 c 0
 141 -102 67 -114 67 -114 c 1
 67 -114 61 -113 61 -102 c 0
 61 -90 61 -92 67 -82 c 0
 70 -76 76 -74 76 -74 c 1
 76 -74 122 -57 176 -57 c 0
 182 -57 183 -49 183 -49 c 1
EndSplineSet
Validated: 1
Substitution2: "'sinf' Scientific Inferiors lookup 5-1" bracketright.sinf
Substitution2: "'sups' Superscript lookup 6-1" bracketright.ssup
Substitution2: "'smcp' Lowercase to Small Capitals lookup 2-1" bracketright.sc
Substitution2: "'subs' Subscript lookup 1-1" bracketright.subs
Substitution2: "'ordn' Ordinals lookup 0-1" bracketright.ordn
EndChar

StartChar: asciicircum
Encoding: 94 94 62
Width: 445
Flags: W
HStem: 475 215
VStem: 71 304
LayerCount: 2
Fore
SplineSet
362 475 m 0
 346 475 270 540 222 597 c 1
 178 540 100 475 84 475 c 0
 74 475 71 499 71 499 c 1
 77 513 157 567 208 677 c 0
 212 686 213 690 218 690 c 0
 243 690 233 668 293 588 c 0
 316 558 373 505 375 500 c 1
 375 496 370 475 362 475 c 0
EndSplineSet
Validated: 1
Substitution2: "'smcp' Lowercase to Small Capitals lookup 2-1" asciicircum.sc
EndChar

StartChar: underscore
Encoding: 95 95 63
Width: 468
Flags: W
HStem: -43 56<3.99075 462.32>
LayerCount: 2
Fore
SplineSet
0 -33 m 1
 0 -33 5 13 15 13 c 2
 464 13 l 2
 466 13 468 12 468 8 c 0
 468 -1 464 -15 458 -37 c 0
 456 -43 452 -43 452 -43 c 1
 7 -43 l 1
 7 -43 0 -43 0 -33 c 1
EndSplineSet
Validated: 1
EndChar

StartChar: grave
Encoding: 96 96 64
Width: 327
Flags: W
HStem: 527 160
VStem: 104 168
LayerCount: 2
Fore
SplineSet
104 663 m 0
 104 668 110 687 145 687 c 0
 159 687 174 683 179 678 c 0
 216 635 272 545 272 540 c 0
 272 534 267 527 260 527 c 0
 250 527 104 624 104 663 c 0
EndSplineSet
Validated: 1
EndChar

StartChar: a
Encoding: 97 97 65
Width: 423
Flags: W
HStem: -7 57<133.958 219.484 340.463 394.191> 398 38<151.067 241.667>
VStem: 39 84<61.0183 148.735 293.482 352.469> 261 76<68.6374 203 236.922 381.656>
LayerCount: 2
Fore
SplineSet
184 50 m 4
 221 50 261 77 261 100 c 6
 261 203 l 5
 216 184 123 171 123 106 c 4
 123 69 150 50 184 50 c 4
234 436 m 4
 309 436 337 401 337 324 c 6
 337 93 l 6
 337 66 352 44 378 44 c 0
 397 44 410 56 413 58 c 1
 416 58 417 53 417 50 c 0
 417 44 415 34 412 29 c 1
 398 17 368 -6 342 -6 c 0
 309 -6 278 29 269 53 c 5
 265 52 216 -7 145 -7 c 4
 89 -7 39 21 39 91 c 4
 39 184 175 212 252 241 c 4
 258 243 261 249 261 256 c 6
 261 331 l 6
 261 376 228 398 193 398 c 4
 153 398 123 369 123 324 c 4
 123 299 105 289 82 289 c 4
 68 289 50 296 43 308 c 5
 43 366 148 436 234 436 c 4
EndSplineSet
Validated: 1
Substitution2: "'sinf' Scientific Inferiors lookup 5-1" a.sinf
Substitution2: "'sups' Superscript lookup 6-1" a.ssup
Substitution2: "'smcp' Lowercase to Small Capitals lookup 2-1" a.sc
Substitution2: "'subs' Subscript lookup 1-1" a.subs
Substitution2: "'ordn' Ordinals lookup 0-1" a.ordn
EndChar

StartChar: b
Encoding: 98 98 66
Width: 499
Flags: W
HStem: -6 42<175.756 312.623> 389 49<178.487 301.122> 629 27<7.17725 69.7581> 674 20G<150.5 157>
VStem: 79 77<55.1183 375.286 405.777 623.698> 375 86<135.609 309.652>
LayerCount: 2
Fore
SplineSet
256 438 m 0
 396 438 461 317 461 233 c 0
 461 104 346 -6 235 -6 c 0
 171 -6 147 7 126 7 c 0
 110 7 95 -4 88 -4 c 3
 86 -4 67 -1 67 6 c 4
 67 14 79 52 79 135 c 2
 79 549 l 2
 79 566 77 593 73 613 c 1
 69 627 39 629 22 629 c 2
 13 629 l 2
 9 629 7 633 7 640 c 0
 7 642 8 656 13 656 c 0
 122 666 149 694 152 694 c 2
 154 694 l 2
 160 694 166 683 167 678 c 1
 167 678 156 646 156 591 c 2
 156 416 l 2
 156 411 156 401 162 406 c 0
 177 417 224 438 256 438 c 0
224 389 m 0
 190 389 156 370 156 329 c 2
 156 96 l 2
 156 50 210 36 254 36 c 0
 336 36 375 131 375 212 c 0
 375 316 316 389 224 389 c 0
EndSplineSet
Validated: 1
Substitution2: "'sinf' Scientific Inferiors lookup 5-1" b.sinf
Substitution2: "'sups' Superscript lookup 6-1" b.ssup
Substitution2: "'smcp' Lowercase to Small Capitals lookup 2-1" b.sc
Substitution2: "'subs' Subscript lookup 1-1" b.subs
Substitution2: "'ordn' Ordinals lookup 0-1" b.ordn
EndChar

StartChar: c
Encoding: 99 99 67
Width: 405
Flags: W
HStem: -6 64<189.751 323.584> 399 37<172.191 273.704>
VStem: 37 78<139.747 319.729>
LayerCount: 2
Fore
SplineSet
231 436 m 0
 291 436 354 420 383 385 c 1
 383 361 377 318 346 318 c 0
 322 318 313 330 297 353 c 0
 287 368 268 399 223 399 c 0
 177 399 115 356 115 244 c 0
 115 142 168 58 264 58 c 0
 339 58 377 95 383 98 c 1
 384 98 389 93 389 85 c 0
 389 80 386 72 383 67 c 0
 361 36 307 -6 239 -6 c 0
 130 -6 37 88 37 209 c 0
 37 320 97 436 231 436 c 0
EndSplineSet
Validated: 1
Substitution2: "'sinf' Scientific Inferiors lookup 5-1" c.sinf
Substitution2: "'sups' Superscript lookup 6-1" c.ssup
Substitution2: "'smcp' Lowercase to Small Capitals lookup 2-1" c.sc
Substitution2: "'subs' Subscript lookup 1-1" c.subs
Substitution2: "'ordn' Ordinals lookup 0-1" c.ordn
EndChar

StartChar: d
Encoding: 100 100 68
Width: 497
Flags: W
HStem: -4 49<197.238 321.151> 20 27<429.508 485.915> 398 42<188.154 323.304> 629 27<271.177 333.758> 674 20G<414.5 421>
VStem: 38 86<128.357 294.885> 343 77<58.575 378.343 423.004 623.698>
LayerCount: 2
Fore
SplineSet
248 398 m 0xbe
 165 398 124 309 124 225 c 0
 124 135 174 45 271 45 c 0
 316 45 343 67 343 102 c 2
 343 340 l 2
 343 362 322 398 248 398 c 0xbe
261 440 m 0
 291 440 319 432 336 423 c 1
 339 423 343 429 343 441 c 2
 343 549 l 2
 343 566 341 593 337 613 c 1
 333 627 303 629 286 629 c 2
 277 629 l 2
 273 629 271 633 271 640 c 0
 271 642 272 656 277 656 c 0
 386 666 413 694 416 694 c 2
 418 694 l 2
 424 694 430 683 431 678 c 1
 431 678 420 646 420 591 c 2
 420 141 l 2
 420 130 420 93 426 65 c 0
 431 46 480 48 483 47 c 0
 485 46 486 38 486 35 c 0
 486 33 485 20 480 20 c 0x7e
 428 17 350 -6 349 -6 c 0
 344 -6 343 4 343 11 c 2
 343 23 l 2
 343 28 341 28 339 27 c 0
 319 16 271 -4 233 -4 c 0
 121 -4 38 88 38 196 c 0
 38 327 148 440 261 440 c 0
EndSplineSet
Validated: 1
Substitution2: "'sinf' Scientific Inferiors lookup 5-1" d.sinf
Substitution2: "'sups' Superscript lookup 6-1" d.ssup
Substitution2: "'smcp' Lowercase to Small Capitals lookup 2-1" d.sc
Substitution2: "'subs' Subscript lookup 1-1" d.subs
Substitution2: "'ordn' Ordinals lookup 0-1" d.ordn
EndChar

StartChar: e
Encoding: 101 101 69
Width: 430
Flags: W
HStem: -6 64<189.534 323.584> 232 42<118.122 323.999> 399 37<171.592 274.24>
VStem: 37 81<133.141 320.327> 324 81<246.5 350.117>
LayerCount: 2
Fore
SplineSet
225 399 m 0
 144 399 118 302 118 281 c 0
 118 278 119 274 124 274 c 0
 133 274 313 274 319 274 c 0
 323 274 324 280 324 284 c 0
 324 314 293 399 225 399 c 0
235 436 m 0
 366 436 405 329 405 261 c 0
 405 232 396 232 376 232 c 0
 294 232 208 232 124 232 c 0
 118 232 116 231 116 227 c 0
 116 156 159 58 264 58 c 0
 339 58 377 95 383 98 c 1
 384 98 389 93 389 85 c 0
 389 80 386 72 383 67 c 0
 361 36 307 -6 239 -6 c 0
 130 -6 37 88 37 209 c 0
 37 353 126 436 235 436 c 0
EndSplineSet
Validated: 1
Substitution2: "'sinf' Scientific Inferiors lookup 5-1" e.sinf
Substitution2: "'sups' Superscript lookup 6-1" e.ssup
Substitution2: "'smcp' Lowercase to Small Capitals lookup 2-1" e.sc
Substitution2: "'subs' Subscript lookup 1-1" e.subs
Substitution2: "'ordn' Ordinals lookup 0-1" e.ordn
EndChar

StartChar: f
Encoding: 102 102 70
Width: 301
Flags: W
HStem: -3 29<27.3281 82.5618 188.596 242.593> 372 47<47.5452 98 174 291.625> 656 39<228.914 306.114>
VStem: 98 76<36.4871 371.997 419.002 548.692>
LayerCount: 2
Fore
SplineSet
297 695 m 4
 358 695 382 673 392 656 c 1
 392 623 383 593 356 593 c 0
 323 593 317 656 266 656 c 0
 203 656 174 564 174 475 c 2
 174 424 l 2
 174 422 177 419 179 419 c 2
 290 419 l 2
 295 419 295 418 295 412 c 0
 295 403 290 386 283 372 c 1
 180 372 l 2
 177 372 174 369 174 366 c 0
 174 276 174 135 174 135 c 2
 174 102 176 73 183 46 c 0
 186 35 231 26 239 26 c 0
 244 26 244 3 242 -3 c 1
 202 -1 175 2 135 2 c 0
 94 2 71 -1 30 -3 c 1
 25 2 26 26 30 26 c 0
 42 26 85 35 88 46 c 0
 96 77 98 100 98 135 c 2
 98 135 98 276 98 365 c 0
 98 368 96 372 93 372 c 2
 40 372 l 2
 38 372 37 374 37 378 c 0
 37 386 59 419 87 419 c 2
 93 419 l 2
 96 419 98 422 98 425 c 2
 98 438 l 2
 98 583 203 695 297 695 c 4
EndSplineSet
Validated: 1
Substitution2: "Short f substition-1" f.short
Substitution2: "'sinf' Scientific Inferiors lookup 5-1" f.sinf
Substitution2: "'sups' Superscript lookup 6-1" f.ssup
Substitution2: "'smcp' Lowercase to Small Capitals lookup 2-1" f.sc
Substitution2: "'subs' Subscript lookup 1-1" f.subs
Substitution2: "'ordn' Ordinals lookup 0-1" f.ordn
EndChar

StartChar: g
Encoding: 103 103 71
Width: 474
Flags: HW
HStem: -227 37<161.965 313.148> -14 72<132.246 353.857> 152 34<167.836 266.97> 367 39<364.845 444.703> 398 34<164.302 263.134>
VStem: 29 70<-144.62 -62.5372> 46 77<225.977 362.321> 54 67<44 118.789> 308 77<224.619 358.855> 379 66<-118.281 -8>
LayerCount: 2
Fore
SplineSet
379 -85 m 0xe440
 379 -30 340 -14 175 -14 c 0
 173 -14 171 -15 169 -16 c 0
 139 -31 99 -47 99 -94 c 0
 99 -154 175 -190 242 -190 c 0
 326 -190 379 -137 379 -85 c 0xe440
123 296 m 0xea80
 123 233 168 186 218 186 c 0
 271 186 308 233 308 288 c 0
 308 351 263 398 213 398 c 0
 160 398 123 351 123 296 c 0xea80
217 432 m 0
 290 432 316 406 381 406 c 0
 439 406 l 1
 442 405 445 391 445 381 c 0xf240
 445 373 443 367 439 367 c 2
 368 367 l 2
 365 367 364 366 364 364 c 0
 364 355 385 333 385 292 c 0
 385 222 315 152 219 152 c 0
 193 152 175 154 163 156 c 1
 147 148 121 119 121 99 c 0xf180
 121 58 176 59 221 58 c 0
 393 55 445 22 445 -38 c 0
 445 -138 352 -226 213 -227 c 0
 132 -228 29 -198 29 -116 c 0xf440
 29 -59 100 -22 127 -10 c 1
 95 -5 54 22 54 66 c 0xf1
 54 105 97 146 127 166 c 1
 90 179 46 232 46 292 c 0
 46 371 121 432 217 432 c 0
EndSplineSet
Substitution2: "'sinf' Scientific Inferiors lookup 5-1" g.sinf
Substitution2: "'sups' Superscript lookup 6-1" g.ssup
Substitution2: "'smcp' Lowercase to Small Capitals lookup 2-1" g.sc
Substitution2: "'subs' Subscript lookup 1-1" g.subs
Substitution2: "'ordn' Ordinals lookup 0-1" g.ordn
EndChar

StartChar: h
Encoding: 104 104 72
Width: 530
Flags: W
HStem: -3 29<19.1875 77.2849 180.966 238.593 293.188 347.654 450.966 508.593> 377 61<234.846 325.436> 629 27<18.1772 80.7581> 674 20G<161.5 168>
VStem: 90 77<36.4871 346.251 368.002 623.698> 360 77<36.4871 336.456>
LayerCount: 2
Fore
SplineSet
312 438 m 0
 404 438 437 372 437 242 c 2
 437 134 l 2
 437 101 438 73 445 46 c 0
 448 35 497 26 505 26 c 0
 510 26 510 3 508 -3 c 1
 468 -1 439 2 401 2 c 0
 360 2 337 -1 296 -3 c 1
 291 2 291 26 296 26 c 0
 308 26 350 35 353 46 c 0
 359 71 360 102 360 116 c 2
 360 222 l 2
 360 354 319 377 256 377 c 0
 214 377 167 334 167 312 c 2
 167 135 l 2
 167 102 168 73 175 46 c 0
 178 35 227 26 235 26 c 0
 240 26 240 3 238 -3 c 1
 198 -1 169 2 131 2 c 0
 90 2 63 -1 22 -3 c 1
 17 2 17 26 22 26 c 0
 34 26 80 35 83 46 c 0
 89 71 90 101 90 115 c 2
 90 549 l 2
 90 566 88 593 84 613 c 1
 80 627 50 629 33 629 c 2
 24 629 l 2
 20 629 18 633 18 640 c 0
 18 642 19 656 24 656 c 0
 133 666 160 694 163 694 c 2
 165 694 l 2
 171 694 177 683 178 678 c 1
 178 678 167 646 167 591 c 2
 167 591 167 380 167 372 c 0
 167 371 167 368 169 368 c 0
 170 368 171 369 172 370 c 0
 196 396 258 438 312 438 c 0
EndSplineSet
Validated: 1
Substitution2: "'sinf' Scientific Inferiors lookup 5-1" h.sinf
Substitution2: "'sups' Superscript lookup 6-1" h.ssup
Substitution2: "'smcp' Lowercase to Small Capitals lookup 2-1" h.sc
Substitution2: "'subs' Subscript lookup 1-1" h.subs
Substitution2: "'ordn' Ordinals lookup 0-1" h.ordn
EndChar

StartChar: i
Encoding: 105 105 73
Width: 269
Flags: W
HStem: -3 29<33.1875 91.2849 194.966 252.593> 414 20G<180.5 184> 543 100<93.4375 176.562>
VStem: 85 100<551.438 634.562> 104 77<36.4871 366.601>
LayerCount: 2
Fore
SplineSet
85 593 m 0xf0
 85 621 107 643 135 643 c 0
 163 643 185 621 185 593 c 0
 185 565 163 543 135 543 c 0
 107 543 85 565 85 593 c 0xf0
181 135 m 2xe8
 181 102 182 73 189 46 c 0
 192 35 241 26 249 26 c 0
 254 26 254 3 252 -3 c 1
 212 -1 183 2 145 2 c 0
 104 2 77 -1 36 -3 c 1
 31 2 31 26 36 26 c 0
 48 26 94 35 97 46 c 0
 103 71 104 102 104 116 c 2
 104 305 l 2
 104 313 103 345 90 359 c 1
 68 386 32 376 32 382 c 0
 32 383 33 406 38 407 c 0
 83 414 139 422 176 433 c 0
 177 433 180 434 181 434 c 0
 187 434 187 418 186 413 c 0
 182 381 181 375 181 341 c 2
 181 135 l 2xe8
EndSplineSet
Validated: 1
Substitution2: "'sinf' Scientific Inferiors lookup 5-1" i.sinf
Substitution2: "'sups' Superscript lookup 6-1" i.ssup
Substitution2: "'smcp' Lowercase to Small Capitals lookup 2-1" i.sc
Substitution2: "'subs' Subscript lookup 1-1" i.subs
Substitution2: "'ordn' Ordinals lookup 0-1" i.ordn
EndChar

StartChar: j
Encoding: 106 106 74
Width: 238
Flags: W
HStem: 414 20G<161.5 165> 543 100<67.4375 150.562>
VStem: 59 100<551.438 634.562> 85 77<-83.5328 366.601>
LayerCount: 2
Fore
SplineSet
85 305 m 2xd0
 85 313 84 345 71 359 c 1
 49 386 13 376 13 382 c 0
 13 383 14 406 19 407 c 0
 64 414 120 422 157 433 c 0
 158 433 161 434 162 434 c 0
 168 434 168 418 167 413 c 0
 163 381 162 375 162 341 c 2
 162 68 l 2
 162 32 158 -65 123 -120 c 0
 87 -177 26 -217 -11 -231 c 1
 -16 -228 -22 -221 -24 -216 c 0
 -25 -214 -25 -210 -24 -209 c 0
 -22 -203 85 -183 85 45 c 2
 85 305 l 2xd0
59 593 m 0xe0
 59 621 81 643 109 643 c 0
 137 643 159 621 159 593 c 0
 159 565 137 543 109 543 c 0
 81 543 59 565 59 593 c 0xe0
EndSplineSet
Validated: 1
Substitution2: "'sinf' Scientific Inferiors lookup 5-1" j.sinf
Substitution2: "'sups' Superscript lookup 6-1" j.ssup
Substitution2: "'smcp' Lowercase to Small Capitals lookup 2-1" j.sc
Substitution2: "'subs' Subscript lookup 1-1" j.subs
Substitution2: "'ordn' Ordinals lookup 0-1" j.ordn
EndChar

StartChar: k
Encoding: 107 107 75
Width: 496
Flags: W
HStem: -3 27<15.1875 67.9777 182.512 234.593 283.074 321.982 444.464 499.951> 385 23<265.794 309.785 400.031 460.493> 629 27<14.1772 76.7581> 674 20G<157.5 164>
VStem: 86 77<36.4871 195 241 623.698>
LayerCount: 2
Fore
SplineSet
387 368 m 4
 377 362 294 304 239 247 c 1
 314 166 392 73 416 53 c 0
 442 32 488 24 496 24 c 0
 499 24 500 15 500 8 c 0
 500 3 500 -1 499 -3 c 1
 459 -1 428 2 390 2 c 0
 349 2 327 -1 286 -3 c 1
 281 2 281 24 286 24 c 0
 297 24 322 30 322 37 c 0
 322 38 322 39 321 40 c 2
 175 198 l 1
 163 195 l 1
 163 135 l 1
 164 102 164 73 171 46 c 0
 174 35 223 26 231 26 c 0
 236 26 236 3 234 -3 c 1
 194 -1 165 2 127 2 c 0
 86 2 59 -1 18 -3 c 1
 13 2 13 26 18 26 c 0
 30 26 76 35 79 46 c 0
 85 71 86 102 86 116 c 2
 86 549 l 2
 86 566 84 593 80 613 c 1
 76 627 46 629 29 629 c 2
 20 629 l 2
 16 629 14 633 14 640 c 0
 14 642 15 656 20 656 c 0
 129 666 156 694 159 694 c 2
 161 694 l 2
 167 694 173 683 174 678 c 1
 174 678 163 646 163 591 c 2
 163 241 l 1
 171 243 180 243 188 250 c 0
 276 327 312 347 312 367 c 4
 312 387 271 377 267 385 c 5
 264 394 263 406 268 408 c 5
 347 408 l 6
 382 408 411 411 457 413 c 5
 465 408 461 385 456 385 c 4
 439 385 398 375 387 368 c 4
EndSplineSet
Validated: 1
Substitution2: "'sinf' Scientific Inferiors lookup 5-1" k.sinf
Substitution2: "'sups' Superscript lookup 6-1" k.ssup
Substitution2: "'smcp' Lowercase to Small Capitals lookup 2-1" k.sc
Substitution2: "'subs' Subscript lookup 1-1" k.subs
Substitution2: "'ordn' Ordinals lookup 0-1" k.ordn
EndChar

StartChar: l
Encoding: 108 108 76
Width: 251
Flags: W
HStem: -3 29<16.1875 74.2849 177.966 235.593> 629 27<15.1772 77.7581> 674 20G<158.5 165>
VStem: 87 77<36.4871 623.698>
LayerCount: 2
Fore
SplineSet
87 116 m 6
 87 549 l 6
 87 566 85 593 81 613 c 5
 77 627 47 629 30 629 c 6
 21 629 l 6
 17 629 15 633 15 640 c 4
 15 642 16 656 21 656 c 4
 130 666 157 694 160 694 c 6
 162 694 l 6
 168 694 174 683 175 678 c 5
 175 678 164 646 164 591 c 6
 164 135 l 6
 164 102 165 73 172 46 c 4
 175 35 224 26 232 26 c 4
 237 26 237 3 235 -3 c 5
 195 -1 166 2 128 2 c 4
 87 2 60 -1 19 -3 c 5
 14 2 14 26 19 26 c 4
 31 26 77 35 80 46 c 4
 86 71 87 102 87 116 c 6
EndSplineSet
Validated: 1
Substitution2: "'sinf' Scientific Inferiors lookup 5-1" l.sinf
Substitution2: "'sups' Superscript lookup 6-1" l.ssup
Substitution2: "'smcp' Lowercase to Small Capitals lookup 2-1" l.sc
Substitution2: "'subs' Subscript lookup 1-1" l.subs
Substitution2: "'ordn' Ordinals lookup 0-1" l.ordn
EndChar

StartChar: m
Encoding: 109 109 77
Width: 800
Flags: W
HStem: -3 29<28.1875 86.2849 189.966 247.593 292.188 350.285 453.966 511.593 556.188 614.285 717.966 775.593> 377 61<243.905 323.091 492.658 585.204>
VStem: 99 77<36.4871 347.668> 363 77<36.4871 330.844> 627 77<36.4871 332.082>
CounterMasks: 1 38
LayerCount: 2
Fore
SplineSet
320 438 m 0
 379 438 412 399 423 367 c 1
 457 399 517 438 578 438 c 0
 701 438 704 304 704 246 c 2
 704 135 l 2
 704 102 705 73 712 46 c 0
 715 35 764 26 772 26 c 0
 777 26 777 3 775 -3 c 1
 735 -1 706 2 668 2 c 0
 627 2 600 -1 559 -3 c 1
 554 2 554 26 559 26 c 0
 571 26 617 35 620 46 c 0
 626 71 627 96 627 110 c 2
 627 223 l 2
 627 322 596 377 526 377 c 0
 470 377 435 334 435 320 c 0
 435 319 436 313 436 311 c 0
 439 292 440 257 440 239 c 2
 440 126 l 2
 440 93 441 73 448 46 c 0
 451 35 500 26 508 26 c 0
 513 26 513 3 511 -3 c 1
 471 -1 442 2 404 2 c 0
 363 2 336 -1 295 -3 c 1
 290 2 290 26 295 26 c 0
 307 26 353 35 356 46 c 0
 362 71 363 102 363 116 c 2
 363 218 l 2
 363 334 322 377 267 377 c 0
 226 377 176 338 176 311 c 2
 176 135 l 2
 176 102 177 73 184 46 c 0
 187 35 236 26 244 26 c 0
 249 26 249 3 247 -3 c 1
 207 -1 178 2 140 2 c 0
 99 2 72 -1 31 -3 c 1
 26 2 26 26 31 26 c 0
 43 26 89 35 92 46 c 0
 98 71 99 102 99 116 c 2
 99 305 l 2
 99 313 98 345 85 359 c 1
 63 386 27 376 27 382 c 0
 27 383 28 406 33 407 c 0
 78 414 134 422 171 433 c 0
 172 433 175 434 176 434 c 0
 182 434 182 418 181 413 c 0
 178 392 177 381 177 373 c 0
 177 372 177 369 179 369 c 0
 180 369 181 370 182 371 c 0
 206 396 266 438 320 438 c 0
EndSplineSet
Validated: 1
Substitution2: "'sinf' Scientific Inferiors lookup 5-1" m.sinf
Substitution2: "'sups' Superscript lookup 6-1" m.ssup
Substitution2: "'smcp' Lowercase to Small Capitals lookup 2-1" m.sc
Substitution2: "'subs' Subscript lookup 1-1" m.subs
Substitution2: "'ordn' Ordinals lookup 0-1" m.ordn
EndChar

StartChar: n
Encoding: 110 110 78
Width: 543
Flags: W
HStem: -3 29<30.1875 88.2849 191.966 249.593 304.188 358.654 461.966 519.593> 377 61<246.19 335.925>
VStem: 101 77<36.4871 347.668> 371 77<36.4871 339.422>
LayerCount: 2
Fore
SplineSet
322 438 m 0
 417 438 448 371 448 226 c 2
 448 135 l 2
 448 102 449 73 456 46 c 0
 459 35 508 26 516 26 c 0
 521 26 521 3 519 -3 c 1
 479 -1 450 2 412 2 c 0
 371 2 348 -1 307 -3 c 1
 302 2 302 26 307 26 c 0
 319 26 361 35 364 46 c 0
 370 71 371 102 371 116 c 2
 371 216 l 2
 371 345 337 377 269 377 c 0
 224 377 178 335 178 311 c 2
 178 135 l 2
 178 102 179 73 186 46 c 0
 189 35 238 26 246 26 c 0
 251 26 251 3 249 -3 c 1
 209 -1 180 2 142 2 c 0
 101 2 74 -1 33 -3 c 1
 28 2 28 26 33 26 c 0
 45 26 91 35 94 46 c 0
 100 71 101 102 101 116 c 2
 101 305 l 2
 101 313 100 345 87 359 c 1
 65 386 29 376 29 382 c 0
 29 383 30 406 35 407 c 0
 80 414 136 422 173 433 c 0
 174 433 177 434 178 434 c 0
 184 434 184 418 183 413 c 0
 180 392 179 381 179 373 c 0
 179 372 179 369 181 369 c 0
 182 369 183 370 184 371 c 0
 208 396 268 438 322 438 c 0
EndSplineSet
Validated: 1
Substitution2: "'sinf' Scientific Inferiors lookup 5-1" n.sinf
Substitution2: "'sups' Superscript lookup 6-1" n.ssup
Substitution2: "'smcp' Lowercase to Small Capitals lookup 2-1" n.sc
Substitution2: "'subs' Subscript lookup 1-1" n.subs
Substitution2: "'ordn' Ordinals lookup 0-1" n.ordn
EndChar

StartChar: o
Encoding: 111 111 79
Width: 510
Flags: W
HStem: -7 39<207.124 322.02> 398 39<186.668 303.342>
VStem: 37 86<128.728 312.897> 386 86<119.467 302.995>
LayerCount: 2
Fore
SplineSet
243 398 m 0
 170 398 123 321 123 231 c 0
 123 121 190 32 265 32 c 0
 338 32 386 112 386 202 c 0
 386 312 318 398 243 398 c 0
254 437 m 0
 375 437 472 337 472 216 c 0
 472 94 378 -7 256 -7 c 0
 134 -7 37 94 37 216 c 0
 37 340 130 437 254 437 c 0
EndSplineSet
Validated: 1
Substitution2: "'sinf' Scientific Inferiors lookup 5-1" o.sinf
Substitution2: "'sups' Superscript lookup 6-1" o.ssup
Substitution2: "'smcp' Lowercase to Small Capitals lookup 2-1" o.sc
Substitution2: "'subs' Subscript lookup 1-1" o.subs
Substitution2: "'ordn' Ordinals lookup 0-1" o.ordn
EndChar

StartChar: p
Encoding: 112 112 80
Width: 511
Flags: W
HStem: -226 29<18.1875 76.2849 179.966 237.593> -8 42<192.636 320.107> 387 49<190.539 311.761>
VStem: 89 77<-186.513 10.9963 57.7877 367.601> 387 86<135.133 304.919>
LayerCount: 2
Fore
SplineSet
269 436 m 4
 409 436 473 318 473 234 c 4
 473 105 367 -8 254 -8 c 4
 203 -8 187 4 170 11 c 5
 170 11 166 6 166 -2 c 6
 166 -88 l 6
 166 -121 167 -150 174 -177 c 4
 177 -188 226 -197 234 -197 c 4
 239 -197 239 -220 237 -226 c 5
 197 -224 168 -221 130 -221 c 4
 89 -221 62 -224 21 -226 c 5
 16 -221 16 -197 21 -197 c 4
 33 -197 79 -188 82 -177 c 4
 88 -152 89 -121 89 -107 c 6
 89 306 l 6
 89 314 88 346 75 360 c 5
 53 387 17 377 17 383 c 4
 17 384 18 407 23 408 c 4
 68 415 124 423 161 434 c 4
 162 434 165 435 166 435 c 4
 172 435 167 412 167 407 c 4
 167 403 167 403 167 401 c 5
 182 412 235 436 269 436 c 4
237 387 m 4
 198 387 166 366 166 323 c 6
 166 98 l 6
 166 61 215 34 258 34 c 4
 341 34 387 125 387 206 c 4
 387 325 312 387 237 387 c 4
EndSplineSet
Validated: 1
Substitution2: "'sinf' Scientific Inferiors lookup 5-1" p.sinf
Substitution2: "'sups' Superscript lookup 6-1" p.ssup
Substitution2: "'smcp' Lowercase to Small Capitals lookup 2-1" p.sc
Substitution2: "'subs' Subscript lookup 1-1" p.subs
Substitution2: "'ordn' Ordinals lookup 0-1" p.ordn
EndChar

StartChar: q
Encoding: 113 113 81
Width: 489
Flags: W
HStem: -227 29<272.188 330.285 433.966 491.593> -4 49<196.732 320.716> 398 42<186.751 323.035> 417 20G<411.5 416>
VStem: 38 86<123.507 293.549> 343 77<-187.513 26.1326 58.8788 378.535>
LayerCount: 2
Fore
SplineSet
265 440 m 4xec
 329 440 356 429 377 429 c 0
 393 429 408 437 415 437 c 3xdc
 417 437 436 433 436 427 c 0
 436 419 420 376 420 293 c 2
 420 -101 l 2
 420 -134 421 -151 428 -178 c 0
 431 -189 480 -198 488 -198 c 0
 493 -198 493 -221 491 -227 c 1
 451 -225 422 -222 384 -222 c 0
 343 -222 316 -225 275 -227 c 1
 270 -222 270 -198 275 -198 c 0
 287 -198 333 -189 336 -178 c 0
 342 -153 343 -122 343 -108 c 2
 343 16 l 2
 343 21 342 29 336 26 c 0
 316 16 279 -4 240 -4 c 0
 119 -4 38 100 38 203 c 0
 38 316 141 440 265 440 c 4xec
248 398 m 0xec
 154 398 124 290 124 226 c 0
 124 100 199 45 275 45 c 0
 296 45 343 55 343 105 c 2
 343 337 l 2
 343 372 310 398 248 398 c 0xec
EndSplineSet
Validated: 1
Substitution2: "'sinf' Scientific Inferiors lookup 5-1" q.sinf
Substitution2: "'sups' Superscript lookup 6-1" q.ssup
Substitution2: "'smcp' Lowercase to Small Capitals lookup 2-1" q.sc
Substitution2: "'subs' Subscript lookup 1-1" q.subs
Substitution2: "'ordn' Ordinals lookup 0-1" q.ordn
EndChar

StartChar: r
Encoding: 114 114 82
Width: 380
Flags: W
HStem: -3 29<34.1875 92.2849 196.058 254.593> 375 62<232.815 304.432>
VStem: 105 77<36.4871 344.821>
LayerCount: 2
Fore
SplineSet
293 437 m 0
 333 437 355 432 371 408 c 1
 371 357 351 341 333 341 c 0
 295 341 308 375 259 375 c 0
 216 375 182 326 182 285 c 2
 182 135 l 2
 182 102 183 73 190 46 c 0
 193 35 243 26 251 26 c 0
 256 26 256 3 254 -3 c 1
 214 -1 184 2 146 2 c 0
 105 2 78 -1 37 -3 c 1
 32 2 32 26 37 26 c 0
 49 26 95 35 98 46 c 0
 104 71 105 102 105 116 c 2
 105 305 l 2
 105 313 104 345 91 359 c 1
 69 386 33 376 33 382 c 0
 33 383 34 406 39 407 c 0
 84 414 140 422 177 433 c 0
 178 433 181 434 182 434 c 0
 188 434 188 418 187 413 c 2
 181 363 l 1
 201 394 248 437 293 437 c 0
EndSplineSet
Validated: 1
Substitution2: "'sinf' Scientific Inferiors lookup 5-1" r.sinf
Substitution2: "'sups' Superscript lookup 6-1" r.ssup
Substitution2: "'smcp' Lowercase to Small Capitals lookup 2-1" r.sc
Substitution2: "'subs' Subscript lookup 1-1" r.subs
Substitution2: "'ordn' Ordinals lookup 0-1" r.ordn
EndChar

StartChar: s
Encoding: 115 115 83
Width: 359
Flags: W
HStem: -11 36<121.44 227.209> 402 35<140.116 239.962>
VStem: 41 28<81.3744 117.998> 46 77<291.803 381.036> 248 81<55.7917 144.678> 277 28<317.037 357.157>
LayerCount: 2
Fore
SplineSet
191 437 m 0xd8
 230 437 249 429 293 424 c 1
 300 393 304 358 305 322 c 0
 305 318 297 317 292 317 c 0
 287 317 278 319 277 324 c 0
 271 358 238 402 195 402 c 0
 147 402 123 379 123 343 c 0xd4
 123 291 167 276 212 249 c 0
 257 222 329 190 329 127 c 0
 329 46 256 -11 175 -11 c 0
 129 -11 102 0 58 8 c 1
 50 29 41 86 41 112 c 1
 45 115 48 118 53 118 c 0
 60 118 68 119 69 112 c 0xe8
 76 76 122 25 175 25 c 0
 216 25 248 47 248 93 c 0
 248 154 182 174 124 208 c 0
 84 231 46 262 46 315 c 0
 46 389 117 437 191 437 c 0xd8
EndSplineSet
Validated: 1
Substitution2: "'sinf' Scientific Inferiors lookup 5-1" s.sinf
Substitution2: "'sups' Superscript lookup 6-1" s.ssup
Substitution2: "'smcp' Lowercase to Small Capitals lookup 2-1" s.sc
Substitution2: "'subs' Subscript lookup 1-1" s.subs
Substitution2: "'ordn' Ordinals lookup 0-1" s.ordn
EndChar

StartChar: t
Encoding: 116 116 84
Width: 314
Flags: W
HStem: -7 48<179.894 273.512> 374 48<157 297.919>
VStem: 80 77<63.875 374>
LayerCount: 2
Fore
SplineSet
80 374 m 1
 22 374 l 2
 19 374 17 387 17 395 c 0
 17 399 17 401 18 402 c 1
 34 409 59 429 81 455 c 0
 105 484 124 522 127 526 c 1
 139 526 157 525 157 521 c 2
 157 422 l 1
 201 422 278 421 292 421 c 0
 297 421 300 418 300 412 c 0
 300 403 297 388 290 374 c 1
 157 374 l 1
 157 129 l 2
 157 76 187 41 231 41 c 0
 255 41 288 57 293 60 c 0
 298 63 308 41 307 40 c 0
 292 24 246 -7 197 -7 c 0
 135 -7 80 34 80 120 c 2
 80 374 l 1
EndSplineSet
Validated: 1
Substitution2: "'sinf' Scientific Inferiors lookup 5-1" t.sinf
Substitution2: "'sups' Superscript lookup 6-1" t.ssup
Substitution2: "'smcp' Lowercase to Small Capitals lookup 2-1" t.sc
Substitution2: "'subs' Subscript lookup 1-1" t.subs
Substitution2: "'ordn' Ordinals lookup 0-1" t.ordn
EndChar

StartChar: u
Encoding: 117 117 85
Width: 517
Flags: W
HStem: -7 61<212.445 296.477> 20 27<445.932 503.58> 414 20G<177.5 181 435.5 439>
VStem: 101 76<93.494 366.601> 359 76<82.3558 366.601>
LayerCount: 2
Fore
SplineSet
435 341 m 6xb8
 435 141 l 6
 435 130 436 93 442 65 c 4
 447 46 498 48 501 47 c 4
 503 46 504 39 504 36 c 4
 504 34 501 20 496 20 c 4x78
 444 17 368 -8 367 -8 c 4
 362 -8 359 1 359 8 c 6
 359 59 l 6
 359 64 357 64 357 64 c 5
 329 34 277 -7 226 -7 c 4
 120 -7 101 109 101 179 c 6
 101 305 l 6
 101 313 100 345 87 359 c 5
 65 386 29 376 29 382 c 4
 29 383 30 406 35 407 c 4
 80 414 136 422 173 433 c 4
 174 433 177 434 178 434 c 4
 184 434 184 418 183 413 c 4
 179 381 177 373 177 339 c 6
 177 204 l 6
 177 103 205 54 275 54 c 4
 319 54 359 98 359 118 c 6
 359 305 l 6
 359 313 358 345 345 359 c 5
 323 386 287 376 287 382 c 4
 287 383 288 406 293 407 c 4
 338 414 394 422 431 433 c 4
 432 433 435 434 436 434 c 4
 442 434 442 418 441 413 c 4
 437 381 435 375 435 341 c 6xb8
EndSplineSet
Validated: 1
Substitution2: "'sinf' Scientific Inferiors lookup 5-1" u.sinf
Substitution2: "'sups' Superscript lookup 6-1" u.ssup
Substitution2: "'smcp' Lowercase to Small Capitals lookup 2-1" u.sc
Substitution2: "'subs' Subscript lookup 1-1" u.subs
Substitution2: "'ordn' Ordinals lookup 0-1" u.ordn
EndChar

StartChar: v
Encoding: 118 118 86
Width: 493
Flags: W
HStem: -11 21G<243 250> 405 29<-1.94891 56.8178 153.473 205.887 308.188 376.353 451.218 507.991>
LayerCount: 2
Fore
SplineSet
383 373 m 0
 383 393 367 405 311 405 c 0
 306 405 306 429 311 434 c 1
 352 432 365 429 406 429 c 0
 444 429 466 432 506 434 c 1
 507 431 508 424 508 419 c 0
 508 413 505 405 501 405 c 0
 493 405 445 399 433 371 c 2
 274 12 l 2
 271 4 255 -11 245 -11 c 0
 241 -11 237 -9 236 -7 c 0
 167 146 134 239 61 385 c 0
 51 406 14 405 2 405 c 0
 0 405 -2 412 -2 418 c 0
 -2 424 0 432 2 434 c 1
 43 432 65 429 106 429 c 0
 144 429 166 432 206 434 c 1
 208 428 207 405 202 405 c 0
 195 405 153 403 153 388 c 0
 153 387 153 386 154 384 c 2
 274 113 l 1
 375 343 l 2
 380 355 383 366 383 373 c 0
EndSplineSet
Validated: 33
Substitution2: "'sinf' Scientific Inferiors lookup 5-1" v.sinf
Substitution2: "'sups' Superscript lookup 6-1" v.ssup
Substitution2: "'smcp' Lowercase to Small Capitals lookup 2-1" v.sc
Substitution2: "'subs' Subscript lookup 1-1" v.subs
Substitution2: "'ordn' Ordinals lookup 0-1" v.ordn
EndChar

StartChar: w
Encoding: 119 119 87
Width: 734
Flags: W
HStem: -11 21G<251 262 514 522.5> 405 29<9.05109 60.194 162.786 213.234 282.188 331.766 437.696 481.391 550.188 615.079 695.302 744.994>
VStem: 355 76<304.125 384.977>
LayerCount: 2
Fore
SplineSet
623 370 m 4
 623 404 580 405 557 405 c 6
 553 405 l 6
 548 405 548 429 553 434 c 5
 594 432 613 429 654 429 c 4
 692 429 703 432 743 434 c 5
 744 431 745 424 745 419 c 4
 745 413 743 405 740 405 c 4
 732 405 687 398 676 369 c 6
 545 11 l 6
 540 -3 528 -11 517 -11 c 4
 511 -11 506 -9 505 -7 c 6
 382 287 l 5
 281 11 l 6
 280 8 270 -11 254 -11 c 4
 248 -11 243 -9 242 -7 c 4
 173 146 148 238 67 383 c 4
 55 403 25 405 13 405 c 4
 11 405 9 412 9 418 c 4
 9 424 11 432 13 434 c 5
 54 432 71 429 112 429 c 4
 150 429 172 432 212 434 c 5
 214 428 215 405 210 405 c 4
 202 405 160 403 160 382 c 4
 160 375 204 290 279 120 c 5
 323 248 355 332 355 341 c 4
 355 353 336 385 336 385 c 5
 330 394 326 396 317 400 c 4
 307 405 297 405 285 405 c 4
 280 405 280 429 285 434 c 5
 326 432 341 429 382 429 c 4
 420 429 440 432 480 434 c 5
 482 428 484 405 479 405 c 4
 464 405 431 405 431 366 c 4
 431 349 453 300 541 120 c 5
 583 247 623 346 623 370 c 4
EndSplineSet
Validated: 1
Substitution2: "'sinf' Scientific Inferiors lookup 5-1" w.sinf
Substitution2: "'sups' Superscript lookup 6-1" w.ssup
Substitution2: "'smcp' Lowercase to Small Capitals lookup 2-1" w.sc
Substitution2: "'subs' Subscript lookup 1-1" w.subs
Substitution2: "'ordn' Ordinals lookup 0-1" w.ordn
EndChar

StartChar: x
Encoding: 120 120 88
Width: 467
Flags: W
HStem: -3 29<4.00649 63.6097 151.187 206.994 258.003 302.05 414.271 468.997> 405 29<13.0511 68.6901 180.273 222.953 259.001 315.181 401.233 459.997>
VStem: 203 69<207 247.312>
LayerCount: 2
Fore
SplineSet
13 420 m 1
 13 420 15 430 17 434 c 1
 56 432 78 429 117 429 c 0
 158 429 181 432 222 434 c 5
 223 430 223 427 223 422 c 0
 223 415 222 405 220 405 c 0
 204 405 180 403 180 388 c 0
 180 385 182 381 185 376 c 2
 250 275 l 1
 277 317 316 367 316 387 c 0
 316 407 269 402 262 405 c 0
 259 406 259 414 259 421 c 0
 259 426 259 430 262 434 c 1
 303 432 326 429 367 429 c 0
 403 429 423 432 458 434 c 1
 459 429 460 426 460 420 c 0
 460 414 459 405 457 405 c 0
 423 401 383 387 370 371 c 2
 274 246 l 2
 272 243 272 242 272 239 c 0
 272 235 273 232 275 228 c 2
 382 70 l 2
 405 36 439 28 466 26 c 0
 468 26 469 18 469 12 c 0
 469 6 468 1 465 -3 c 1
 428 -1 408 2 371 2 c 0
 328 2 303 -1 260 -3 c 1
 259 2 258 5 258 10 c 0
 258 16 258 26 261 26 c 0
 275 27 303 32 303 44 c 0
 303 46 302 48 301 50 c 2
 225 170 l 1
 156 67 l 2
 151 59 149 53 149 48 c 0
 149 29 181 28 204 26 c 0
 206 26 207 17 207 11 c 0
 207 5 205 -1 203 -3 c 1
 164 -1 142 2 103 2 c 0
 65 2 44 -1 6 -3 c 1
 5 1 4 5 4 11 c 0
 4 17 6 26 8 26 c 0
 40 31 75 37 98 68 c 2
 202 207 l 1
 202 209 203 211 203 213 c 0
 203 215 202 217 201 219 c 2
 98 370 l 2
 85 389 36 405 16 405 c 0
 14 405 13 420 13 420 c 1
EndSplineSet
Validated: 1
Substitution2: "'sinf' Scientific Inferiors lookup 5-1" x.sinf
Substitution2: "'sups' Superscript lookup 6-1" x.ssup
Substitution2: "'smcp' Lowercase to Small Capitals lookup 2-1" x.sc
Substitution2: "'subs' Subscript lookup 1-1" x.subs
Substitution2: "'ordn' Ordinals lookup 0-1" x.ordn
EndChar

StartChar: y
Encoding: 121 121 89
Width: 454
Flags: W
HStem: -227 71<83.1368 161.875> 405 29<2.05109 53.9407 167.402 212.993 291.051 343.193 424.786 472.993>
LayerCount: 2
Fore
SplineSet
114 429 m 0
 152 429 171 432 211 434 c 1
 212 431 213 424 213 419 c 0
 213 413 212 405 209 405 c 0
 201 405 165 395 162 384 c 1
 162 382 l 2
 162 368 198 282 269 121 c 1
 345 340 l 2
 349 352 352 364 352 371 c 0
 352 391 330 405 295 405 c 0
 293 405 291 412 291 418 c 0
 291 424 293 432 295 434 c 1
 336 432 343 429 384 429 c 0
 422 429 431 432 471 434 c 1
 472 431 473 424 473 419 c 0
 473 413 472 405 469 405 c 0
 461 405 415 398 404 367 c 2
 225 -116 l 2
 190 -210 144 -227 120 -227 c 0
 88 -227 79 -201 79 -188 c 0
 79 -173 86 -161 93 -156 c 1
 148 -156 185 -128 203 -70 c 0
 212 -41 218 -26 226 0 c 1
 83 350 l 2
 80 357 72 375 63 384 c 0
 50 397 18 405 6 405 c 0
 4 405 2 412 2 418 c 0
 2 424 4 432 6 434 c 1
 47 432 73 429 114 429 c 0
EndSplineSet
Validated: 1
Substitution2: "'sinf' Scientific Inferiors lookup 5-1" y.sinf
Substitution2: "'sups' Superscript lookup 6-1" y.ssup
Substitution2: "'smcp' Lowercase to Small Capitals lookup 2-1" y.sc
Substitution2: "'subs' Subscript lookup 1-1" y.subs
Substitution2: "'ordn' Ordinals lookup 0-1" y.ordn
EndChar

StartChar: z
Encoding: 122 122 90
Width: 414
Flags: W
HStem: 0 40<135.007 338.308> 385 39<95.4097 285.509> 412 20G<372.5 395.5>
VStem: 370 37<78.3813 129.861>
LayerCount: 2
Fore
SplineSet
135 47 m 0xb0
 135 42 145 40 147 40 c 2
 278 40 l 2
 339 40 358 77 370 120 c 0
 371 125 372 131 378 131 c 0
 390 131 402 127 407 119 c 1
 386 0 l 1
 49 0 l 1
 49 0 29 12 29 23 c 0
 29 24 29 26 30 27 c 2
 287 384 l 1
 138 385 l 2
 81 385 81 330 73 312 c 0
 71 308 59 306 49 306 c 0
 43 306 38 307 38 309 c 0
 38 323 51 377 54 430 c 1
 54 430 113 424 149 424 c 2
 271 424 l 2xd0
 325 424 352 427 393 432 c 1
 398 424 396 413 396 408 c 1
 142 61 l 2
 137 54 135 50 135 47 c 0xb0
EndSplineSet
Validated: 1
Substitution2: "'sinf' Scientific Inferiors lookup 5-1" z.sinf
Substitution2: "'sups' Superscript lookup 6-1" z.ssup
Substitution2: "'smcp' Lowercase to Small Capitals lookup 2-1" z.sc
Substitution2: "'subs' Subscript lookup 1-1" z.subs
Substitution2: "'ordn' Ordinals lookup 0-1" z.ordn
EndChar

StartChar: braceleft
Encoding: 123 123 91
Width: 324
Flags: W
HStem: -125 29<223.624 268.873> 721 29<220.243 269.125>
VStem: 109 51<-37.9259 95.9466 530.055 673.266> 157 54<144.28 265.064 357.268 480.046>
LayerCount: 2
Fore
SplineSet
66 292 m 1xd0
 64 296 63 303 63 310 c 0
 63 316 64 324 67 329 c 1
 111 340 157 353 157 406 c 0xd0
 157 458 107 514 107 575 c 0
 107 689 181 750 266 750 c 0
 269 750 270 746 270 742 c 0
 270 734 265 722 259 721 c 0
 228 719 160 678 160 613 c 0xe0
 160 540 210 507 210 423 c 0
 210 358 162 309 126 308 c 1
 162 307 211 262 211 197 c 0xd0
 211 113 160 91 160 18 c 0
 160 -47 228 -94 259 -96 c 0
 265 -97 270 -110 270 -118 c 0
 270 -122 269 -125 266 -125 c 0
 181 -125 109 -49 109 55 c 0xe0
 109 114 157 167 157 219 c 0
 157 272 108 279 66 292 c 1xd0
EndSplineSet
Validated: 1
Substitution2: "'sinf' Scientific Inferiors lookup 5-1" braceleft.sinf
Substitution2: "'sups' Superscript lookup 6-1" braceleft.ssup
Substitution2: "'smcp' Lowercase to Small Capitals lookup 2-1" braceleft.sc
Substitution2: "'subs' Subscript lookup 1-1" braceleft.subs
Substitution2: "'ordn' Ordinals lookup 0-1" braceleft.ordn
EndChar

StartChar: bar
Encoding: 124 124 92
Width: 264
Flags: W
VStem: 100 64<-115.908 764.903>
LayerCount: 2
Fore
SplineSet
164 -106 m 2
 164 -114 107 -123 105 -123 c 0
 98 -123 100 -119 100 -115 c 2
 100 757 l 1
 100 757 99 763 105 765 c 0
 122 770 152 772 155 772 c 0
 164 772 163 766 163 766 c 1
 164 -106 l 2
EndSplineSet
Validated: 1
Substitution2: "'sinf' Scientific Inferiors lookup 5-1" bar.sinf
Substitution2: "'sups' Superscript lookup 6-1" bar.ssup
Substitution2: "'smcp' Lowercase to Small Capitals lookup 2-1" bar.sc
Substitution2: "'subs' Subscript lookup 1-1" bar.subs
Substitution2: "'ordn' Ordinals lookup 0-1" bar.ordn
EndChar

StartChar: braceright
Encoding: 125 125 93
Width: 325
Flags: W
HStem: -125 29<55.1272 100.376> 721 29<54.875 103.757>
VStem: 113 54<144.28 265.064 357.268 480.046> 164 51<-37.9259 95.9466 530.055 673.266>
LayerCount: 2
Fore
SplineSet
258 292 m 1xe0
 216 279 167 272 167 219 c 0xe0
 167 167 215 114 215 55 c 0
 215 -49 143 -125 58 -125 c 0
 55 -125 54 -122 54 -118 c 0
 54 -110 59 -97 65 -96 c 0
 96 -94 164 -47 164 18 c 0xd0
 164 91 113 113 113 197 c 0xe0
 113 262 162 307 198 308 c 1
 162 309 114 358 114 423 c 0
 114 507 164 540 164 613 c 0xd0
 164 678 96 719 65 721 c 0
 59 722 54 734 54 742 c 0
 54 746 55 750 58 750 c 0
 143 750 217 689 217 575 c 0
 217 514 167 458 167 406 c 0
 167 353 213 340 257 329 c 1
 260 324 261 316 261 310 c 0
 261 303 260 296 258 292 c 1xe0
EndSplineSet
Validated: 1
Substitution2: "'sinf' Scientific Inferiors lookup 5-1" braceright.sinf
Substitution2: "'sups' Superscript lookup 6-1" braceright.ssup
Substitution2: "'smcp' Lowercase to Small Capitals lookup 2-1" braceright.sc
Substitution2: "'subs' Subscript lookup 1-1" braceright.subs
Substitution2: "'ordn' Ordinals lookup 0-1" braceright.ordn
EndChar

StartChar: asciitilde
Encoding: 126 126 94
Width: 576
Flags: W
HStem: 250 51<316.203 474.147> 303 51<104.289 262.31>
LayerCount: 2
Fore
SplineSet
65 259 m 1
 59 262 56 268 56 276 c 0
 56 291 68 306 80 315 c 0
 121 346 142 354 186 354 c 0
 280 354 328 301 422 301 c 0
 461 301 483 322 512 345 c 1
 518 342 521 336 521 328 c 0
 521 313 510 298 498 289 c 0
 457 258 437 250 393 250 c 0
 298 250 251 303 156 303 c 0
 117 303 94 282 65 259 c 1
EndSplineSet
Validated: 1
Substitution2: "'sinf' Scientific Inferiors lookup 5-1" asciitilde.sinf
Substitution2: "'sups' Superscript lookup 6-1" asciitilde.ssup
Substitution2: "'smcp' Lowercase to Small Capitals lookup 2-1" asciitilde.sc
Substitution2: "'subs' Subscript lookup 1-1" asciitilde.subs
Substitution2: "'ordn' Ordinals lookup 0-1" asciitilde.ordn
EndChar

StartChar: exclamdown
Encoding: 161 161 96
Width: 166
Flags: W
HStem: 316 116<37.8481 126.745>
VStem: 25 115<327.997 419.236> 35 97<-213.133 96.5595>
LayerCount: 2
Fore
SplineSet
80 -224 m 0xa0
 49 -224 35 -192 35 -161 c 0
 35 -133 51 -23 66 237 c 0
 67 257 70 261 90 270 c 0
 97 273 102 260 103 248 c 0
 122 -59 132 -110 132 -161 c 0
 132 -193 112 -224 80 -224 c 0xa0
25 373 m 0xc0
 25 405 50 432 82 432 c 0
 114 432 140 405 140 373 c 0
 140 341 114 316 82 316 c 0
 50 316 25 341 25 373 c 0xc0
EndSplineSet
Validated: 1
Substitution2: "'smcp' Lowercase to Small Capitals lookup 2-1" exclamdown.sc
EndChar

StartChar: cent
Encoding: 162 162 97
Width: 464
Flags: W
HStem: -45 37<199.252 231> -8 60<245.882 338.1> 400 35<192.053 268.386>
VStem: 60 76<136.295 311.705> 196 35<-41.3816 -0.869301> 279 35<429.956 471.129>
LayerCount: 2
Fore
SplineSet
279 474 m 17xbc
 287 474 314 473 314 466 c 9
 231 -45 l 17
 222 -45 196 -43 196 -36 c 9
 279 474 l 17xbc
254 435 m 0
 136 435 60 322 60 211 c 0
 60 67 149 -8 258 -8 c 0
 326 -8 382 41 406 67 c 0
 410 71 412 80 412 85 c 0
 412 92 407 99 406 99 c 0
 402 99 362 52 289 52 c 0x7c
 184 52 136 143 136 245 c 0
 136 363 198 400 244 400 c 0
 289 400 309 376 331 350 c 0
 347 331 356 318 370 318 c 0
 395 318 406 345 406 381 c 1
 384 419 314 435 254 435 c 0
EndSplineSet
Validated: 5
Substitution2: "'smcp' Lowercase to Small Capitals lookup 2-1" cent.sc
EndChar

StartChar: sterling
Encoding: 163 163 98
Width: 473
Flags: W
HStem: -8 69<268.046 389.353> 29 64<109.835 243.318> 279 40<45.1905 321.143> 593 42<198.705 301>
VStem: 100 70<321.365 531.216> 109 69<131.01 431.883>
LayerCount: 2
Fore
SplineSet
51 319 m 1x30
 80 319 304 319 318 319 c 0
 322 319 323 314 323 309 c 3
 323 303 319 286 308 279 c 1
 279 279 64 279 50 279 c 0
 46 279 45 287 45 292 c 3
 45 298 45 310 51 319 c 1x30
282 635 m 4
 320 635 343 622 359 598 c 1
 359 580 355 539 329 539 c 0
 288 539 284 593 243 593 c 0
 175 593 170 512 170 444 c 0x78
 170 410 178 272 178 258 c 0
 178 183 159 128 133 84 c 1
 151 91 161 93 205 93 c 0x74
 259 93 323 61 362 61 c 0
 398 61 416 112 430 135 c 1
 438 135 449 127 449 117 c 0
 449 113 449 110 448 108 c 0
 434 71 402 -8 331 -8 c 0xb4
 266 -8 190 29 140 29 c 0
 109 29 82 7 65 -9 c 1
 52 -9 46 4 46 10 c 1
 62 40 77 56 93 82 c 1
 112 121 109 200 109 249 c 0x74
 109 270 100 391 100 423 c 0x78
 100 549 174 635 282 635 c 4
EndSplineSet
Validated: 37
Substitution2: "'smcp' Lowercase to Small Capitals lookup 2-1" sterling.sc
EndChar

StartChar: currency
Encoding: 164 164 99
Width: 468
Flags: W
HStem: 120 32<191.525 286.572> 463 33<176.384 271.636>
VStem: 48 73<224.803 397.542> 341 72<218.015 391.134>
LayerCount: 2
Fore
SplineSet
240 152 m 0
 301 152 341 219 341 294 c 0
 341 386 286 463 223 463 c 0
 162 463 121 394 121 319 c 0
 121 227 177 152 240 152 c 0
344 455 m 1
 403 510 l 2
 411 518 437 490 444 466 c 1
 384 410 l 1
 402 380 413 344 413 307 c 0
 413 267 401 230 380 199 c 1
 434 141 l 2
 442 133 414 107 390 100 c 1
 338 155 l 1
 308 133 272 120 232 120 c 0
 189 120 149 135 118 160 c 1
 65 110 l 2
 57 102 31 130 24 154 c 1
 78 205 l 1
 59 235 48 270 48 307 c 0
 48 351 62 391 86 423 c 1
 34 479 l 2
 26 487 54 513 78 520 c 1
 130 465 l 1
 159 485 194 496 232 496 c 0
 275 496 313 481 344 455 c 1
EndSplineSet
Validated: 33
EndChar

StartChar: yen
Encoding: 165 165 100
Width: 658
Flags: W
HStem: -3 27<202.006 257.891 377.323 429.973> 138 38<179.157 276 360 456.843> 216 38<179.157 276 360 456.843> 615 27<23.1131 80.304 219.598 269.234 399.074 454.991 565.397 633.965>
VStem: 276 84<35.5801 138 176 216 254 313.472> 469 165<569 629.5>
LayerCount: 2
Fore
SplineSet
143 636 m 0
 191 636 229 640 268 642 c 1
 270 636 271 615 266 615 c 0
 252 615 208 608 208 583 c 0
 208 575 212 565 218 554 c 2
 327 348 l 1
 332 343 335 347 337 350 c 0
 393 435 469 554 469 584 c 0
 469 597 443 615 402 615 c 0
 397 615 397 637 402 642 c 1
 438 640 458 636 494 636 c 0
 544 636 593 640 632 642 c 1
 633 639 634 632 634 627 c 0
 634 621 633 615 630 615 c 0
 622 615 552 605 537 586 c 1
 516 553 360 303 360 282 c 2
 360 254 l 5
 360 254 438 254 452 254 c 4
 456 254 457 246 457 241 c 7
 457 235 457 225 451 216 c 5
 422 216 360 216 360 216 c 5
 360 176 l 5
 360 176 438 176 452 176 c 4
 456 176 457 168 457 163 c 7
 457 157 457 147 451 138 c 5
 422 138 360 138 360 138 c 5
 360 112 360 73 367 46 c 0
 370 35 418 24 426 24 c 0
 429 24 430 18 430 12 c 0
 430 6 429 0 428 -3 c 1
 389 -1 362 2 320 2 c 0
 276 2 250 -1 206 -3 c 1
 204 -1 202 5 202 10 c 0
 202 17 203 24 206 24 c 0
 218 24 263 34 268 46 c 1
 274 69 276 107 276 138 c 5
 276 138 198 138 184 138 c 4
 180 138 179 146 179 151 c 7
 179 157 179 167 185 176 c 5
 214 176 276 176 276 176 c 5
 276 216 l 5
 276 216 198 216 184 216 c 4
 180 216 179 224 179 229 c 7
 179 235 179 245 185 254 c 5
 214 254 276 254 276 254 c 5
 276 257 276 268 275 270 c 0
 272 283 258 311 134 532 c 1
 115 568 111 572 91 594 c 0
 78 608 39 615 27 615 c 0
 25 615 23 620 23 626 c 0
 23 632 25 640 27 642 c 1
 75 640 95 636 143 636 c 0
EndSplineSet
Validated: 1
Substitution2: "'smcp' Lowercase to Small Capitals lookup 2-1" yen.sc
EndChar

StartChar: brokenbar
Encoding: 166 166 101
Width: 137
Flags: W
VStem: 37 63<-116.969 256.903 386.964 760.903>
LayerCount: 2
Fore
SplineSet
37 389 m 2
 37 753 l 1
 37 753 36 759 42 761 c 0
 59 766 88 768 91 768 c 0
 100 768 99 762 99 762 c 1
 100 397 l 1
 96 394 101 389 48 382 c 0
 34 380 37 384 37 389 c 2
37 -115 m 2
 37 249 l 1
 37 249 36 255 42 257 c 0
 59 262 88 264 91 264 c 0
 100 264 99 258 99 258 c 1
 100 -106 l 1
 96 -109 101 -115 48 -122 c 0
 45 -122 44 -123 42 -123 c 0
 35 -123 37 -119 37 -115 c 2
EndSplineSet
Validated: 1
Substitution2: "'sinf' Scientific Inferiors lookup 5-1" brokenbar.sinf
Substitution2: "'sups' Superscript lookup 6-1" brokenbar.ssup
Substitution2: "'smcp' Lowercase to Small Capitals lookup 2-1" brokenbar.sc
Substitution2: "'subs' Subscript lookup 1-1" brokenbar.subs
Substitution2: "'ordn' Ordinals lookup 0-1" brokenbar.ordn
EndChar

StartChar: section
Encoding: 167 167 102
Width: 382
Flags: W
HStem: -41 40<153.251 243.022> 611 40<138.62 226.743>
VStem: 26 46<323.132 431.384> 71 52<489.168 594.793> 257 52<12.6278 121.408> 308 46<179.945 285.001>
LayerCount: 2
Fore
SplineSet
354 263 m 0xd4
 354 195 318 156 295 140 c 1
 300 129 309 111 309 90 c 0
 309 -16 220 -41 163 -41 c 0
 113 -41 84 -22 74 -7 c 1
 74 -3 73 3 73 7 c 0
 73 46 92 52 105 52 c 0
 135 52 151 -1 196 -1 c 0
 232 -1 257 22 257 62 c 0
 257 197 26 143 26 345 c 0xe8
 26 414 53 446 85 469 c 1
 78 481 71 500 71 518 c 0
 71 608 139 651 217 651 c 0
 267 651 295 630 305 615 c 1
 305 611 306 606 306 602 c 0
 306 563 288 557 275 557 c 0
 245 557 229 611 184 611 c 0
 156 611 123 593 123 547 c 0
 123 416 354 465 354 263 c 0xd4
282 173 m 1
 294 185 308 196 308 225 c 0xe4
 308 338 153 340 98 435 c 1
 83 423 72 405 72 383 c 0
 72 270 225 270 282 173 c 1
EndSplineSet
Validated: 1
Substitution2: "'sinf' Scientific Inferiors lookup 5-1" section.sinf
Substitution2: "'sups' Superscript lookup 6-1" section.ssup
Substitution2: "'smcp' Lowercase to Small Capitals lookup 2-1" section.sc
Substitution2: "'subs' Subscript lookup 1-1" section.subs
Substitution2: "'ordn' Ordinals lookup 0-1" section.ordn
EndChar

StartChar: dieresis
Encoding: 168 168 103
Width: 333
Flags: W
HStem: 468 98<36.0176 118.299 219.018 301.299>
VStem: 27 100<476.719 556.943> 210 100<476.719 556.943>
LayerCount: 2
Fore
SplineSet
261 566 m 27
 288 566 310 543 310 516 c 27
 310 489 287 468 260 468 c 27
 233 468 210 490 210 517 c 27
 210 544 234 566 261 566 c 27
78 566 m 27
 105 566 127 543 127 516 c 27
 127 489 104 468 77 468 c 27
 50 468 27 490 27 517 c 27
 27 544 51 566 78 566 c 27
EndSplineSet
Validated: 1
EndChar

StartChar: copyright
Encoding: 169 169 104
Width: 603
Flags: W
HStem: 69 31<219.455 383.652> 195 32<268.319 388.675> 449 34<261.437 376.899> 584 31<219.455 383.652>
VStem: 28 33<256.704 427.296> 159 57<271.691 409.392> 544 31<259.894 424.106>
LayerCount: 2
Fore
SplineSet
428 276 m 1
 428 273 415 217 408 214 c 0
 376 201 344 195 302 195 c 0
 221 195 159 257 159 336 c 0
 159 416 217 483 300 483 c 0
 330 483 378 477 412 464 c 1
 412 464 428 407 428 403 c 0
 428 398 419 394 412 394 c 0
 409 394 407 395 405 396 c 1
 402 409 383 449 312 449 c 0
 258 449 216 400 216 345 c 0
 216 264 275 227 321 227 c 0
 351 227 380 234 393 246 c 0
 405 257 406 279 408 279 c 0
 411 279 427 278 428 276 c 1
28 342 m 0
 28 493 150 615 301 615 c 0
 452 615 575 493 575 342 c 0
 575 191 452 69 301 69 c 0
 150 69 28 191 28 342 c 0
61 342 m 0
 61 209 169 100 302 100 c 0
 435 100 544 209 544 342 c 0
 544 475 435 584 302 584 c 0
 169 584 61 475 61 342 c 0
EndSplineSet
Validated: 1
Substitution2: "'smcp' Lowercase to Small Capitals lookup 2-1" copyright.sc
EndChar

StartChar: ordfeminine
Encoding: 170 170 105
Width: 316
Flags: W
HStem: 249 40<92.6702 159.815 236.858 280.203> 529 27<102.959 168.863>
VStem: 28 60<292.669 364.371 457.505 505.367> 181 55<297.802 392 415.594 523.42>
LayerCount: 2
Fore
SplineSet
181 324 m 2
 181 392 l 1
 150 379 88 373 88 328 c 0
 88 302 106 289 128 289 c 0
 153 289 181 309 181 324 c 2
236 318 m 2
 236 300 245 283 262 283 c 0
 276 283 286 294 287 293 c 0
 289 292 290 291 290 290 c 0
 289 287 287 279 286 273 c 1
 275 265 255 250 238 250 c 0
 215 250 194 275 188 291 c 1
 184 289 149 249 102 249 c 0
 63 249 28 269 28 317 c 0
 28 382 122 402 175 421 c 0
 179 422 181 426 181 431 c 2
 181 489 l 2
 181 514 159 529 134 529 c 0
 106 529 86 509 86 478 c 0
 86 461 67 456 52 456 c 0
 43 456 31 457 31 467 c 0
 31 507 101 556 160 556 c 0
 217 556 236 532 236 484 c 2
 236 318 l 2
EndSplineSet
Validated: 1
Substitution2: "'smcp' Lowercase to Small Capitals lookup 2-1" ordfeminine.sc
EndChar

StartChar: guillemotleft
Encoding: 171 171 106
Width: 469
Flags: W
LayerCount: 2
Fore
SplineSet
294 247 m 1
 381 157 l 1
 434 104 442 102 442 91 c 0
 442 79 425 76 419 73 c 1
 418 75 360 132 213 227 c 1
 208 229 206 235 206 241 c 0
 206 251 207 260 214 268 c 1
 345 347 419 422 420 423 c 1
 443 417 443 408 443 404 c 0
 443 396 439 392 382 338 c 0
 359 316 313 266 294 247 c 1
115 247 m 1
 202 157 l 1
 255 104 263 102 263 91 c 0
 263 79 246 76 240 73 c 1
 239 75 181 132 34 227 c 1
 29 229 27 235 27 241 c 0
 27 251 28 260 35 268 c 1
 166 347 240 422 241 423 c 1
 264 417 264 408 264 404 c 0
 264 396 260 392 203 338 c 0
 180 316 134 266 115 247 c 1
EndSplineSet
Validated: 1
Substitution2: "'smcp' Lowercase to Small Capitals lookup 2-1" guillemotleft.sc
EndChar

StartChar: logicalnot
Encoding: 172 172 107
Width: 538
Flags: W
HStem: 364 56<32.988 440>
VStem: 440 60<158.845 363.996>
LayerCount: 2
Fore
SplineSet
29 374 m 1
 29 374 34 420 44 420 c 2
 488 420 l 2
 494 420 500 419 500 409 c 2
 500 169 l 1
 499 168 502 161 451 154 c 1
 447 154 l 2
 437 154 440 161 440 161 c 1
 440 354 l 2
 440 358 436 364 429 364 c 2
 35 364 l 1
 35 364 29 364 29 374 c 1
EndSplineSet
Validated: 1
EndChar

StartChar: registered
Encoding: 174 174 108
Width: 604
Flags: W
HStem: 133 32<220.455 384.652> 273 12<175.069 201.326 266.922 290.655 435.311 455.963> 406 22<259.308 292.999> 529 25<260.001 329.317> 541 12<177.002 199.775> 648 32<220.455 384.652>
VStem: 29 33<321.65 492.235> 208 51<294.529 405.692 428.775 528.531> 344 50<432.984 522.352> 545 31<324.848 489.045>
LayerCount: 2
Fore
SplineSet
29 407 m 0xe7c0
 29 558 151 680 302 680 c 0
 453 680 576 558 576 407 c 0
 576 256 453 133 302 133 c 0
 151 133 29 256 29 407 c 0xe7c0
62 407 m 0
 62 274 170 165 303 165 c 0
 436 165 545 274 545 407 c 0
 545 540 436 648 303 648 c 0
 170 648 62 540 62 407 c 0
456 280 m 0
 456 273 453 272 441 272 c 0
 379 272 360 286 293 398 c 0
 289 404 282 406 279 406 c 0
 264 408 272 407 261 406 c 0
 260 406 259 403 259 399 c 2
 259 335 l 1
 259 335 260 305 263 294 c 0
 264 290 285 285 289 285 c 0
 291 285 291 276 290 273 c 1
 273 274 246 274 227 274 c 0
 207 274 197 274 177 273 c 1
 176 274 175 278 175 280 c 0
 175 282 176 285 177 285 c 0
 182 285 203 289 205 294 c 0
 207 300 208 311 208 319 c 0
 208 327 207 335 207 335 c 1
 207 490 l 1
 207 490 208 498 208 506 c 0
 208 514 207 525 205 531 c 0
 203 536 183 541 178 541 c 0
 177 541 177 543 177 546 c 0
 177 549 177 552 178 553 c 1xefc0
 178 553 197 550 226 550 c 0
 252 550 274 554 300 554 c 0xf7c0
 335 554 394 535 394 477 c 0
 394 454 378 428 346 414 c 0
 345 414 345 413 345 412 c 0
 345 398 397 331 415 307 c 0
 428 290 442 286 455 286 c 1
 456 284 456 282 456 280 c 0
306 428 m 0
 323 428 344 448 344 474 c 0
 344 508 328 529 294 529 c 0xf7c0
 284 529 269 528 263 526 c 0
 261 526 260 525 260 523 c 0
 259 512 259 486 259 486 c 1
 259 441 l 2
 259 428 286 428 306 428 c 0
EndSplineSet
Validated: 1
Substitution2: "'smcp' Lowercase to Small Capitals lookup 2-1" registered.sc
EndChar

StartChar: macron
Encoding: 175 175 109
Width: 460
Flags: W
HStem: 550 46<541.21 758.904>
VStem: 540 225<550.013 596>
LayerCount: 2
Fore
SplineSet
540 559 m 0
 540 561 541 596 552 596 c 2
 760 596 l 2
 762 596 765 595 765 589 c 0
 765 584 764 575 759 557 c 0
 757 551 752 550 752 550 c 1
 546 550 l 1
 546 550 540 549 540 559 c 0
EndSplineSet
Validated: 1
EndChar

StartChar: degree
Encoding: 176 176 110
Width: 233
Flags: W
HStem: 437 37<73.8121 159.842> 597 37<73.8121 159.842>
VStem: 18 37<492.812 578.842> 178 37<492.812 578.842>
LayerCount: 2
Fore
SplineSet
18 536 m 0
 18 590 63 634 117 634 c 0
 171 634 215 590 215 536 c 0
 215 482 171 437 117 437 c 0
 63 437 18 482 18 536 c 0
55 536 m 0
 55 502 83 474 117 474 c 0
 151 474 178 502 178 536 c 0
 178 570 151 597 117 597 c 0
 83 597 55 570 55 536 c 0
EndSplineSet
Validated: 1
Substitution2: "'smcp' Lowercase to Small Capitals lookup 2-1" degree.sc
EndChar

StartChar: plusminus
Encoding: 177 177 111
Width: 533
Flags: W
HStem: 6 56<37.0959 494.875> 304 56<36.0959 239 295.001 496.904>
VStem: 239 56<97.3652 303.998 360 562.904>
LayerCount: 2
Fore
SplineSet
491 62 m 1
 491 62 501 63 499 51 c 0
 492 3 486 9 483 6 c 1
 35 6 l 1
 35 6 27 5 29 19 c 0
 31 33 31 37 37 57 c 0
 39 63 44 62 44 62 c 1
 491 62 l 1
295 301 m 2
 295 109 l 1
 295 109 295 99 250 93 c 0
 247 93 246 92 244 92 c 0
 237 92 239 96 239 100 c 2
 239 299 l 2
 239 301 238 304 233 304 c 2
 34 304 l 1
 34 304 28 304 28 314 c 0
 28 318 29 331 36 355 c 0
 38 361 43 360 43 360 c 1
 234 360 l 2
 237 360 239 364 239 366 c 2
 239 556 l 1
 239 556 238 561 244 563 c 0
 268 570 281 571 285 571 c 0
 295 571 295 565 295 565 c 1
 295 365 l 2
 295 362 296 360 299 360 c 2
 499 360 l 2
 503 360 507 362 507 355 c 0
 507 346 503 332 497 310 c 0
 495 304 490 304 490 304 c 1
 299 304 l 2
 296 304 295 303 295 301 c 2
EndSplineSet
Validated: 1
EndChar

StartChar: uni00B2
Encoding: 178 178 112
Width: 338
Flags: W
HStem: 254 56<111.953 288.381> 594 53<104.388 195.868>
VStem: 211 77<474.226 579.823> 293 19<322.813 348.225>
LayerCount: 2
Fore
SplineSet
149 594 m 0
 125 594 94 575 76 553 c 0
 72 549 54 570 54 578 c 0
 54 579 53 581 55 583 c 0
 80 616 132 647 178 647 c 0
 240 647 288 599 288 542 c 0
 288 449 188 385 112 317 c 0
 111 316 110 310 113 310 c 2
 250 310 l 2
 291 310 287 336 293 346 c 0
 294 348 295 348 298 349 c 0
 301 349 309 347 312 343 c 1
 301 314 298 286 291 254 c 1
 166 255 l 1
 39 254 l 1
 33 257 27 266 27 275 c 0
 27 279 29 283 31 287 c 1
 99 361 211 472 211 532 c 0
 211 559 191 594 149 594 c 0
EndSplineSet
Validated: 33
EndChar

StartChar: uni00B3
Encoding: 179 179 113
Width: 316
Flags: W
HStem: 247 36<90.2439 183.074> 438 30<91.5625 143.051> 596 51<90.2467 185.335>
VStem: 192 66<515.945 587.737> 217 71<316.668 428.718>
LayerCount: 2
Fore
SplineSet
174 647 m 0xf0
 205 647 258 620 258 569 c 0
 258 525 227 506 192 484 c 1xf0
 219 484 288 451 288 385 c 0
 288 297 197 247 110 247 c 0
 68 247 34 262 27 273 c 1
 27 280 l 2
 27 300 39 317 55 317 c 0
 85 317 95 283 129 283 c 0
 171 283 217 310 217 371 c 0xe8
 217 420 189 444 152 444 c 0
 124 444 131 442 100 438 c 1
 94 444 91 452 91 457 c 0
 91 462 94 466 100 468 c 0
 149 478 192 505 192 554 c 0
 192 580 166 596 140 596 c 0
 97 596 78 558 67 558 c 0
 59 558 52 592 53 593 c 0
 78 624 121 647 174 647 c 0xf0
EndSplineSet
Validated: 33
EndChar

StartChar: acute
Encoding: 180 180 114
Width: 460
Flags: W
HStem: 527 160
VStem: 506 168
LayerCount: 2
Fore
SplineSet
633 687 m 0
 668 687 674 668 674 663 c 0
 674 624 528 527 518 527 c 0
 511 527 506 534 506 540 c 0
 506 546 563 637 599 678 c 0
 604 683 619 687 633 687 c 0
EndSplineSet
Validated: 1
EndChar

StartChar: paragraph
Encoding: 182 182 116
Width: 496
Flags: W
HStem: -4 27<168.766 222.329 396.422 453.949> 2 34<285.969 330.139> 291 361<138.617 238> 299 33<284.062 333.998> 316 38<387.472 428.558> 611 37<285.933 331.991> 624 29<385.674 443.812>
VStem: 46 238<385.584 555.804> 238 48<36.4405 290.905> 334 43<92.3594 298.999 349 603.643>
LayerCount: 2
Fore
SplineSet
284 286 m 2x5140
 286 49 l 2x50c0
 286 40 300 36 310 36 c 0
 320 36 330 44 330 50 c 0
 333 84 334 189 334 295 c 0
 334 298 332 299 330 299 c 0
 326 299 317 296 291 293 c 0
 285 292 284 291 284 286 c 2x5140
217 652 m 0xa140
 276 652 269 648 328 648 c 0x0540
 395 648 441 653 441 653 c 1
 446 648 446 624 441 624 c 0
 429 624 385 616 380 604 c 0
 378 597 377 551 377 500 c 0
 377 439 378 369 378 350 c 0
 378 346 381 345 383 346 c 2
 426 354 l 1
 428 350 430 345 430 341 c 0
 429 331 421 319 410 316 c 2
 384 309 l 2
 382 308 379 306 379 304 c 0
 379 275 379 71 386 45 c 1
 391 33 438 23 450 23 c 0
 452 23 454 17 454 11 c 0
 454 5 452 -2 450 -4 c 1x8b40
 387 -2 352 2 289 2 c 0x4140
 243 2 210 -2 170 -4 c 1
 168 2 167 23 172 23 c 0
 180 23 230 34 233 45 c 0
 237 62 238 122 238 183 c 2
 238 284 l 2x80c0
 238 291 234 291 218 291 c 0
 103 291 46 399 46 469 c 0
 46 578 135 652 217 652 c 0xa140
286 599 m 2x14c0
 286 599 284 440 284 338 c 0x1540
 284 335 287 332 292 332 c 0
 307 333 329 338 329 338 c 2
 331 338 334 340 334 344 c 0
 334 470 333 587 332 600 c 0
 332 604 319 611 309 611 c 0
 299 611 286 610 286 599 c 2x14c0
EndSplineSet
Validated: 1
Substitution2: "'sinf' Scientific Inferiors lookup 5-1" paragraph.sinf
Substitution2: "'sups' Superscript lookup 6-1" paragraph.ssup
Substitution2: "'smcp' Lowercase to Small Capitals lookup 2-1" paragraph.sc
Substitution2: "'subs' Subscript lookup 1-1" paragraph.subs
Substitution2: "'ordn' Ordinals lookup 0-1" paragraph.ordn
EndChar

StartChar: periodcentered
Encoding: 183 183 117
Width: 203
Flags: W
HStem: 205 117<60.2549 149.745>
VStem: 47 116<217.764 309.619>
LayerCount: 2
Fore
SplineSet
47 264 m 0
 47 296 73 322 105 322 c 0
 137 322 163 296 163 264 c 0
 163 232 137 205 105 205 c 0
 73 205 47 232 47 264 c 0
EndSplineSet
Validated: 1
EndChar

StartChar: cedilla
Encoding: 184 184 118
Width: 460
Flags: W
HStem: -152 24<638.049 702.387> -61 34<680 707.414>
VStem: 712 37<-122.34 -64.0801>
LayerCount: 2
Fore
SplineSet
680 -27 m 1
 705 -27 l 2
 731 -27 749 -50 749 -76 c 0
 749 -123 707 -152 655 -152 c 0
 643 -152 627 -147 621 -143 c 1
 620 -138 618 -135 618 -129 c 0
 618 -122 626 -115 632 -115 c 0
 644 -115 653 -128 669 -128 c 0
 697 -128 712 -112 712 -95 c 0
 712 -71 694 -61 681 -61 c 0
 670 -61 665 -64 655 -68 c 0
 653 -68 643 -59 645 -55 c 0
 654 -40 669 -18 677 -4 c 1
 698 -4 l 1
 680 -27 l 1
EndSplineSet
Validated: 1
EndChar

StartChar: uni00B9
Encoding: 185 185 119
Width: 272
Flags: W
HStem: 253 25<42.7773 100.633 192.725 244.951>
VStem: 108 74<293.746 568.147>
LayerCount: 2
Fore
SplineSet
38 554 m 1
 32 557 24 558 24 570 c 0
 24 573 25 577 27 578 c 0
 133 622 174 652 177 652 c 2
 179 652 l 2
 185 652 190 632 191 629 c 1
 191 629 182 587 182 548 c 2
 182 340 l 2
 182 320 183 309 190 293 c 0
 193 286 233 279 241 279 c 0
 244 279 245 270 245 263 c 0
 245 259 245 255 244 253 c 1
 205 254 185 256 146 256 c 0
 107 256 85 254 46 253 c 1
 41 256 41 278 46 278 c 0
 58 278 99 285 102 292 c 0
 107 305 108 313 108 323 c 2
 108 518 l 2
 108 564 100 569 89 569 c 0
 77 569 58 561 38 554 c 1
EndSplineSet
Validated: 1
EndChar

StartChar: ordmasculine
Encoding: 186 186 120
Width: 370
Flags: W
HStem: 247 24<154.771 230.041> 529 25<142.39 220.196>
VStem: 29 69<322.561 478.383> 272 69<321.143 478.777>
LayerCount: 2
Fore
SplineSet
180 529 m 0
 124 529 98 467 98 411 c 0
 98 345 129 271 195 271 c 0
 250 271 272 336 272 391 c 0
 272 456 245 529 180 529 c 0
187 554 m 0
 274 554 341 482 341 399 c 0
 341 316 274 247 187 247 c 0
 100 247 29 316 29 399 c 0
 29 484 98 554 187 554 c 0
EndSplineSet
Validated: 1
Substitution2: "'smcp' Lowercase to Small Capitals lookup 2-1" ordmasculine.sc
EndChar

StartChar: guillemotright
Encoding: 187 187 121
Width: 471
Flags: W
LayerCount: 2
Fore
SplineSet
51 73 m 1
 28 79 28 87 28 91 c 0
 28 102 38 107 88 157 c 1
 175 247 l 1
 156 266 110 316 87 338 c 0
 28 395 27 396 27 404 c 0
 27 416 44 420 50 423 c 1
 52 421 125 347 255 268 c 1
 262 260 264 251 264 241 c 0
 264 235 261 229 256 227 c 1
 129 145 63 86 51 73 c 1
230 73 m 1
 207 79 207 87 207 91 c 0
 207 102 218 107 268 157 c 1
 355 247 l 1
 336 266 290 316 267 338 c 0
 208 395 206 396 206 404 c 0
 206 416 223 420 229 423 c 1
 231 421 305 347 435 268 c 1
 442 260 443 251 443 241 c 0
 443 235 441 229 436 227 c 1
 309 145 242 86 230 73 c 1
EndSplineSet
Validated: 1
Substitution2: "'smcp' Lowercase to Small Capitals lookup 2-1" guillemotright.sc
EndChar

StartChar: onequarter
Encoding: 188 188 122
Width: 670
Flags: W
HStem: -5 21G<554.5 587.5> 115 43<424.91 532.952 602.001 645.677> 251 24<40.7773 92.3286 185.83 235.93> 625 20G<521 526>
VStem: 102 70<291.746 554.996> 533 69<-4.7273 114.547 159 296.089>
LayerCount: 2
Fore
SplineSet
573 -5 m 0
 536 -5 533 -3 533 4 c 2
 533 112 l 1
 532 115 530 115 528 115 c 2
 379 115 l 1
 375 120 367 130 366 141 c 1
 562 390 l 2
 566 395 577 398 585 398 c 0
 594 398 602 395 602 390 c 2
 602 163 l 2
 602 160 604 159 607 159 c 2
 634 159 l 2
 644 159 646 151 646 121 c 0
 646 117 640 115 640 115 c 1
 605 114 l 2
 603 114 602 112 602 109 c 2
 602 0 l 1
 599 -3 602 -5 573 -5 c 0
533 163 m 2
 533 292 l 2
 533 294 529 298 528 296 c 0
 483 243 471 223 425 166 c 0
 423 164 426 158 429 158 c 2
 527 158 l 2
 529 158 533 159 533 163 c 2
556 617 m 1
 208 -14 l 1
 208 -14 208 -16 204 -16 c 0
 201 -16 183 -13 170 3 c 0
 166 7 169 10 169 10 c 1
 517 642 l 1
 517 642 519 645 523 645 c 0
 529 645 541 641 553 628 c 0
 558 623 556 617 556 617 c 1
37 540 m 1
 31 543 23 544 23 556 c 0
 23 570 51 563 167 638 c 1
 170 638 l 2
 176 638 180 617 181 614 c 1
 181 614 172 573 172 534 c 2
 172 338 l 2
 172 318 173 307 180 291 c 0
 183 284 223 276 231 276 c 0
 234 276 236 268 236 261 c 0
 236 257 236 253 235 251 c 1
 196 252 179 254 140 254 c 0
 101 254 83 252 44 251 c 1
 39 254 39 275 44 275 c 0
 56 275 93 283 96 290 c 0
 101 303 102 311 102 321 c 2
 102 504 l 2
 102 550 95 555 85 555 c 0
 74 555 57 547 37 540 c 1
EndSplineSet
Validated: 1
EndChar

StartChar: onehalf
Encoding: 189 189 123
Width: 721
Flags: W
HStem: 0 56<497.953 667.187> 251 24<40.7773 92.3286 185.83 235.93> 340 53<489.95 582.484> 625 20G<520 523.5>
VStem: 102 70<291.746 554.996> 596 77<220.639 326.486>
LayerCount: 2
Fore
SplineSet
630 56 m 2
 670 56 672 98 677 98 c 0
 680 98 694 94 697 90 c 1
 690 62 684 32 677 0 c 1
 425 0 l 1
 419 3 414 13 414 22 c 0
 414 26 415 29 417 33 c 1
 485 107 596 219 596 279 c 0
 596 306 577 340 535 340 c 0
 511 340 479 323 462 300 c 0
 459 296 448 300 447 304 c 0
 446 307 440 328 441 329 c 0
 466 362 517 393 563 393 c 0
 625 393 673 345 673 288 c 0
 673 195 574 131 498 63 c 0
 497 62 496 56 499 56 c 2
 630 56 l 2
556 618 m 2
 208 -14 l 1
 208 -14 208 -16 204 -16 c 0
 201 -16 183 -13 170 3 c 0
 166 7 169 11 169 11 c 1
 517 643 l 1
 517 643 518 645 522 645 c 0
 525 645 557 631 557 622 c 0
 557 619 556 619 556 618 c 2
167 638 m 1
 170 638 l 2
 176 638 180 617 181 614 c 1
 181 614 172 573 172 534 c 2
 172 338 l 2
 172 318 173 307 180 291 c 0
 183 284 223 276 231 276 c 0
 234 276 236 268 236 261 c 0
 236 257 236 253 235 251 c 1
 196 252 179 254 140 254 c 0
 101 254 83 252 44 251 c 1
 39 254 39 275 44 275 c 0
 56 275 93 283 96 290 c 0
 101 303 102 311 102 321 c 2
 102 504 l 2
 102 550 95 555 85 555 c 0
 74 555 57 547 37 540 c 1
 31 543 23 544 23 556 c 0
 23 570 51 563 167 638 c 1
EndSplineSet
Validated: 1
EndChar

StartChar: threequarters
Encoding: 190 190 124
Width: 694
Flags: W
HStem: -5 21G<578.5 611.5> 115 43<448.91 556.952 626.001 669.677> 247 36<88.5056 181.289> 438 30<90.5625 141.819> 444 40<190 197.975> 596 51<88.9849 183.941> 625 20G<544 549>
VStem: 190 67<517.402 589.058> 216 70<316.668 428.195> 557 69<-4.7273 114.547 159 296.089>
LayerCount: 2
Fore
SplineSet
173 647 m 0xf540
 204 647 257 620 257 569 c 0
 257 525 225 506 190 484 c 1xed40
 217 484 286 451 286 385 c 0
 286 297 195 247 108 247 c 0
 66 247 32 262 25 273 c 1
 25 280 l 2
 25 300 38 317 54 317 c 0
 84 317 93 283 127 283 c 0
 169 283 216 310 216 371 c 0
 216 420 187 444 150 444 c 0xecc0
 122 444 130 442 99 438 c 1
 93 444 90 452 90 457 c 0
 90 462 93 466 99 468 c 0
 148 478 190 505 190 554 c 0
 190 580 165 596 139 596 c 0
 96 596 76 558 65 558 c 0
 57 558 51 591 52 593 c 0
 77 624 120 647 173 647 c 0xf540
597 -5 m 0
 560 -5 557 -3 557 4 c 2
 557 112 l 1
 556 115 554 115 552 115 c 2
 403 115 l 1
 399 120 391 130 390 141 c 1
 586 390 l 2
 590 395 601 398 609 398 c 0
 618 398 626 395 626 390 c 2
 626 163 l 2
 626 160 628 159 631 159 c 2
 658 159 l 2
 668 159 670 151 670 121 c 0
 670 117 664 115 664 115 c 1
 629 114 l 2
 627 114 626 112 626 109 c 2
 626 0 l 1
 623 -3 626 -5 597 -5 c 0
557 163 m 2
 557 292 l 2
 557 294 553 298 552 296 c 0
 507 243 495 223 449 166 c 0
 447 164 450 158 453 158 c 2
 551 158 l 2
 553 158 557 159 557 163 c 2
228 -16 m 0
 214 -16 192 1 192 7 c 0
 192 9 193 10 193 10 c 1
 541 642 l 1
 541 642 542 645 546 645 c 0xe240
 552 645 565 641 577 628 c 0
 582 623 580 617 580 617 c 1
 232 -14 l 1
 232 -14 232 -16 228 -16 c 0
EndSplineSet
Validated: 33
EndChar

StartChar: questiondown
Encoding: 191 191 125
Width: 310
Flags: W
HStem: -226 84<141.213 269.525> 314 116<181.255 270.745>
VStem: 24 50<-119.824 -15.7987> 168 116<325.997 417.236> 213 33<174.744 255.919>
LayerCount: 2
Fore
SplineSet
231 -142 m 0xe8
 245 -142 278 -149 278 -182 c 0
 278 -196 275 -208 270 -216 c 1
 260 -221 241 -226 220 -226 c 0
 154 -226 24 -158 24 -41 c 0
 24 27 50 69 125 112 c 0
 152 128 197 163 203 174 c 0
 212 190 213 198 213 243 c 0
 213 254 220 256 233 256 c 0
 238 256 246 255 246 248 c 0
 246 222 247 181 247 154 c 0
 247 80 198 55 161 31 c 0
 112 0 74 -23 74 -60 c 0
 74 -122 116 -149 154 -149 c 0
 207 -149 205 -142 231 -142 c 0xe8
284 371 m 0xf0
 284 339 258 314 226 314 c 0
 194 314 168 339 168 371 c 0
 168 403 194 430 226 430 c 0
 258 430 284 403 284 371 c 0xf0
EndSplineSet
Validated: 1
Substitution2: "'smcp' Lowercase to Small Capitals lookup 2-1" questiondown.sc
EndChar

StartChar: AE
Encoding: 198 198 132
Width: 982
Flags: W
HStem: -3 29<48.3562 112.554 206.533 257.151 420.006 479.266> 2 42<590.335 840.564> 247 50<342.627 497> 309 44<584 761.451> 616 48<649.258 825.938> 629 29<420.006 464.257>
VStem: 497 87<46.7642 244.943 297.003 307.528 353.429 529.714> 790 32<230.002 287.868 373.107 427.976> 860 32<523.07 569.412>
LayerCount: 2
Fore
SplineSet
485 297 m 4x3380
 494 297 497 301 497 308 c 30
 497 523 l 22
 497 529 493 531 488 531 c 4
 484 531 481 527 479 524 c 4
 458 491 342 301 342 301 c 5
 342 301 341 297 343 297 c 4
 369 296 390 295 413 295 c 4
 444 295 459 296 485 297 c 4x3380
408 247 m 4
 367 247 355 245 309 242 c 4
 307 242 304 239 304 239 c 5
 235 129 l 5
 215 94 205 73 202 60 c 4
 199 49 202 44 206 40 c 4
 217 29 252 26 260 26 c 4
 263 26 258 3 255 -3 c 5
 215 -1 197 0 153 0 c 4
 107 0 94 -1 48 -3 c 5
 46 -1 47 4 48 10 c 4
 49 16 53 26 55 26 c 4
 67 26 103 30 116 43 c 4
 144 69 163 101 185 137 c 6
 462 584 l 6
 465 589 469 597 469 604 c 4
 469 622 436 629 424 629 c 4
 422 629 420 636 420 643 c 4
 420 650 422 656 424 658 c 5xb780
 424 658 473 656 540 656 c 4
 633 656 754 664 863 664 c 5
 870 614 883 573 892 528 c 5
 889 525 881 523 874 523 c 4
 867 523 861 525 860 530 c 4
 838 610 797 616 744 616 c 6
 677 616 l 6
 636 616 591 615 589 603 c 4
 585 584 584 542 584 519 c 6
 584 359 l 6
 584 354 605 353 627 353 c 6
 680 353 l 6
 776 353 773 355 790 421 c 4
 791 426 798 428 805 428 c 4
 812 428 819 426 822 423 c 5
 822 234 l 5
 820 232 813 230 806 230 c 4
 799 230 792 233 790 238 c 4
 775 295 771 295 762 301 c 4
 751 308 694 309 656 309 c 4
 628 309 584 309 584 300 c 6
 584 145 l 6
 584 126 586 74 593 54 c 4
 596 45 619 44 661 44 c 6
 709 44 l 6
 747 44 806 46 835 61 c 4
 854 71 882 109 898 162 c 4
 899 166 905 168 912 168 c 4
 922 168 934 165 937 162 c 5
 918 108 890 40 883 -4 c 5
 774 -4 633 2 542 2 c 4x7b80
 475 2 424 -3 424 -3 c 5
 422 -1 420 4 420 12 c 4
 420 20 422 26 424 26 c 4xb380
 436 26 485 37 490 49 c 5
 496 72 497 118 497 135 c 14
 497 233 l 30
 497 240 489 243 484 244 c 4
 470 246 433 247 408 247 c 4
EndSplineSet
Validated: 1
EndChar

StartChar: Eth
Encoding: 208 208 142
Width: 731
Flags: W
HStem: -3 46<205.517 470.11> -3 29<52.0058 112.623> 308 40<65.1905 421.084> 614 44<227.704 456.756> 629 29<51.0898 114.882>
VStem: 131 87<57.9039 603.534> 597 96<212.177 453.397>
LayerCount: 2
Fore
SplineSet
71 348 m 1x26
 100 348 402 348 416 348 c 0
 420 348 422 343 422 338 c 3
 422 332 420 317 416 308 c 1
 387 308 84 308 70 308 c 0
 66 308 65 316 65 321 c 3
 65 327 65 339 71 348 c 1x26
174 656 m 4
 240 656 304 658 348 658 c 0
 579 658 693 496 693 336 c 0
 693 152 571 -3 347 -3 c 0xb6
 303 -3 241 2 176 0 c 2
 109 1 55 -3 55 -3 c 1
 54 -2 52 3 52 12 c 0
 52 18 53 26 55 26 c 0
 67 26 116 35 124 49 c 0
 131 61 131 106 131 143 c 2
 131 521 l 2
 131 539 130 584 124 607 c 1
 119 619 67 629 55 629 c 0
 53 629 51 634 51 641 c 0
 51 648 53 656 55 658 c 1x6e
 55 658 107 656 174 656 c 4
218 535 m 2
 218 139 l 2
 218 109 222 88 233 63 c 0
 240 48 347 43 363 43 c 0
 516 43 597 145 597 340 c 0
 597 478 521 614 356 614 c 2
 351 614 l 2
 327 614 242 613 231 598 c 0
 220 583 218 553 218 535 c 2
EndSplineSet
Validated: 37
EndChar

StartChar: multiply
Encoding: 215 215 149
Width: 414
Flags: W
HStem: 415 20G<55 59 356 360.5>
LayerCount: 2
Fore
SplineSet
56 60 m 4
 49 60 27 98 27 108 c 5
 165 243 l 6
 166 244 166 245 166 246 c 4
 166 248 165 250 164 251 c 6
 27 388 l 5
 27 402 52 435 58 435 c 4
 60 435 61 433 63 431 c 6
 205 290 l 6
 206 289 208 288 209 288 c 4
 211 289 l 5
 352 430 l 6
 354 432 355 433 357 433 c 4
 364 433 386 394 386 384 c 5
 251 249 l 6
 250 248 250 247 250 246 c 4
 250 245 250 244 250 244 c 6
 386 108 l 5
 386 93 368 60 360 60 c 4
 356 60 354 61 352 63 c 6
 212 203 l 6
 211 204 209 205 208 205 c 4
 206 205 205 204 204 203 c 6
 61 63 l 6
 59 61 58 60 56 60 c 4
EndSplineSet
Validated: 1
Substitution2: "'smcp' Lowercase to Small Capitals lookup 2-1" multiply.sc
EndChar

StartChar: Oslash
Encoding: 216 216 150
Width: 696
Flags: W
HStem: -10 43<273.496 444.516> 625 42<252.698 418.137>
VStem: 28 99<213.089 450.855> 568 99<206.425 444.367>
LayerCount: 2
Fore
SplineSet
332 625 m 0
 198 625 127 484 127 350 c 0
 127 195 208 33 363 33 c 0
 498 33 568 174 568 309 c 0
 568 464 487 625 332 625 c 0
540 667 m 17
 549 665 573 651 569 645 c 9
 151 -13 l 17
 142 -10 118 4 122 10 c 9
 540 667 l 17
347 667 m 0
 523 667 667 515 667 328 c 0
 667 141 523 -10 347 -10 c 0
 171 -10 28 141 28 328 c 0
 28 515 171 667 347 667 c 0
EndSplineSet
Validated: 37
EndChar

StartChar: Thorn
Encoding: 222 222 156
Width: 556
Flags: W
HStem: -3 29<50.0058 114.855 230.335 291.997> 128 43<241.459 362.805> 467 44<223.506 371.427> 633 29<50.0511 113.079 231.221 291.993>
VStem: 128 87<36.9151 459.854 497.001 621.28> 424 92<243.8 411.255>
LayerCount: 2
Fore
SplineSet
174 657 m 4
 218 657 250 660 290 662 c 1
 291 659 292 652 292 647 c 0
 292 641 291 633 288 633 c 0
 280 633 227 623 224 612 c 0
 218 589 215 555 215 524 c 0
 215 515 215 508 215 504 c 0
 215 499 217 497 219 497 c 0
 226 497 254 511 313 511 c 0
 395 511 516 465 516 328 c 0
 516 254 452 128 312 128 c 0
 289 128 252 133 235 156 c 0
 232 160 230 184 235 182 c 0
 265 171 274 171 302 171 c 0
 368 171 424 236 424 313 c 0
 424 402 388 467 297 467 c 0
 273 467 241 465 227 460 c 0
 218 457 215 446 215 423 c 2
 215 139 l 2
 215 103 217 73 224 46 c 0
 227 35 280 26 288 26 c 0
 291 26 292 17 292 11 c 0
 292 6 291 0 290 -3 c 1
 250 -1 218 2 174 2 c 0
 128 2 100 -1 54 -3 c 1
 52 -1 50 6 50 12 c 0
 50 18 52 26 54 26 c 0
 66 26 116 34 121 46 c 1
 127 69 128 117 128 135 c 2
 128 523 l 2
 128 541 127 589 121 612 c 1
 116 624 66 633 54 633 c 0
 52 633 50 640 50 646 c 0
 50 652 52 660 54 662 c 1
 100 660 128 657 174 657 c 4
EndSplineSet
Validated: 1
EndChar

StartChar: germandbls
Encoding: 223 223 157
Width: 578
Flags: W
HStem: -10 33<47.5249 98.5664 207.803 257 364.044 439.989> 369 47<58.4277 115.999> 660 33<240.786 344.867>
VStem: 116 77<36.4871 368.996 416.002 578.778> 267 58<316.788 384.967> 388 75<491.067 624.745> 463 68<55.4014 151.894>
LayerCount: 2
Fore
SplineSet
463 561 m 0xfc
 463 449 325 413 325 359 c 0
 325 318 376 290 423 265 c 0
 470 240 531 206 531 137 c 0
 531 58 475 -10 399 -10 c 0
 338 -10 291 16 281 33 c 1
 281 66 288 91 315 91 c 0
 348 91 349 23 400 23 c 0
 436 23 463 52 463 102 c 0xfa
 463 202 267 190 267 325 c 0
 267 419 388 419 388 549 c 0
 388 614 354 660 290 660 c 0
 201 660 193 557 193 475 c 0
 193 343 194 135 194 135 c 2
 194 102 194 73 201 46 c 0
 204 35 246 26 254 26 c 0
 259 26 259 3 257 -3 c 1
 217 -1 195 2 155 2 c 0
 114 2 92 -1 51 -3 c 1
 49 -1 47 6 47 12 c 0
 47 18 49 26 51 26 c 0
 63 26 103 35 106 46 c 0
 114 77 115 100 115 135 c 2
 115 135 116 273 116 361 c 0
 116 364 114 369 111 369 c 2
 58 369 l 2
 56 369 55 371 55 375 c 0
 55 388 65 416 70 416 c 2
 111 416 l 2
 114 416 116 419 116 422 c 2
 116 438 l 2
 116 610 185 693 287 693 c 0
 387 693 463 655 463 561 c 0xfc
EndSplineSet
Validated: 1
Substitution2: "'smcp' Lowercase to Small Capitals lookup 2-1" germandbls.sc
EndChar

StartChar: ae
Encoding: 230 230 164
Width: 675
Flags: W
HStem: -7 57<144.958 238.021> -6 64<429.051 563.632> 222 39<355.999 548.493> 398 38<162.067 253.795 409.326 507.411>
VStem: 50 84<61.0183 151.602 293.482 352.469> 272 83<134.066 203 261.003 339.792> 554 77<250.5 348.532>
LayerCount: 2
Fore
SplineSet
272 100 m 2xbe
 272 203 l 1
 224 194 134 171 134 106 c 0
 134 69 161 50 195 50 c 0
 232 50 272 77 272 100 c 2xbe
464 399 m 0
 392 399 356 313 356 267 c 0
 356 265 354 261 362 261 c 0
 414 264 540 275 549 278 c 0
 553 279 554 283 554 287 c 0
 554 313 519 399 464 399 c 0
245 436 m 0
 288 436 329 416 341 382 c 1
 373 414 421 436 468 436 c 0
 599 436 631 333 631 265 c 0
 631 236 619 238 602 237 c 0
 519 230 448 226 363 222 c 0
 357 222 355 219 355 214 c 0
 355 130 421 58 504 58 c 0
 571 58 611 92 623 98 c 1
 624 98 629 93 629 85 c 0
 629 80 626 69 622 65 c 0
 594 32 548 -6 480 -6 c 0x7e
 413 -6 354 25 318 78 c 1
 296 51 231 -7 156 -7 c 0
 100 -7 50 21 50 91 c 0
 50 184 183 227 263 241 c 0
 269 242 272 249 272 256 c 2
 272 340 l 2
 272 375 239 398 204 398 c 0
 164 398 134 369 134 324 c 0
 134 299 116 289 93 289 c 0
 79 289 61 296 54 308 c 1
 54 366 159 436 245 436 c 0
EndSplineSet
Validated: 1
Substitution2: "'smcp' Lowercase to Small Capitals lookup 2-1" ae.sc
EndChar

StartChar: eth
Encoding: 240 240 174
Width: 514
Flags: W
HStem: -7 39<192.511 302.245> 398 40<177.303 301.002> 664 24<77.2432 94.0324>
VStem: 28 86<119.151 306.183> 365 87<136.807 339.268>
LayerCount: 2
Fore
SplineSet
356 705 m 17
 361 699 379 679 374 674 c 9
 119 509 l 17
 113 516 97 536 102 541 c 9
 356 705 l 17
243 438 m 0
 281 438 329 425 344 408 c 1
 328 488 258 588 72 664 c 1
 72 671 78 688 86 688 c 1
 257 649 452 506 452 260 c 3
 452 112 369 -7 255 -7 c 0
 115 -7 28 105 28 215 c 0
 28 323 120 438 243 438 c 0
230 398 m 4
 160 398 114 314 114 222 c 0
 114 124 173 32 246 32 c 0
 325 32 365 120 365 218 c 0
 365 273 358 322 346 338 c 0
 317 376 276 398 230 398 c 4
EndSplineSet
Validated: 37
Substitution2: "'smcp' Lowercase to Small Capitals lookup 2-1" eth.sc
EndChar

StartChar: divide
Encoding: 247 247 181
Width: 528
Flags: W
HStem: 5 100<222.062 300.953> 215 63<31.7375 489.903> 390 97<221.648 301.938>
VStem: 213 98<14.7026 96.0879 398.935 478.404>
LayerCount: 2
Fore
SplineSet
262 390 m 0
 235 390 216 408 213 435 c 1
 213 439 l 2
 213 464 236 487 262 487 c 0
 289 487 308 470 311 443 c 1
 311 438 l 2
 311 414 288 390 262 390 c 0
262 5 m 0
 235 5 216 25 213 52 c 1
 213 56 l 2
 213 81 236 105 262 105 c 0
 289 105 308 84 311 57 c 1
 311 55 l 2
 311 31 288 5 262 5 c 0
28 224 m 0
 28 226 31 278 42 278 c 2
 491 278 l 1
 491 278 498 277 498 268 c 0
 498 250 491 226 490 222 c 0
 488 216 482 215 482 215 c 1
 34 215 l 1
 34 215 28 214 28 224 c 0
EndSplineSet
Validated: 1
Substitution2: "'smcp' Lowercase to Small Capitals lookup 2-1" divide.sc
EndChar

StartChar: oslash
Encoding: 248 248 182
Width: 533
Flags: W
HStem: -7 39<180.173 313.02> 398 39<177.668 294.342>
VStem: 28 86<128.728 312.897> 377 86<119.467 302.995>
LayerCount: 2
Back
Refer: 831 -1 N 1 0 0 1 22 0 3
Fore
SplineSet
128 -8 m 17
 120 -4 98 7 101 13 c 9
 371 437 l 17
 378 434 401 423 398 417 c 9
 128 -8 l 17
256 32 m 0
 329 32 377 112 377 202 c 0
 377 312 309 398 234 398 c 0
 161 398 114 321 114 231 c 0
 114 121 181 32 256 32 c 0
245 437 m 0
 366 437 463 337 463 216 c 0
 463 94 369 -7 247 -7 c 0
 125 -7 28 94 28 216 c 0
 28 340 121 437 245 437 c 0
EndSplineSet
Validated: 37
Substitution2: "'smcp' Lowercase to Small Capitals lookup 2-1" oslash.sc
EndChar

StartChar: thorn
Encoding: 254 254 188
Width: 513
Flags: W
HStem: -226 29<43.1875 101.285 204.966 262.593> -8 42<217.636 345.107> 387 49<214.918 336.761> 629 27<42.1772 104.758> 674 20G<185.5 192>
VStem: 114 77<-186.513 10.9963 57.7877 372.105 402.001 623.698> 412 86<135.133 304.919>
LayerCount: 2
Fore
SplineSet
294 436 m 0
 434 436 498 318 498 234 c 0
 498 105 392 -8 279 -8 c 0
 228 -8 212 4 195 11 c 1
 195 11 191 6 191 -2 c 2
 191 -88 l 2
 191 -121 192 -150 199 -177 c 0
 202 -188 251 -197 259 -197 c 0
 264 -197 264 -220 262 -226 c 1
 222 -224 193 -221 155 -221 c 0
 114 -221 87 -224 46 -226 c 1
 41 -221 41 -197 46 -197 c 0
 58 -197 104 -188 107 -177 c 0
 113 -152 114 -121 114 -107 c 2
 114 548 l 2
 114 566 112 593 108 613 c 0
 104 627 74 629 57 629 c 2
 48 629 l 2
 44 629 42 633 42 640 c 0
 42 642 43 656 48 656 c 0
 157 666 184 694 187 694 c 2
 189 694 l 2
 195 694 201 683 202 678 c 1
 202 678 191 646 191 591 c 2
 191 591 191 412 191 407 c 0
 191 403 193 402 194 402 c 1
 209 413 260 436 294 436 c 0
262 387 m 0
 223 387 191 366 191 323 c 2
 191 98 l 2
 191 61 240 34 283 34 c 0
 366 34 412 125 412 206 c 0
 412 325 337 387 262 387 c 0
EndSplineSet
Validated: 1
Substitution2: "'smcp' Lowercase to Small Capitals lookup 2-1" thorn.sc
EndChar

StartChar: Aogonek
Encoding: 260 260 194
Width: 746
VWidth: 0
Flags: W
HStem: -223 59<491.505 564.975> -3 29<46.0058 102.172 199.109 258.234 461.344 513.385 641.161 691.846> 249 48<273 439.999> 643 20G<366 383.5>
VStem: 433 54<-160.236 -83.2535>
LayerCount: 2
Fore
SplineSet
328 586 m 1
 342 625 350 663 382 663 c 0
 385 663 388 661 391 660 c 1
 591 132 l 2
 605 95 611 80 620 60 c 0
 630 36 680 26 688 26 c 0
 691 26 692 13 692 7 c 0
 692 2 691 0 690 -3 c 1
 658 -1 625 1 591 2 c 5
 547 -24 487 -77 487 -121 c 4
 487 -136 494 -164 528 -164 c 4
 579 -164 603 -126 609 -126 c 4
 610 -126 614 -131 614 -139 c 4
 614 -144 612 -153 609 -157 c 4
 587 -186 549 -223 504 -223 c 4
 448 -223 433 -173 433 -146 c 4
 433 -91 491 -32 545 2 c 5
 515 1 503 -1 464 -3 c 1
 459 2 460 26 465 26 c 0
 477 26 511 32 516 44 c 0
 517 48 518 54 518 60 c 0
 518 90 504 129 504 129 c 1
 463 242 l 1
 463 242 460 246 457 246 c 0
 431 248 406 249 381 249 c 0
 340 249 299 247 254 244 c 0
 252 244 249 241 249 241 c 1
 206 131 l 1
 194 96 189 75 189 62 c 0
 189 51 192 46 197 42 c 0
 211 31 247 26 255 26 c 0
 260 26 259 3 257 -3 c 1
 217 -1 198 2 154 2 c 0
 108 2 96 -1 50 -3 c 1
 48 -1 46 6 46 12 c 0
 46 18 48 26 50 26 c 0
 62 26 97 32 107 45 c 0
 127 71 140 103 154 139 c 2
 328 586 l 1
359 526 m 1
 273 303 l 1
 273 303 273 299 275 299 c 0
 301 298 323 297 346 297 c 0
 377 297 406 298 437 300 c 0
 439 300 440 305 440 305 c 1
 359 526 l 1
EndSplineSet
Validated: 1
EndChar

StartChar: aogonek
Encoding: 261 261 195
Width: 418
Flags: W
HStem: -223 59<282.505 355.975> -7 57<144.958 230.484> 398 38<162.067 252.667>
VStem: 50 84<61.0183 148.735 293.482 352.469> 224 54<-160.236 -87.9475> 272 76<68.2124 203 236.922 381.656>
LayerCount: 2
Fore
SplineSet
195 50 m 0xf4
 232 50 272 77 272 100 c 2
 272 203 l 1
 227 184 134 171 134 106 c 0
 134 69 161 50 195 50 c 0xf4
348 93 m 2
 348 66 363 42 389 42 c 0
 408 42 421 56 424 56 c 0
 426 56 429 53 429 51 c 0
 429 46 426 33 423 26 c 1
 413 19 402 11 390 3 c 0
 352 -24 278 -67 278 -121 c 0
 278 -136 285 -164 319 -164 c 0
 370 -164 394 -126 400 -126 c 0
 401 -126 405 -131 405 -139 c 0
 405 -144 403 -153 400 -157 c 0
 378 -186 340 -223 295 -223 c 0
 239 -223 224 -173 224 -146 c 0xf8
 224 -102 278 -40 326 -2 c 1
 304 10 286 36 280 53 c 1
 276 52 227 -7 156 -7 c 0
 100 -7 50 21 50 91 c 0
 50 184 186 212 263 241 c 0
 269 243 272 249 272 256 c 2
 272 331 l 2
 272 376 239 398 204 398 c 0
 164 398 134 369 134 324 c 0
 134 299 116 289 93 289 c 0
 79 289 61 296 54 308 c 1
 54 366 159 436 245 436 c 0
 320 436 348 401 348 324 c 2
 348 93 l 2
EndSplineSet
Validated: 1
Substitution2: "'smcp' Lowercase to Small Capitals lookup 2-1" aogonek.sc
EndChar

StartChar: dcroat
Encoding: 273 273 207
Width: 491
Flags: W
HStem: -4 49<190.238 314.151> 20 27<422.508 478.915> 398 42<181.154 316.304> 529 40<206.191 482.084> 629 27<264.177 326.758> 674 20G<407.5 414>
VStem: 31 86<128.357 294.885> 336 77<58.575 378.343 423.004 623.698>
LayerCount: 2
Fore
SplineSet
254 440 m 0xbf
 284 440 312 432 329 423 c 1
 332 423 336 429 336 441 c 2
 336 549 l 2
 336 566 334 593 330 613 c 1
 326 627 296 629 279 629 c 2
 270 629 l 2
 266 629 264 633 264 640 c 0
 264 642 265 656 270 656 c 0
 379 666 406 694 409 694 c 2
 411 694 l 2
 417 694 423 683 424 678 c 1
 424 678 413 646 413 591 c 2
 413 141 l 2
 413 130 413 93 419 65 c 0
 424 46 473 48 476 47 c 0
 478 46 479 38 479 35 c 0
 479 33 478 20 473 20 c 0x7f
 421 17 343 -6 342 -6 c 0
 337 -6 336 4 336 11 c 2
 336 23 l 2
 336 28 334 28 332 27 c 0
 312 16 264 -4 226 -4 c 0
 114 -4 31 88 31 196 c 0
 31 327 141 440 254 440 c 0xbf
241 398 m 0
 158 398 117 309 117 225 c 0
 117 135 167 45 264 45 c 0xbf
 309 45 336 67 336 102 c 2
 336 340 l 2
 336 362 315 398 241 398 c 0
212 569 m 1
 241 569 463 569 477 569 c 0
 481 569 483 564 483 559 c 3
 483 553 481 538 477 529 c 1
 448 529 225 529 211 529 c 0
 207 529 206 537 206 542 c 3
 206 548 206 560 212 569 c 1
EndSplineSet
Validated: 5
Substitution2: "'smcp' Lowercase to Small Capitals lookup 2-1" dcroat.sc
EndChar

StartChar: Eogonek
Encoding: 280 280 214
Width: 612
Flags: W
HStem: -224 59<391.505 464.975> -3 29<49.0264 109.623> 0 40<221.604 437 466.522 470.608> 305 44<215 392.451> 612 44<218.637 455.25> 629 29<48.0898 111.882>
VStem: 128 87<49.5865 303.528 349.429 608.119> 333 54<-161.236 -85.8972> 421 32<226.002 283.868 369.107 423.976> 491 32<519.07 565.412>
LayerCount: 2
Fore
SplineSet
171 656 m 0x9bc0
 264 656 385 660 494 660 c 1
 501 610 514 569 523 524 c 1
 520 521 512 519 505 519 c 0
 498 519 492 521 491 526 c 0
 469 606 428 612 375 612 c 2
 308 612 l 2
 267 612 222 611 220 599 c 0
 216 580 215 538 215 515 c 2
 215 355 l 2
 215 350 236 349 258 349 c 2
 311 349 l 2
 407 349 404 351 421 417 c 0
 422 422 429 424 436 424 c 0
 443 424 450 422 453 419 c 1
 453 230 l 1
 451 228 444 226 437 226 c 0
 430 226 423 229 421 234 c 0
 406 291 402 291 393 297 c 0
 382 304 325 305 287 305 c 0
 259 305 215 305 215 296 c 2
 215 141 l 2
 215 122 217 70 224 50 c 0
 227 41 250 40 292 40 c 2
 340 40 l 2
 378 40 437 42 466 57 c 0
 485 67 513 105 529 158 c 0
 530 162 536 164 543 164 c 0
 553 164 565 161 568 158 c 1
 549 104 521 38 514 -6 c 1
 455 -6 387 -79 387 -122 c 0
 387 -137 394 -165 428 -165 c 0
 479 -165 503 -127 509 -127 c 0
 510 -127 513 -132 513 -140 c 0
 513 -145 512 -154 509 -158 c 0
 487 -187 449 -224 404 -224 c 0
 348 -224 333 -174 333 -147 c 0
 333 -95 386 -40 437 -5 c 1
 344 -3 276 0 173 0 c 0xbbc0
 126 0 52 -3 52 -3 c 1
 51 -2 49 4 49 13 c 0
 49 19 50 26 52 26 c 0
 64 26 113 35 121 49 c 0
 128 61 128 106 128 143 c 2
 128 521 l 2
 128 539 127 584 121 607 c 1
 116 619 64 629 52 629 c 0
 50 629 48 634 48 641 c 0
 48 648 50 656 52 658 c 1xd7c0
 52 658 104 656 171 656 c 0x9bc0
EndSplineSet
Validated: 1
EndChar

StartChar: eogonek
Encoding: 281 281 215
Width: 411
Flags: W
HStem: -224 59<227.505 300.975> -6 64<176.696 248> 232 42<105.122 310.999> 399 37<158.592 261.24>
VStem: 24 81<133.141 320.327> 169 54<-161.236 -80.1946> 311 81<246.5 350.117>
LayerCount: 2
Fore
SplineSet
212 399 m 0
 131 399 105 302 105 281 c 0
 105 278 106 274 111 274 c 0
 120 274 300 274 306 274 c 0
 310 274 311 280 311 284 c 0
 311 314 280 399 212 399 c 0
226 -6 m 0
 117 -6 24 88 24 209 c 0
 24 353 113 436 222 436 c 0
 353 436 392 329 392 261 c 0
 392 232 383 232 363 232 c 0
 281 232 195 232 111 232 c 0
 105 232 103 231 103 227 c 0
 103 156 146 58 251 58 c 0
 326 58 364 95 370 98 c 0
 371 98 376 93 376 85 c 0
 376 80 373 72 370 67 c 0
 361 54 346 39 327 26 c 0
 265 -20 223 -61 223 -122 c 0
 223 -137 230 -165 264 -165 c 0
 315 -165 339 -127 345 -127 c 0
 346 -127 349 -132 349 -140 c 0
 349 -145 348 -154 345 -158 c 0
 323 -187 285 -224 240 -224 c 0
 184 -224 169 -174 169 -147 c 0
 169 -107 208 -45 248 -5 c 1
 247 -5 233 -6 226 -6 c 0
EndSplineSet
Validated: 1
Substitution2: "'smcp' Lowercase to Small Capitals lookup 2-1" eogonek.sc
EndChar

StartChar: Hbar
Encoding: 294 294 228
Width: 738
Flags: W
HStem: -3 29<50.0058 114.855 230.335 291.234 442.188 505.855 620.335 681.997> 299 50<215 519> 470 38<89.157 128 215 519 606 651.843> 633 29<50.0511 113.079 231.221 291.234 442.188 504.079 621.221 681.993>
VStem: 128 87<36.9151 298.069 348.627 470 508 621.28> 519 87<36.9151 296.999 349.001 470 508 621.28>
LayerCount: 2
Fore
SplineSet
174 656 m 0
 218 656 250 660 290 662 c 1
 292 656 293 633 288 633 c 0
 280 633 227 623 224 612 c 0
 217 585 215 550 215 508 c 1
 227 507 311 507 369 507 c 0
 414 507 479 507 519 508 c 1
 519 544 518 589 512 612 c 1
 507 624 457 633 445 633 c 0
 440 633 440 657 445 662 c 1
 491 660 520 656 566 656 c 0
 610 656 640 660 680 662 c 1
 681 659 682 652 682 647 c 0
 682 641 681 633 678 633 c 0
 670 633 617 623 614 612 c 0
 607 585 606 548 606 508 c 1
 617 508 647 508 647 508 c 0
 651 508 652 500 652 495 c 3
 652 489 652 479 646 470 c 1
 617 470 606 470 606 470 c 1
 606 139 l 2
 606 103 607 73 614 46 c 0
 617 35 670 26 678 26 c 0
 681 26 682 17 682 11 c 0
 682 6 681 0 680 -3 c 1
 640 -1 610 2 566 2 c 0
 520 2 491 -1 445 -3 c 1
 440 2 440 26 445 26 c 0
 457 26 507 34 512 46 c 1
 518 69 519 117 519 135 c 2
 519 293 l 2
 519 295 517 297 517 297 c 1
 470 298 420 299 369 299 c 0
 215 299 215 298 215 294 c 2
 215 139 l 2
 215 103 217 73 224 46 c 0
 227 35 280 26 288 26 c 0
 293 26 292 3 290 -3 c 1
 250 -1 218 2 174 2 c 0
 128 2 100 -1 54 -3 c 1
 52 -1 50 6 50 12 c 0
 50 18 52 26 54 26 c 0
 66 26 116 34 121 46 c 1
 127 69 128 117 128 135 c 2
 128 470 l 1
 128 470 108 470 94 470 c 0
 90 470 89 478 89 483 c 3
 89 489 89 499 95 508 c 1
 95 508 121 508 128 508 c 1
 128 552 127 589 121 612 c 1
 116 624 66 633 54 633 c 0
 52 633 50 640 50 646 c 0
 50 652 52 660 54 662 c 1
 100 660 128 656 174 656 c 0
369 471 m 0
 321 471 260 471 215 470 c 9
 215 352 l 2
 215 351 216 349 217 349 c 0
 266 348 313 347 369 347 c 0
 416 347 472 348 517 349 c 1
 517 349 519 351 519 353 c 2
 519 470 l 17
 478 471 411 471 369 471 c 0
EndSplineSet
Validated: 1
EndChar

StartChar: hbar
Encoding: 295 295 229
Width: 535
Flags: W
HStem: -3 29<19.1875 77.2849 180.966 238.593 293.188 347.654 450.966 508.593> 377 61<234.846 325.436> 529 40<37.1905 313.084> 629 27<18.1772 80.7581> 674 20<161.5 168>
VStem: 90 77<36.4871 346.251 368.002 623.698> 360 77<36.4871 336.456>
LayerCount: 2
Fore
SplineSet
43 569 m 1
 72 569 294 569 308 569 c 0
 312 569 314 564 314 559 c 3
 314 553 312 538 308 529 c 1
 279 529 56 529 42 529 c 0
 38 529 37 537 37 542 c 3
 37 548 37 560 43 569 c 1
EndSplineSet
Refer: 72 104 N 1 0 0 1 0 0 2
Validated: 5
Substitution2: "'smcp' Lowercase to Small Capitals lookup 2-1" hbar.sc
EndChar

StartChar: Iogonek
Encoding: 302 302 236
Width: 347
Flags: W
HStem: -224 59<133.505 206.975> -3 29<49.0058 113.855 236.752 290.997> 633 29<49.0511 112.079 230.221 290.993>
VStem: 75 54<-161.236 -86.8884> 127 87<36.9151 621.28>
LayerCount: 2
Fore
SplineSet
173 657 m 0xe8
 217 657 249 660 289 662 c 1
 290 659 291 652 291 647 c 0
 291 641 290 633 287 633 c 0
 279 633 226 623 223 612 c 0
 216 585 214 555 214 519 c 2
 214 139 l 2xe8
 214 103 216 73 223 46 c 0
 226 35 279 26 287 26 c 0
 290 26 291 17 291 11 c 0
 291 6 290 0 289 -3 c 1
 271 -2 252 -1 236 0 c 1
 192 -26 129 -78 129 -122 c 0
 129 -137 136 -165 170 -165 c 0
 221 -165 245 -127 251 -127 c 0
 252 -127 255 -132 255 -140 c 0
 255 -145 254 -154 251 -158 c 0
 229 -187 191 -224 146 -224 c 0
 90 -224 75 -174 75 -147 c 0xf0
 75 -93 138 -33 191 2 c 1
 185 2 180 2 173 2 c 0
 127 2 99 -1 53 -3 c 1
 51 -1 49 6 49 12 c 0
 49 18 51 26 53 26 c 0
 65 26 115 34 120 46 c 1
 126 69 127 117 127 135 c 2
 127 523 l 2
 127 541 126 589 120 612 c 1
 115 624 65 633 53 633 c 0
 51 633 49 640 49 646 c 0
 49 652 51 660 53 662 c 1
 99 660 127 657 173 657 c 0xe8
EndSplineSet
Validated: 1
EndChar

StartChar: dotlessi
Encoding: 305 305 239
Width: 282
Flags: W
HStem: -3 29<30.1875 88.2849 191.966 249.593> 414 20G<177.5 181>
VStem: 101 77<36.4871 366.32>
LayerCount: 2
Fore
SplineSet
178 135 m 2
 178 102 179 73 186 46 c 0
 189 35 238 26 246 26 c 0
 251 26 251 3 249 -3 c 1
 209 -1 180 2 142 2 c 0
 101 2 74 -1 33 -3 c 1
 28 2 28 26 33 26 c 0
 45 26 91 35 94 46 c 0
 100 71 101 102 101 116 c 2
 101 305 l 2
 101 313 100 345 87 359 c 1
 65 386 29 376 29 382 c 0
 29 383 30 406 35 407 c 0
 80 414 136 422 173 433 c 0
 174 433 177 434 178 434 c 0
 184 434 184 418 183 413 c 0
 179 381 178 375 178 341 c 2
 178 135 l 2
EndSplineSet
Validated: 1
Substitution2: "'smcp' Lowercase to Small Capitals lookup 2-1" dotlessi.sc
EndChar

StartChar: kgreenlandic
Encoding: 312 312 246
Width: 590
Flags: W
HStem: -3 27<51.1875 103.978 218.512 270.593 316.074 354.982 475.486 532.951> 369 27<50.1772 112.758> 407 23<331.794 375.785 464.654 526.33>
VStem: 122 77<36.4871 195 241 363.698>
LayerCount: 2
Fore
SplineSet
224 250 m 4
 311 323 378 376 378 389 c 0
 378 409 337 399 333 407 c 1
 330 416 329 428 334 430 c 1
 413 430 l 2
 448 430 477 433 522 435 c 1
 530 430 527 414 525 408 c 0
 524 405 515 406 510 406 c 0
 496 405 463 397 452 390 c 0
 443 384 339 300 283 248 c 1
 359 161 427 72 449 53 c 0
 474 31 521 24 529 24 c 0
 532 24 533 15 533 8 c 0
 533 3 533 -1 532 -3 c 1
 492 -1 461 2 423 2 c 0
 382 2 360 -1 319 -3 c 1
 314 2 314 24 319 24 c 0
 330 24 355 30 355 37 c 0
 355 38 355 39 354 40 c 2
 211 198 l 1
 199 195 l 1
 199 135 l 2
 198 102 200 73 207 46 c 0
 210 35 259 26 267 26 c 0
 272 26 272 3 270 -3 c 1
 230 -1 201 2 163 2 c 0
 122 2 95 -1 54 -3 c 1
 49 2 49 26 54 26 c 0
 66 26 112 35 115 46 c 0
 121 71 122 102 122 116 c 2
 122 289 l 2
 122 306 120 333 116 353 c 0
 112 367 82 369 65 369 c 2
 56 369 l 2
 52 369 50 373 50 380 c 0
 50 382 51 396 56 396 c 0
 165 406 192 434 195 434 c 2
 197 434 l 2
 203 434 209 423 210 418 c 1
 210 418 199 386 199 331 c 2
 199 241 l 1
 207 243 216 243 224 250 c 4
EndSplineSet
Validated: 33
Substitution2: "'smcp' Lowercase to Small Capitals lookup 2-1" kgreenlandic.sc
EndChar

StartChar: Lslash
Encoding: 321 321 255
Width: 616
Flags: W
HStem: -1 29<52.0264 116.637> 2 42<224.604 474.564> 633 29<53.0511 116.079 234.221 294.993>
VStem: 131 87<49.5865 220 260 280 320 621.28>
LayerCount: 2
Fore
SplineSet
177 656 m 0xb0
 221 656 253 660 293 662 c 1
 294 659 295 652 295 647 c 0
 295 641 294 633 291 633 c 0
 283 633 230 623 227 612 c 0
 220 585 218 555 218 519 c 2
 218 320 l 1
 405 447 l 1
 410 442 427 419 423 416 c 2
 218 280 l 1
 218 142 l 2
 218 106 220 81 227 54 c 0
 230 45 253 44 295 44 c 2
 343 44 l 2
 381 44 440 46 469 61 c 0
 488 71 516 109 532 162 c 0
 533 166 539 168 546 168 c 0
 556 168 568 165 571 162 c 1
 552 108 524 40 517 -4 c 1
 408 -4 306 2 176 2 c 0x70
 129 2 55 -1 55 -1 c 1
 54 0 52 6 52 15 c 0
 52 21 53 28 55 28 c 0
 67 28 116 35 124 49 c 0
 131 61 131 106 131 143 c 2
 131 220 l 1
 72 178 l 1
 66 184 51 204 55 207 c 2
 131 260 l 1
 131 521 l 2
 131 539 130 589 124 612 c 1
 119 624 69 633 57 633 c 0
 55 633 53 640 53 646 c 0
 53 652 55 660 57 662 c 1
 103 660 131 656 177 656 c 0xb0
EndSplineSet
Validated: 33
EndChar

StartChar: lslash
Encoding: 322 322 256
Width: 285
Flags: W
HStem: -3 29<29.1875 87.2849 190.966 248.593> 629 27<28.1772 90.7581> 674 20G<171.5 178>
VStem: 100 77<36.4871 297 335 350 388 623.698>
LayerCount: 2
Fore
SplineSet
46 260 m 1
 40 266 27 284 31 288 c 2
 100 335 l 1
 100 549 l 2
 100 566 98 593 94 613 c 1
 90 627 60 629 43 629 c 2
 34 629 l 2
 30 629 28 633 28 640 c 0
 28 642 29 656 34 656 c 0
 143 666 170 694 173 694 c 2
 175 694 l 2
 181 694 187 683 188 678 c 1
 188 678 177 646 177 591 c 2
 177 388 l 1
 228 423 l 1
 233 418 248 400 244 396 c 2
 177 350 l 1
 177 135 l 2
 177 102 178 73 185 46 c 0
 188 35 237 26 245 26 c 0
 250 26 250 3 248 -3 c 1
 208 -1 179 2 141 2 c 0
 100 2 73 -1 32 -3 c 1
 27 2 27 26 32 26 c 0
 44 26 90 35 93 46 c 0
 99 71 100 102 100 116 c 2
 100 297 l 1
 46 260 l 1
EndSplineSet
Validated: 1
Substitution2: "'smcp' Lowercase to Small Capitals lookup 2-1" lslash.sc
EndChar

StartChar: Eng
Encoding: 330 330 263
Width: 774
Flags: W
HStem: -227 60<405 506.01> -3 29<49.0029 117.782 215.656 283.234> 633 29<53.1875 125.794 491.074 564.881 651.826 725.993>
VStem: 142 56<41.3891 567.234> 580 55<172.79 620.656>
LayerCount: 2
Fore
SplineSet
635 85 m 2
 635 -78 567 -227 417 -227 c 0
 393 -227 365 -211 365 -211 c 1
 360 -205 353 -189 353 -174 c 0
 353 -143 383 -124 415 -124 c 0
 449 -124 463 -167 491 -167 c 0
 522 -167 570 -113 579 28 c 0
 198 568 l 1
 198 141 l 2
 198 105 198 75 205 48 c 0
 208 37 272 26 280 26 c 0
 285 26 284 3 282 -3 c 1
 242 -1 211 2 167 2 c 0
 121 2 98 -1 52 -3 c 1
 50 -1 49 6 49 12 c 0
 49 18 50 26 52 26 c 0
 64 26 127 37 132 50 c 0
 142 76 142 106 142 144 c 0
 142 275 142 406 142 537 c 0
 142 565 141 590 135 612 c 1
 130 624 68 633 56 633 c 0
 51 633 51 657 56 662 c 1
 95 661 112 660 158 660 c 0
 188 660 224 661 238 662 c 1
 283 579 466 327 577 172 c 1
 580 189 580 197 580 213 c 2
 580 524 l 2
 580 541 579 589 573 612 c 1
 568 624 506 635 494 635 c 0
 489 635 489 657 494 662 c 1
 540 660 566 656 612 656 c 0
 656 656 684 660 724 662 c 1
 725 659 726 652 726 647 c 0
 726 641 725 635 722 635 c 0
 714 635 646 623 643 612 c 0
 636 585 635 555 635 519 c 2
 635 85 l 2
EndSplineSet
Validated: 1
EndChar

StartChar: eng
Encoding: 331 331 264
Width: 532
Flags: W
HStem: -3 29<51.1875 109.285 212.966 270.593> 371 67<261.8 355.51>
VStem: 122 77<36.4871 338.864> 392 77<-82.6719 331.999>
LayerCount: 2
Fore
SplineSet
469 251 m 2
 469 68 l 2
 469 32 465 -65 430 -120 c 0
 394 -177 333 -217 296 -231 c 1
 291 -228 286 -221 284 -216 c 0
 283 -214 282 -210 283 -209 c 0
 285 -203 392 -182 392 46 c 2
 392 227 l 2
 392 333 355 371 294 371 c 0
 249 371 202 323 199 316 c 1
 199 135 l 2
 199 102 200 73 207 46 c 0
 210 35 259 26 267 26 c 0
 272 26 272 3 270 -3 c 1
 230 -1 201 2 163 2 c 0
 122 2 95 -1 54 -3 c 1
 49 2 49 26 54 26 c 0
 66 26 112 35 115 46 c 0
 121 71 122 102 122 116 c 2
 122 305 l 2
 122 313 121 345 108 359 c 1
 86 386 50 376 50 382 c 0
 50 383 51 406 56 407 c 0
 101 414 157 422 194 433 c 0
 195 433 198 434 199 434 c 0
 205 434 205 418 204 413 c 0
 201 392 199 369 199 369 c 1
 199 367 204 367 204 367 c 1
 227 391 274 438 331 438 c 27
 422 438 469 365 469 251 c 2
EndSplineSet
Validated: 1
Substitution2: "'smcp' Lowercase to Small Capitals lookup 2-1" eng.sc
EndChar

StartChar: OE
Encoding: 338 338 271
Width: 1035
Flags: W
HStem: -7 37<318.495 505.123> 2 42<643.335 893.564> 309 44<637 814.451> 616 48<700.93 878.938> 616 40<640.952 800.267> 625 42<274.698 487.15>
VStem: 50 99<220.263 450.855> 550 87<71.3698 307.528 353.429 571.272> 843 32<230.002 287.868 373.107 427.976> 913 32<523.07 569.412>
LayerCount: 2
Fore
SplineSet
354 625 m 0xa7c0
 220 625 149 484 149 350 c 0
 149 195 240 30 402 30 c 0
 457 30 503 33 526 68 c 0
 550 104 550 138 550 192 c 2
 550 488 l 2
 550 523 546 558 515 586 c 0
 477 621 424 625 354 625 c 0xa7c0
369 667 m 0
 394 667 526 656 593 656 c 0x2bc0
 683 656 807 664 916 664 c 1
 923 614 936 573 945 528 c 1
 942 525 934 523 927 523 c 0
 920 523 914 525 913 530 c 0
 891 610 850 616 797 616 c 2
 730 616 l 2
 689 616 644 615 642 603 c 0
 638 584 637 542 637 519 c 2
 637 359 l 2
 637 354 658 353 680 353 c 2
 733 353 l 2
 829 353 826 355 843 421 c 0
 844 426 851 428 858 428 c 0
 865 428 872 426 875 423 c 1
 875 234 l 1
 873 232 866 230 859 230 c 0
 852 230 845 233 843 238 c 0
 828 295 824 295 815 301 c 0
 804 308 747 309 709 309 c 0
 681 309 637 309 637 300 c 2
 637 145 l 2
 637 126 639 74 646 54 c 0
 649 45 672 44 714 44 c 2
 762 44 l 2
 800 44 859 46 888 61 c 0
 907 71 935 109 951 162 c 0
 952 166 958 168 965 168 c 0
 975 168 987 165 990 162 c 1
 971 108 943 40 936 -4 c 1
 827 -4 686 2 595 2 c 0x73c0
 528 2 506 -1 477 -3 c 0
 462 -4 389 -7 364 -7 c 0
 188 -7 50 141 50 328 c 0
 50 515 193 667 369 667 c 0
EndSplineSet
Validated: 1
EndChar

StartChar: oe
Encoding: 339 339 272
Width: 807
Flags: W
HStem: -8 60<552.26 683.181> -7 39<220.124 335.046> 232 42<486.999 679.999> 397 39<199.668 315.837 532.009 635.554>
VStem: 50 86<128.728 314.399> 399 85<122.691 231.994 273.898 304.138> 680 77<246.5 348.761>
LayerCount: 2
Fore
SplineSet
267 436 m 0x7e
 338 436 401 402 441 349 c 1
 474 404 528 435 591 435 c 0
 722 435 757 329 757 261 c 0
 757 232 748 233 728 233 c 0
 645 231 576 232 492 232 c 0
 487 232 486 230 485 227 c 0
 485 226 484 225 484 224 c 0
 484 221 483 213 483 202 c 0
 483 198 484 194 484 190 c 0
 489 129 534 52 632 52 c 3
 707 52 742 98 749 98 c 3
 750 98 755 93 755 85 c 3
 755 80 753 71 749 67 c 0
 721 37 669 -8 601 -8 c 0xbe
 534 -8 474 24 438 77 c 1
 399 25 339 -7 269 -7 c 0
 147 -7 50 94 50 216 c 0
 50 340 143 436 267 436 c 0x7e
589 399 m 0
 508 399 487 302 487 281 c 0
 487 279 485 274 493 274 c 0
 502 274 672 272 675 274 c 0
 679 276 680 280 680 284 c 3
 680 314 646 399 589 399 c 0
256 397 m 0
 183 397 136 321 136 231 c 0
 136 121 203 32 278 32 c 0x7e
 351 32 399 112 399 202 c 0
 399 312 331 397 256 397 c 0
EndSplineSet
Validated: 33
Substitution2: "'smcp' Lowercase to Small Capitals lookup 2-1" oe.sc
EndChar

StartChar: Tbar
Encoding: 358 358 291
Width: 701
Flags: W
HStem: -3 29<228.006 292.855 408.335 469.997> 308 40<173.191 528.084> 615 45<106.011 299.684 400.25 594.989>
VStem: 43 34<521.684 575.415> 306 87<36.9151 607.652> 624 34<521.684 575.415>
LayerCount: 2
Fore
SplineSet
179 348 m 1
 208 348 509 348 523 348 c 0
 527 348 529 343 529 338 c 3
 529 332 527 317 523 308 c 1
 494 308 192 308 178 308 c 0
 174 308 173 316 173 321 c 3
 173 327 173 339 179 348 c 1
350 656 m 0
 430 656 481 659 570 660 c 0
 584 660 623 667 639 671 c 1
 658 528 l 1
 655 525 643 521 634 521 c 0
 629 521 625 522 624 526 c 0
 605 600 589 615 512 615 c 0
 433 615 404 608 402 600 c 0
 394 572 393 538 393 500 c 2
 393 139 l 18
 393 103 395 73 402 46 c 0
 405 35 458 26 466 26 c 0
 469 26 470 17 470 11 c 0
 470 6 469 0 468 -3 c 1
 428 -1 396 2 352 2 c 0
 306 2 278 -1 232 -3 c 1
 230 -1 228 6 228 12 c 0
 228 18 230 26 232 26 c 0
 244 26 294 34 299 46 c 1
 305 69 306 117 306 135 c 2
 306 497 l 18
 306 537 305 586 297 600 c 0
 293 608 268 615 189 615 c 0
 112 615 96 600 77 526 c 0
 76 522 72 521 67 521 c 0
 58 521 46 525 43 528 c 1
 62 671 l 1
 78 667 117 660 131 660 c 0
 220 659 270 656 350 656 c 0
EndSplineSet
Validated: 5
EndChar

StartChar: tbar
Encoding: 359 359 292
Width: 317
Flags: W
HStem: -7 48<172.894 266.512> 268 40<11.1905 290.084> 374 48<150 290.919>
VStem: 73 77<63.875 374>
LayerCount: 2
Fore
SplineSet
120 526 m 1
 132 526 150 525 150 521 c 2
 150 422 l 1
 194 422 271 421 285 421 c 0
 290 421 293 418 293 412 c 0
 293 403 290 388 283 374 c 1
 150 374 l 1
 150 129 l 2
 150 76 180 41 224 41 c 0
 248 41 281 57 286 60 c 0
 291 63 301 41 300 40 c 0
 285 24 239 -7 190 -7 c 0
 128 -7 73 34 73 120 c 2
 73 374 l 1
 15 374 l 2
 12 374 10 387 10 395 c 0
 10 399 10 401 11 402 c 1
 27 409 52 429 74 455 c 0
 98 484 117 522 120 526 c 1
17 308 m 1
 46 308 271 308 285 308 c 0
 289 308 291 303 291 298 c 3
 291 292 289 277 285 268 c 1
 256 268 30 268 16 268 c 0
 12 268 11 276 11 281 c 3
 11 287 11 299 17 308 c 1
EndSplineSet
Validated: 5
Substitution2: "'smcp' Lowercase to Small Capitals lookup 2-1" tbar.sc
EndChar

StartChar: Uogonek
Encoding: 370 370 303
Width: 757
VWidth: 0
Flags: W
HStem: -224 59<376.505 449.133> 0 49<305.945 451.004> 633 29<43.0511 106.079 224.221 284.997 474.074 547.881 634.826 708.993>
VStem: 121 87<165.404 621.28> 318 54<-161.236 -80.4004> 563 55<140.793 620.656>
LayerCount: 2
Fore
SplineSet
167 657 m 0
 211 657 243 660 283 662 c 1
 284 659 285 654 285 648 c 0
 285 641 284 633 281 633 c 0
 273 633 220 623 217 612 c 0
 210 585 208 555 208 519 c 2
 208 296 l 2
 208 148 272 49 392 49 c 0
 489 49 563 102 563 274 c 2
 563 524 l 2
 563 541 562 589 556 612 c 1
 551 624 489 635 477 635 c 0
 472 635 472 657 477 662 c 1
 523 660 549 656 595 656 c 0
 639 656 667 660 707 662 c 1
 708 659 709 652 709 647 c 0
 709 641 708 635 705 635 c 0
 697 635 629 623 626 612 c 0
 619 585 618 555 618 519 c 2
 618 276 l 2
 618 136 582 77 508 28 c 0
 448 -12 372 -64 372 -122 c 0
 372 -137 379 -165 413 -165 c 0
 464 -165 488 -127 494 -127 c 0
 495 -127 499 -132 499 -140 c 0
 499 -145 497 -153 494 -157 c 0
 472 -186 434 -224 389 -224 c 0
 333 -224 318 -174 318 -147 c 0
 318 -90 377 -22 421 3 c 1
 404 1 386 0 368 0 c 0
 217 0 121 79 121 296 c 2
 121 523 l 2
 121 541 120 589 114 612 c 1
 109 624 59 633 47 633 c 0
 45 633 43 640 43 646 c 0
 43 652 45 660 47 662 c 1
 93 660 121 657 167 657 c 0
EndSplineSet
Validated: 1
EndChar

StartChar: uogonek
Encoding: 371 371 304
Width: 512
Flags: W
HStem: -227 59<342.505 415.975> -7 61<193.445 277.477> 20 27<431.536 484.58> 414 20G<158.5 162 416.5 420>
VStem: 82 76<93.494 366.601> 284 54<-164.236 -87.7532> 340 76<82.3558 366.601>
LayerCount: 2
Fore
SplineSet
416 341 m 2xde
 416 141 l 2
 416 130 417 93 423 65 c 0
 428 46 479 48 482 47 c 0
 484 46 485 39 485 36 c 0
 485 34 482 20 477 20 c 0xbe
 470 20 464 19 457 18 c 0
 418 12 338 -73 338 -125 c 0
 338 -140 345 -168 379 -168 c 0
 430 -168 454 -130 460 -130 c 0
 461 -130 465 -135 465 -143 c 0
 465 -148 463 -157 460 -161 c 0
 438 -190 400 -227 355 -227 c 0
 299 -227 284 -177 284 -150 c 0
 284 -107 340 -28 384 2 c 1
 367 -3 348 -8 348 -8 c 0
 343 -8 340 1 340 8 c 2
 340 59 l 2
 340 64 338 64 338 64 c 1
 310 34 258 -7 207 -7 c 0
 101 -7 82 109 82 179 c 2
 82 305 l 2
 82 313 81 345 68 359 c 1
 46 386 10 376 10 382 c 0
 10 383 11 406 16 407 c 0
 61 414 117 422 154 433 c 0
 155 433 158 434 159 434 c 0
 165 434 165 418 164 413 c 0
 160 381 158 373 158 339 c 2
 158 204 l 2
 158 103 186 54 256 54 c 0
 300 54 340 98 340 118 c 2
 340 305 l 2
 340 313 339 345 326 359 c 1
 304 386 268 376 268 382 c 0
 268 383 269 406 274 407 c 0
 319 414 375 422 412 433 c 0
 413 433 416 434 417 434 c 0
 423 434 423 418 422 413 c 0
 418 381 416 375 416 341 c 2xde
EndSplineSet
Validated: 1
Substitution2: "'smcp' Lowercase to Small Capitals lookup 2-1" uogonek.sc
EndChar

StartChar: uni0189
Encoding: 393 393 316
Width: 746
Flags: W
HStem: -3 46<205.517 470.11> -3 29<52.0058 112.623> 308 45<61.0959 131 218 358.904> 614 44<227.704 456.756> 629 29<51.0898 114.882>
VStem: 131 87<57.9039 308 353 603.534> 597 96<212.177 453.397>
LayerCount: 2
Fore
SplineSet
174 656 m 0x6e
 240 656 304 658 348 658 c 0
 579 658 693 496 693 336 c 0
 693 152 571 -3 347 -3 c 0xb6
 303 -3 241 2 176 0 c 1
 109 1 55 -3 55 -3 c 1
 54 -2 52 3 52 12 c 0
 52 18 53 26 55 26 c 0
 67 26 116 35 124 49 c 0
 131 61 131 106 131 143 c 2
 131 308 l 1
 59 308 l 1
 59 308 53 307 53 315 c 0
 53 319 56 334 61 349 c 0
 63 354 68 353 68 353 c 1
 131 353 l 1
 131 521 l 2
 131 539 130 584 124 607 c 1
 119 619 67 629 55 629 c 0
 53 629 51 634 51 641 c 0
 51 648 53 656 55 658 c 1
 55 658 107 656 174 656 c 0x6e
218 535 m 2
 218 353 l 1
 360 353 l 1
 360 353 369 356 367 344 c 0
 365 332 365 331 359 314 c 0
 357 309 352 308 352 308 c 1
 218 308 l 1
 218 139 l 2
 218 109 222 88 233 63 c 0
 240 48 347 43 363 43 c 0
 516 43 597 145 597 340 c 0
 597 478 521 614 356 614 c 2
 351 614 l 2
 327 614 242 613 231 598 c 0
 220 583 218 553 218 535 c 2
EndSplineSet
Validated: 33
EndChar

StartChar: uni0218
Encoding: 536 536 317
Width: 468
Flags: W
HStem: -227 181<197 265> -10 41<149.824 304.72> 625 41<163.362 299.749>
VStem: 26 41<119.3 183.72> 46 80<454.853 571.509> 223 64<-171.345 -91> 353 87<89.7983 213.651>
LayerCount: 2
Fore
SplineSet
186 -101 m 0xe6
 186 -76 205 -46 265 -46 c 1
 277 -56 287 -83 287 -99 c 0
 287 -168 235 -208 205 -225 c 0
 204 -226 201 -227 197 -227 c 0
 184 -227 177 -223 177 -220 c 0
 177 -215 223 -185 223 -161 c 0
 223 -134 186 -131 186 -101 c 0xe6
46 490 m 0xee
 46 596 142 666 242 666 c 0
 304 666 327 653 393 638 c 1
 405 585 405 522 405 495 c 0
 405 488 398 488 395 488 c 0
 391 488 371 488 369 498 c 0
 363 548 314 625 235 625 c 0
 147 625 126 569 126 521 c 0xee
 126 441 200 408 266 366 c 0
 332 324 440 272 440 173 c 0
 440 63 338 -10 231 -10 c 0
 163 -10 100 9 51 19 c 1
 39 78 26 166 26 178 c 0
 26 183 35 184 42 184 c 0
 53 184 64 179 67 175 c 1xf6
 74 145 101 31 233 31 c 0
 295 31 353 68 353 146 c 0
 353 229 289 250 220 290 c 0
 143 335 46 389 46 490 c 0xee
EndSplineSet
Validated: 1
EndChar

StartChar: uni0219
Encoding: 537 537 318
Width: 343
Flags: W
HStem: -227 181<127 195> -11 36<107.44 213.209> 402 35<126.116 225.962>
VStem: 27 28<81.3744 117.998> 32 77<294.31 381.036> 153 64<-171.345 -91> 234 81<55.7917 143.901> 263 28<317.037 357.157>
LayerCount: 2
Fore
SplineSet
116 -101 m 0xe4
 116 -76 135 -46 195 -46 c 1
 207 -56 217 -83 217 -99 c 0
 217 -168 165 -208 135 -225 c 0
 134 -226 131 -227 127 -227 c 0
 114 -227 107 -223 107 -220 c 0
 107 -215 153 -185 153 -161 c 0
 153 -134 116 -131 116 -101 c 0xe4
177 437 m 0
 216 437 235 429 279 424 c 1
 286 393 290 358 291 322 c 0
 291 318 283 317 278 317 c 0
 273 317 264 319 263 324 c 0
 257 358 224 402 181 402 c 0
 133 402 109 379 109 343 c 0xed
 109 291 160 276 205 249 c 0
 250 222 315 190 315 127 c 0
 315 46 242 -11 161 -11 c 0
 115 -11 88 0 44 8 c 1
 36 29 27 86 27 112 c 1
 31 115 34 118 39 118 c 0
 46 118 54 119 55 112 c 0xf6
 62 76 108 25 161 25 c 0
 202 25 234 47 234 93 c 0
 234 154 163 175 105 209 c 0
 65 232 32 262 32 315 c 0xee
 32 389 103 437 177 437 c 0
EndSplineSet
Validated: 1
Substitution2: "'smcp' Lowercase to Small Capitals lookup 2-1" uni0219.sc
EndChar

StartChar: uni021A
Encoding: 538 538 319
Width: 669
Flags: W
HStem: -227 181<299 367> -3 29<211.006 275.855 391.335 452.997> 615 45<89.0107 282.684 383.25 577.989>
VStem: 26 34<521.684 575.415> 289 87<36.9151 607.652> 325 64<-171.345 -91> 607 34<521.684 575.415>
LayerCount: 2
Fore
SplineSet
288 -101 m 0xf6
 288 -76 307 -46 367 -46 c 1
 379 -56 389 -83 389 -99 c 0
 389 -168 337 -208 307 -225 c 0
 306 -226 303 -227 299 -227 c 0
 286 -227 279 -223 279 -220 c 0
 279 -215 325 -185 325 -161 c 0
 325 -134 288 -131 288 -101 c 0xf6
289 135 m 2xfa
 289 497 l 2
 289 537 288 586 280 600 c 0
 276 608 251 615 172 615 c 0
 95 615 79 600 60 526 c 0
 59 522 55 521 50 521 c 0
 41 521 29 525 26 528 c 1
 45 671 l 1
 61 667 100 660 114 660 c 0
 203 659 253 656 333 656 c 0
 413 656 464 659 553 660 c 0
 567 660 606 667 622 671 c 1
 641 528 l 1
 638 525 626 521 617 521 c 0
 612 521 608 522 607 526 c 0
 588 600 572 615 495 615 c 0
 416 615 387 608 385 600 c 0
 377 572 376 538 376 500 c 2
 376 139 l 2
 376 103 378 73 385 46 c 0
 388 35 441 26 449 26 c 0
 452 26 453 17 453 11 c 0
 453 6 452 0 451 -3 c 1
 411 -1 379 2 335 2 c 0
 289 2 261 -1 215 -3 c 1
 213 -1 211 6 211 12 c 0
 211 18 213 26 215 26 c 0
 227 26 277 34 282 46 c 1
 288 69 289 117 289 135 c 2xfa
EndSplineSet
Validated: 1
EndChar

StartChar: uni021B
Encoding: 539 539 320
Width: 352
Flags: W
HStem: -227 181<174 242> -7 48<197.894 291.512> 374 48<175 315.919>
VStem: 98 77<63.875 374> 200 64<-171.345 -91>
LayerCount: 2
Fore
SplineSet
163 -101 m 0
 163 -76 182 -46 242 -46 c 1
 254 -56 264 -83 264 -99 c 0
 264 -168 212 -208 182 -225 c 0
 181 -226 178 -227 174 -227 c 0
 161 -227 154 -223 154 -220 c 0
 154 -215 200 -185 200 -161 c 0
 200 -134 163 -131 163 -101 c 0
98 374 m 1
 31 374 l 2
 28 374 26 383 26 391 c 0
 26 395 26 399 27 402 c 1
 43 412 74 435 97 460 c 0
 122 488 150 532 154 532 c 0
 166 532 175 531 175 527 c 2
 175 422 l 1
 219 422 296 421 310 421 c 0
 315 421 318 418 318 412 c 0
 318 403 315 388 308 374 c 1
 175 374 l 1
 175 129 l 2
 175 76 205 41 249 41 c 0
 273 41 306 57 311 60 c 0
 316 63 326 41 325 40 c 0
 310 24 264 -7 215 -7 c 0
 153 -7 98 34 98 120 c 2
 98 374 l 1
EndSplineSet
Validated: 1
Substitution2: "'smcp' Lowercase to Small Capitals lookup 2-1" uni021B.sc
EndChar

StartChar: uni0237
Encoding: 567 567 321
Width: 264
Flags: W
HStem: 414 20G<208.5 212>
VStem: 132 77<-83.5328 366.601>
LayerCount: 2
Fore
SplineSet
132 305 m 2
 132 313 131 345 118 359 c 1
 96 386 60 376 60 382 c 0
 60 383 61 406 66 407 c 0
 111 414 167 422 204 433 c 0
 205 433 208 434 209 434 c 0
 215 434 215 418 214 413 c 0
 210 381 209 375 209 341 c 2
 209 68 l 2
 209 32 205 -65 170 -120 c 0
 134 -177 73 -217 36 -231 c 1
 31 -228 26 -221 24 -216 c 0
 23 -214 22 -210 23 -209 c 0
 25 -203 132 -183 132 45 c 2
 132 305 l 2
EndSplineSet
Validated: 1
EndChar

StartChar: uni02BB
Encoding: 699 699 322
Width: 460
Flags: W
HStem: 476 181<514 582>
VStem: 492 64<521 600.267>
LayerCount: 2
Fore
SplineSet
593 531 m 0
 593 506 574 476 514 476 c 1
 502 486 492 513 492 529 c 0
 492 598 549 642 574 655 c 0
 575 656 578 657 582 657 c 0
 595 657 602 653 602 650 c 0
 602 645 556 615 556 591 c 0
 556 564 593 561 593 531 c 0
EndSplineSet
Validated: 1
EndChar

StartChar: afii57929
Encoding: 700 700 323
Width: 460
Flags: W
HStem: 465 187<511 578>
VStem: 532 61<527.257 624.398>
LayerCount: 2
Fore
SplineSet
510 601 m 0
 510 632 536 652 578 652 c 1
 588 640 593 618 593 590 c 0
 593 545 542 480 518 466 c 0
 517 465 513 465 511 465 c 0
 506 465 497 473 497 478 c 0
 497 481 532 503 532 548 c 0
 532 562 510 575 510 601 c 0
EndSplineSet
Validated: 1
EndChar

StartChar: uni02C0
Encoding: 704 704 324
Width: 460
Flags: W
HStem: 579 37<491.073 552.479>
VStem: 495 42<451.404 496.421> 556 52<518.671 576.434>
LayerCount: 2
Fore
SplineSet
522 579 m 4
 495 579 483 541 466 541 c 4
 451 541 448 556 448 562 c 5
 459 578 498 616 544 616 c 4
 579 616 608 597 608 560 c 4
 608 530 575 510 556 495 c 4
 546 487 537 482 537 472 c 4
 537 466 540 461 542 458 c 5
 542 455 533 450 526 450 c 4
 510 450 495 460 495 477 c 4
 495 488 520 503 537 517 c 4
 549 527 556 537 556 549 c 4
 556 565 540 579 522 579 c 4
EndSplineSet
Validated: 1
EndChar

StartChar: circumflex
Encoding: 710 710 325
Width: 460
Flags: W
HStem: 492 149
VStem: 540 199
LayerCount: 2
Fore
SplineSet
732 492 m 0
 721 492 666 534 639 558 c 1
 612 532 560 492 549 492 c 0
 543 492 540 510 540 515 c 1
 547 525 570 548 594 578 c 0
 607 594 620 612 631 631 c 0
 635 638 635 641 639 641 c 0
 643 641 646 637 649 631 c 0
 660 613 672 593 685 576 c 0
 711 543 738 518 739 515 c 1
 739 506 737 492 732 492 c 0
EndSplineSet
Validated: 1
EndChar

StartChar: caron
Encoding: 711 711 326
Width: 460
Flags: W
HStem: 493 148
VStem: 540 200
LayerCount: 2
Fore
SplineSet
639 575 m 1
 666 599 721 641 732 641 c 0
 737 641 740 627 740 618 c 1
 739 615 711 590 685 557 c 0
 672 540 660 520 649 502 c 0
 646 496 644 493 640 493 c 0
 637 493 635 495 631 502 c 0
 620 521 607 538 594 554 c 0
 570 584 547 608 540 618 c 1
 540 623 543 641 549 641 c 0
 560 641 612 601 639 575 c 1
EndSplineSet
Validated: 1
EndChar

StartChar: breve
Encoding: 728 728 327
Width: 460
Flags: W
HStem: 520 46<527.068 642.932> 621 20G<491 495 675 679>
VStem: 476 22<621.095 638.805> 672 22<620.096 638.805>
LayerCount: 2
Fore
SplineSet
585 566 m 0
 627 566 662 595 672 638 c 0
 672 640 674 641 676 641 c 0
 682 641 694 633 694 628 c 0
 694 627 693 622 693 620 c 0
 684 567 639 520 585 520 c 0
 531 520 486 564 477 621 c 0
 477 623 476 627 476 628 c 0
 476 633 488 641 494 641 c 0
 496 641 498 640 498 638 c 0
 508 595 543 566 585 566 c 0
EndSplineSet
Validated: 1
EndChar

StartChar: dotaccent
Encoding: 729 729 328
Width: 460
Flags: W
HStem: 495 100<541.438 624.562>
VStem: 533 100<503.438 586.562>
LayerCount: 2
Fore
SplineSet
533 545 m 0
 533 573 555 595 583 595 c 0
 611 595 633 573 633 545 c 0
 633 517 611 495 583 495 c 0
 555 495 533 517 533 545 c 0
EndSplineSet
Validated: 1
EndChar

StartChar: ring
Encoding: 730 730 329
Width: 460
Flags: W
HStem: 502 34<549.68 625.973> 647 34<548.263 626.425>
VStem: 500 33<552.832 630.822> 642 33<552.832 630.822>
LayerCount: 2
Fore
SplineSet
533 592 m 0
 533 561 558 536 588 536 c 0
 618 536 642 561 642 592 c 0
 642 623 618 647 588 647 c 0
 558 647 533 623 533 592 c 0
500 592 m 0
 500 641 540 681 588 681 c 0
 636 681 675 641 675 592 c 0
 675 543 636 502 588 502 c 0
 540 502 500 543 500 592 c 0
EndSplineSet
Validated: 1
EndChar

StartChar: ogonek
Encoding: 731 731 330
Width: 460
Flags: W
HStem: -218 59<533.505 606.133>
VStem: 475 54<-155.236 -80.9335>
LayerCount: 2
Fore
SplineSet
629 42 m 0
 646 42 670 37 658 25 c 0
 635 3 529 -52 529 -116 c 0
 529 -131 536 -159 570 -159 c 0
 621 -159 645 -121 651 -121 c 0
 652 -121 656 -126 656 -134 c 0
 656 -139 654 -147 651 -151 c 0
 629 -180 591 -218 546 -218 c 0
 490 -218 475 -168 475 -141 c 0
 475 -75 600 42 629 42 c 0
EndSplineSet
Validated: 33
EndChar

StartChar: hungarumlaut
Encoding: 733 733 332
Width: 460
Flags: W
HStem: 527 160<638 655>
VStem: 506 295
LayerCount: 2
Fore
SplineSet
760 687 m 0
 795 687 801 668 801 663 c 0
 801 624 655 527 645 527 c 0
 638 527 633 534 633 540 c 0
 633 546 690 637 726 678 c 0
 731 683 746 687 760 687 c 0
633 687 m 0
 668 687 674 668 674 663 c 0
 674 624 528 527 518 527 c 0
 511 527 506 534 506 540 c 0
 506 546 563 637 599 678 c 0
 604 683 619 687 633 687 c 0
EndSplineSet
Validated: 1
EndChar

StartChar: gravecomb
Encoding: 768 768 333
Width: 247
Flags: W
HStem: 527 160
VStem: 47 168
LayerCount: 2
Fore
SplineSet
47 663 m 4
 47 668 53 687 88 687 c 4
 102 687 117 683 122 678 c 4
 159 635 215 545 215 540 c 4
 215 534 210 527 203 527 c 4
 193 527 47 624 47 663 c 4
EndSplineSet
Validated: 1
EndChar

StartChar: acutecomb
Encoding: 769 769 334
Width: 234
Flags: W
HStem: 527 160
VStem: 46 168
LayerCount: 2
Fore
SplineSet
173 687 m 0
 208 687 214 668 214 663 c 0
 214 624 68 527 58 527 c 0
 51 527 46 534 46 540 c 0
 46 546 103 637 139 678 c 0
 144 683 159 687 173 687 c 0
EndSplineSet
Validated: 1
EndChar

StartChar: uni0302
Encoding: 770 770 335
Width: 424
Flags: W
HStem: 492 149
VStem: 80 199
LayerCount: 2
Fore
SplineSet
272 492 m 0
 261 492 206 534 179 558 c 1
 152 532 100 492 89 492 c 0
 83 492 80 510 80 515 c 1
 87 525 110 548 134 578 c 0
 147 594 160 612 171 631 c 0
 175 638 175 641 179 641 c 0
 183 641 186 637 189 631 c 0
 200 613 212 593 225 576 c 0
 251 543 278 518 279 515 c 1
 279 506 277 492 272 492 c 0
EndSplineSet
Validated: 1
EndChar

StartChar: tildecomb
Encoding: 771 771 336
Width: 404
Flags: W
HStem: 505 51<176.959 288.034> 548 50<57.9399 166.163>
VStem: 32 282<534 569>
LayerCount: 2
Fore
SplineSet
248 556 m 4xa0
 270 556 290 570 299 590 c 5
 301 591 304 591 305 591 c 4
 310 591 314 582 314 575 c 4
 314 534 262 505 236 505 c 4xa0
 179 505 150 548 96 548 c 4
 76 548 56 533 47 513 c 5
 45 512 42 512 41 512 c 4
 36 512 32 521 32 528 c 4
 32 569 84 598 110 598 c 4x60
 166 598 192 556 248 556 c 4xa0
EndSplineSet
Validated: 1
EndChar

StartChar: uni0304
Encoding: 772 772 337
Width: 384
Flags: W
HStem: 550 46<81.2097 298.904>
VStem: 80 225<550.013 596>
LayerCount: 2
Fore
SplineSet
80 559 m 0
 80 561 81 596 92 596 c 2
 300 596 l 2
 302 596 305 595 305 589 c 0
 305 584 304 575 299 557 c 0
 297 551 292 550 292 550 c 1
 86 550 l 1
 86 550 80 549 80 559 c 0
EndSplineSet
Validated: 1
EndChar

StartChar: uni0305
Encoding: 773 773 338
Width: 565
Flags: W
HStem: 739 63<-11.4404 578.903>
LayerCount: 2
Fore
SplineSet
-15 749 m 0
 -15 751 -12 802 -1 802 c 2
 581 802 l 2
 583 802 587 801 587 793 c 0
 587 775 580 750 579 746 c 0
 577 740 571 739 571 739 c 1
 -9 739 l 1
 -9 739 -15 739 -15 749 c 0
EndSplineSet
Validated: 1
EndChar

StartChar: uni0306
Encoding: 774 774 339
Width: 252
Flags: W
HStem: 520 46<67.068 182.932> 621 20G<31 35 215 219>
VStem: 16 22<621.095 638.805> 212 22<620.096 638.805>
LayerCount: 2
Fore
SplineSet
125 566 m 0
 167 566 202 595 212 638 c 0
 212 640 214 641 216 641 c 0
 222 641 234 633 234 628 c 0
 234 627 233 622 233 620 c 0
 224 567 179 520 125 520 c 0
 71 520 26 564 17 621 c 0
 17 623 16 627 16 628 c 0
 16 633 28 641 34 641 c 0
 36 641 38 640 38 638 c 0
 48 595 83 566 125 566 c 0
EndSplineSet
Validated: 1
EndChar

StartChar: uni0307
Encoding: 775 775 340
Width: 262
Flags: W
HStem: 495 100<81.4375 164.562>
VStem: 73 100<503.438 586.562>
LayerCount: 2
Fore
SplineSet
73 545 m 0
 73 573 95 595 123 595 c 0
 151 595 173 573 173 545 c 0
 173 517 151 495 123 495 c 0
 95 495 73 517 73 545 c 0
EndSplineSet
Validated: 1
EndChar

StartChar: uni0308
Encoding: 776 776 341
Width: 333
Flags: W
HStem: 471 92<37.6421 116.358 220.642 299.358>
VStem: 30 94<478.646 555.037> 213 94<478.646 555.037>
LayerCount: 2
Fore
SplineSet
261 563 m 0
 286 563 307 541 307 516 c 0
 307 491 285 471 260 471 c 0
 235 471 213 492 213 517 c 0
 213 542 236 563 261 563 c 0
78 563 m 0
 103 563 124 541 124 516 c 0
 124 491 102 471 77 471 c 0
 52 471 30 492 30 517 c 0
 30 542 53 563 78 563 c 0
EndSplineSet
Validated: 1
EndChar

StartChar: hookabovecomb
Encoding: 777 777 342
Width: 180
Flags: W
HStem: 626 29<68.258 119.225>
VStem: 18 46<570.661 622.444> 48 42<490.096 536.298> 124 41<563.096 624.757>
LayerCount: 2
Fore
SplineSet
111 655 m 0xd0
 146 655 165 634 165 604 c 0
 165 571 137 548 114 538 c 0
 96 530 90 525 90 513 c 0
 90 505 95 497 98 494 c 1
 98 489 87 480 82 480 c 1
 76 482 48 493 48 513 c 0xb0
 48 538 78 550 93 557 c 0
 113 566 124 577 124 594 c 0
 124 610 114 626 96 626 c 0
 76 626 64 617 64 590 c 0
 64 575 46 570 34 570 c 0
 27 570 18 574 18 579 c 0
 18 613 68 655 111 655 c 0xd0
EndSplineSet
Validated: 1
EndChar

StartChar: uni030A
Encoding: 778 778 343
Width: 244
Flags: W
HStem: 502 34<89.6802 165.973> 647 34<88.263 166.425>
VStem: 40 33<552.832 630.822> 182 33<552.832 630.822>
LayerCount: 2
Fore
SplineSet
73 592 m 0
 73 561 98 536 128 536 c 0
 158 536 182 561 182 592 c 0
 182 623 158 647 128 647 c 0
 98 647 73 623 73 592 c 0
40 592 m 0
 40 641 80 681 128 681 c 0
 176 681 215 641 215 592 c 0
 215 543 176 502 128 502 c 0
 80 502 40 543 40 592 c 0
EndSplineSet
Validated: 1
EndChar

StartChar: uni030B
Encoding: 779 779 344
Width: 363
Flags: W
HStem: 527 160<178 195>
VStem: 46 295
LayerCount: 2
Fore
SplineSet
300 687 m 0
 335 687 341 668 341 663 c 0
 341 624 195 527 185 527 c 0
 178 527 173 534 173 540 c 0
 173 546 230 637 266 678 c 0
 271 683 286 687 300 687 c 0
173 687 m 0
 208 687 214 668 214 663 c 0
 214 624 68 527 58 527 c 0
 51 527 46 534 46 540 c 0
 46 546 103 637 139 678 c 0
 144 683 159 687 173 687 c 0
EndSplineSet
Validated: 1
EndChar

StartChar: uni030C
Encoding: 780 780 345
Width: 424
Flags: W
HStem: 493 148
VStem: 80 200
LayerCount: 2
Fore
SplineSet
179 575 m 1
 206 599 261 641 272 641 c 0
 277 641 280 627 280 618 c 1
 279 615 251 590 225 557 c 0
 212 540 200 520 189 502 c 0
 186 496 184 493 180 493 c 0
 177 493 175 495 171 502 c 0
 160 521 147 538 134 554 c 0
 110 584 87 608 80 618 c 1
 80 623 83 641 89 641 c 0
 100 641 152 601 179 575 c 1
EndSplineSet
Validated: 1
EndChar

StartChar: uni0312
Encoding: 786 786 346
Width: 215
Flags: W
HStem: 476 181<54 122>
VStem: 32 64<521 600.267>
LayerCount: 2
Fore
SplineSet
133 531 m 0
 133 506 114 476 54 476 c 1
 42 486 32 513 32 529 c 0
 32 598 89 642 114 655 c 0
 115 656 118 657 122 657 c 0
 135 657 142 653 142 650 c 0
 142 645 96 615 96 591 c 0
 96 564 133 561 133 531 c 0
EndSplineSet
Validated: 1
EndChar

StartChar: uni0315
Encoding: 789 789 347
Width: 160
Flags: W
HStem: 465 187<51 118>
VStem: 72 61<527.257 624.398>
LayerCount: 2
Fore
SplineSet
50 601 m 0
 50 632 76 652 118 652 c 1
 128 640 133 618 133 590 c 0
 133 545 82 480 58 466 c 0
 57 465 53 465 51 465 c 0
 46 465 37 473 37 478 c 0
 37 481 72 503 72 548 c 0
 72 562 50 575 50 601 c 0
EndSplineSet
Validated: 1
EndChar

StartChar: uni0323
Encoding: 803 803 348
Width: 262
Flags: W
HStem: -132 100<102.438 185.562>
VStem: 94 100<-123.562 -40.4375>
LayerCount: 2
Fore
SplineSet
94 -82 m 0
 94 -54 116 -32 144 -32 c 0
 172 -32 194 -54 194 -82 c 0
 194 -110 172 -132 144 -132 c 0
 116 -132 94 -110 94 -82 c 0
EndSplineSet
Validated: 1
EndChar

StartChar: uni0326
Encoding: 806 806 349
Width: 215
Flags: W
HStem: -227 181<52 120>
VStem: 78 64<-171.345 -91>
LayerCount: 2
Fore
SplineSet
41 -101 m 0
 41 -76 60 -46 120 -46 c 1
 132 -56 142 -83 142 -99 c 0
 142 -168 90 -208 60 -225 c 0
 59 -226 56 -227 52 -227 c 0
 39 -227 32 -223 32 -220 c 0
 32 -215 78 -185 78 -161 c 0
 78 -134 41 -131 41 -101 c 0
EndSplineSet
Validated: 1
EndChar

StartChar: uni0327
Encoding: 807 807 350
Width: 443
Flags: W
HStem: -152 24<178.049 242.387> -61 34<220 247.414>
VStem: 252 37<-122.34 -64.0801>
LayerCount: 2
Fore
SplineSet
220 -27 m 1
 245 -27 l 2
 271 -27 289 -50 289 -76 c 0
 289 -123 247 -152 195 -152 c 0
 183 -152 167 -147 161 -143 c 1
 160 -138 158 -135 158 -129 c 0
 158 -122 166 -115 172 -115 c 0
 184 -115 193 -128 209 -128 c 0
 237 -128 252 -112 252 -95 c 0
 252 -71 234 -61 221 -61 c 0
 210 -61 205 -64 195 -68 c 0
 193 -68 183 -59 185 -55 c 0
 194 -40 209 -18 217 -4 c 1
 238 -4 l 1
 220 -27 l 1
EndSplineSet
Validated: 1
EndChar

StartChar: uni0328
Encoding: 808 808 351
Width: 220
Flags: W
HStem: -218 59<73.5049 146.133>
VStem: 15 54<-155.236 -80.9335>
LayerCount: 2
Fore
SplineSet
169 42 m 0
 186 42 210 37 198 25 c 0
 175 3 69 -52 69 -116 c 0
 69 -131 76 -159 110 -159 c 0
 161 -159 185 -121 191 -121 c 0
 192 -121 196 -126 196 -134 c 0
 196 -139 194 -147 191 -151 c 0
 169 -180 131 -218 86 -218 c 0
 30 -218 15 -168 15 -141 c 0
 15 -75 140 42 169 42 c 0
EndSplineSet
Validated: 33
EndChar

StartChar: alpha
Encoding: 945 945 352
Width: 497
Flags: W
HStem: -9 40<111.791 194.976> -3 75<361.196 449.184> 370 67<181.714 271.363>
VStem: 36 59<57.2891 236.166> 307 38<279 298> 396 56<373.928 403.439>
LayerCount: 2
Fore
SplineSet
345 142 m 1xbc
 354 83 371 72 396 72 c 0
 430 72 469 106 474 117 c 1
 482 114 487 99 487 94 c 0
 487 86 458 -3 408 -3 c 0x7c
 366 -3 324 54 319 103 c 1
 273 37 233 -9 170 -9 c 0
 91 -9 36 48 36 163 c 0
 36 235 88 437 216 437 c 0
 266 437 338 372 338 279 c 1
 365 345 385 407 396 436 c 1
 413 436 452 410 452 382 c 0
 452 355 431 302 414 266 c 0
 390 216 345 142 345 142 c 1xbc
227 370 m 0
 161 370 95 219 95 115 c 0
 95 53 120 31 147 31 c 0xbc
 217 31 307 186 307 219 c 1
 307 298 281 370 227 370 c 0
EndSplineSet
Validated: 1
EndChar

StartChar: beta
Encoding: 946 946 353
Width: 495
Flags: W
HStem: -228 21G<129 137> -6 66<224.435 338.479> 297 71<216.943 261.844> 629 64<206.954 317.439>
VStem: 72 63<-209.944 541.381> 344 49<449.234 607.319> 392 65<119.278 271.093>
LayerCount: 2
Fore
SplineSet
392 215 m 0xfa
 392 272 353 336 310 336 c 0
 306 336 307 335 303 334 c 1
 277 311 253 297 241 297 c 1
 235 300 223 310 215 322 c 24
 208 332 204 338 204 350 c 0
 204 357 210 363 220 368 c 0
 302 406 344 452 344 542 c 0
 344 596 318 629 270 629 c 0
 172 629 127 504 129 404 c 0
 130 358 134 59 135 0 c 0
 136 -70 149 -190 157 -211 c 1
 150 -221 142 -228 132 -228 c 0
 126 -228 72 -207 72 -192 c 2
 72 401 l 2
 72 602 145 693 237 693 c 0
 358 693 393 581 393 508 c 0xfc
 393 461 368 409 339 372 c 1
 385 349 457 277 457 184 c 0
 457 68 385 -6 315 -6 c 0
 234 -6 191 36 176 60 c 1
 174 67 174 75 174 83 c 0
 174 87 177 94 179 94 c 0
 185 94 213 60 279 60 c 0
 329 60 392 103 392 215 c 0xfa
EndSplineSet
Validated: 33
EndChar

StartChar: gamma
Encoding: 947 947 354
Width: 482
Flags: W
HStem: -227 21G<195.5 221> 362 71<55.1115 151.875>
VStem: 159 90<-213.764 -87> 223 39<-9.91388 16.7139 102 217.562> 376 73<294.689 423.27>
LayerCount: 2
Fore
SplineSet
249 -196 m 0xe8
 245 -227 233 -227 209 -227 c 0
 182 -227 158 -186 159 -181 c 0xe8
 161 -163 195 -22 223 40 c 1
 223 83 218 94 216 124 c 0
 200 326 151 362 87 362 c 0
 61 362 37 341 30 332 c 1
 27 332 23 337 20 342 c 0
 18 346 17 350 17 353 c 1
 30 397 70 433 110 433 c 0
 199 432 244 288 252 155 c 0
 253 142 256 110 256 102 c 1
 284 156 325 202 351 284 c 0
 376 362 376 397 376 424 c 0
 376 436 389 436 391 436 c 0
 415 436 449 412 449 394 c 0
 449 372 437 305 409 239 c 0
 373 155 282 18 273 4 c 0
 266 -9 263 -10 262 -42 c 0xd8
 260 -95 257 -134 249 -196 c 0xe8
EndSplineSet
Validated: 33
EndChar

StartChar: delta
Encoding: 948 948 355
Width: 460
Flags: W
HStem: -6 36<144.631 260.682> 345 38<192.563 276.762> 639 54<152.535 256.542>
VStem: 37 75<85.8153 244.382> 82 58<546.8 626.325> 345 77<117.185 301.014>
LayerCount: 2
Fore
SplineSet
37 170 m 0xf4
 37 278 141 383 233 383 c 0
 248.315 383 263.254 381.874 277.589 377.783 c 1
 199.666 466.94 82 526.417 82 602 c 0
 82 657 139 693 188 693 c 0
 255 693 348 606 369 574 c 0
 384 551 390 531 390 519 c 0
 390 513 377 506 375 509 c 0
 348 548 288 639 201 639 c 0
 170 639 140 616 140 588 c 0xec
 140 501 422 415 422 201 c 0
 422 103 351 -6 221 -6 c 0
 107 -6 37 80 37 170 c 0xf4
315.208 325.928 m 1
 302.439 338.643 276.26 345 241 345 c 0
 164 345 112 222 112 138 c 0xf4
 112 72 139 30 199 30 c 0
 274 30 345 104 345 218 c 0
 345 258.642 333.457 294.149 315.208 325.928 c 1
EndSplineSet
Validated: 1
EndChar

StartChar: epsilon
Encoding: 949 949 356
Width: 356
Flags: W
HStem: -5 61<93.0369 269.34> 375 60<149.553 277.408>
VStem: 39 35<80.8691 143.165> 48 44<246.55 325.841>
LayerCount: 2
Fore
SplineSet
74 113 m 0xe0
 74 78 120 56 172 56 c 0
 261 56 333 106 338 106 c 0
 342 106 344 103 344 99 c 0
 344 90 343 83 341 77 c 1
 305 33 252 -5 187 -5 c 0
 100 -5 39 34 39 104 c 0xe0
 39 141 67 182 107 212 c 1
 73 229 48 257 48 292 c 0
 48 389 137 435 190 435 c 0
 266 435 302 395 311 387 c 0
 313 384 314 381 314 376 c 0
 314 370 312 361 309 358 c 1
 295 366 263 375 236 375 c 0
 152 375 92 320 92 280 c 0xd0
 92 249 132 235 149 235 c 1
 172 244 203 257 230 257 c 0
 236 257 244 255 250 253 c 1
 262 243 274 228 274 212 c 0
 274 209 275 198 266 198 c 0
 189 198 74 158 74 113 c 0xe0
EndSplineSet
Validated: 1
EndChar

StartChar: zeta
Encoding: 950 950 357
Width: 387
VWidth: 295
Flags: W
HStem: -3 71<84.4331 289.116> 12 74<154.638 319.255> 674 19<158.939 162.939>
VStem: 38 38<80.011 227.617> 69 58<574.55 653.945> 320 48<-59.7456 30.5>
LayerCount: 2
Fore
SplineSet
300 -105 m 1x74
 296 -105 278 -100 278 -90 c 1
 296 -80 320 -56 320 -17 c 0
 320 2 303 12 284 12 c 3x74
 250 12 199 -3 149 -3 c 3
 63 -3 38 52 38 132 c 1xb4
 38 254 101 396 184 536 c 1
 184 536 69 544 69 606 c 0
 69 662 139 690 149 693 c 1
 159 693 171 679 171 674 c 1
 152 664 127 628 127 607 c 0xac
 127 566 184 566 205 566 c 1
 256 636 320 693 348 693 c 0
 361 693 378 656 378 645 c 0
 378 630 376 622 357 608 c 0
 341 596 298 566 272 546 c 0
 204 492 76 260 76 116 c 0
 76 72 122 68 156 68 c 3xb4
 197 68 252 86 298 86 c 3
 348 86 368 42 368 19 c 0
 368 -49 328 -87 300 -105 c 1x74
EndSplineSet
Validated: 1
EndChar

StartChar: eta
Encoding: 951 951 358
Width: 533
Flags: W
HStem: -227 21G<433.5 442.5> -6 21G<176 187> 362 71<65.1115 133.077 291.669 375.955>
VStem: 125 80<9.07266 167.851> 390 50<72.5486 347.539>
LayerCount: 2
Fore
SplineSet
375 -182 m 0
 379 -110 390 73 390 252 c 0
 390 331 376 357 344 357 c 0
 277 357 229 278 205 207 c 1
 205 183 205 159 205 136 c 0
 205 123 204 52 205 14 c 1
 200 6 193 -6 181 -6 c 0
 171 -6 125 18 125 31 c 0
 125 49 132 99 151 188 c 0
 152 194 156 211 156 211 c 1
 156 292 143 362 97 362 c 0
 71 362 47 341 40 332 c 1
 37 332 33 337 30 342 c 0
 28 346 27 350 27 353 c 0
 40 397 80 433 120 433 c 0
 168 432 181 365 190 301 c 1
 220 371 270 440 340 440 c 0
 401 440 433 379 440 290 c 0
 449 171 441 -130 463 -209 c 1
 458 -217 447 -227 438 -227 c 0
 429 -227 374 -198 375 -182 c 0
EndSplineSet
Validated: 33
EndChar

StartChar: theta
Encoding: 952 952 359
Width: 466
VWidth: 390
Flags: W
HStem: -5 46<177.162 268.375> 330 48<116.716 358.672> 649 46<206.484 297.693>
VStem: 37 76<190.79 326.839 380.014 488.909> 360 77<187.021 325.537 380.953 502.417>
LayerCount: 2
Fore
SplineSet
234 378 m 1
 284 378 339 379 361 384 c 1
 358 500 330 649 254 649 c 0
 187 649 128 528 116 382 c 1
 128 379 188 378 234 378 c 1
237 695 m 0
 345 695 437 538 437 345 c 0
 437 152 345 -5 237 -5 c 0
 129 -5 37 152 37 345 c 0
 37 538 129 695 237 695 c 0
360 324 m 1
 332 326 283 330 234 330 c 0
 187 330 121 328 113 323 c 1
 113 321 113 320 113 318 c 0
 113 202 145 41 218 41 c 0
 291 41 352 163 360 324 c 1
EndSplineSet
Validated: 1
EndChar

StartChar: iota
Encoding: 953 953 360
Width: 222
Flags: W
HStem: -3 63<118.711 192.375> 413 20G<92 100>
VStem: 72 75<155.595 419.952> 72 67<62.1681 335.549>
LayerCount: 2
Fore
SplineSet
143 -3 m 3xd0
 96 -3 72 39 72 89 c 0xd0
 72 112 72 288 72 416 c 17
 79 426 87 433 97 433 c 0
 103 433 147 412 147 397 c 9xe0
 144 282 141 201 139 101 c 0
 138 73 153 60 175 60 c 0
 187 60 201 61 207 65 c 1
 214 60 214 53 214 48 c 1
 214 40 180 -3 143 -3 c 3xd0
EndSplineSet
Validated: 33
EndChar

StartChar: kappa
Encoding: 954 954 361
Width: 475
Flags: W
HStem: -4 66<348.208 438.18> 362 71<64.1115 127.617> 386 50<356.912 438.762>
VStem: 107 87<15.4237 139.57>
LayerCount: 2
Fore
SplineSet
365 436 m 0xb0
 381 436 453 416 453 399 c 0
 453 396 453 388 452 386 c 1xb0
 340 386 261 305 223 232 c 1
 234 174 348 62 402 62 c 0
 448 62 451 72 462 77 c 1
 464 77 466 71 466 68 c 0
 466 60 464 52 463 49 c 1
 453 32 429 -4 375 -4 c 0
 301 -4 221 130 198 188 c 1
 197 186 195 182 195 180 c 0
 195 172 194 171 194 148 c 0
 194 98 188 44 184 14 c 1
 179 6 172 -6 160 -6 c 0
 150 -6 107 18 107 31 c 0
 107 49 119 104 140 180 c 0
 142 186 145 203 145 203 c 1
 145 284 142 362 96 362 c 0
 70 362 46 341 39 332 c 1
 36 332 32 337 29 342 c 0
 27 346 26 350 26 353 c 0
 39 397 79 433 119 433 c 0xd0
 167 432 170 342 179 278 c 1
 209 348 295 436 365 436 c 0xb0
EndSplineSet
Validated: 1
EndChar

StartChar: lambda
Encoding: 955 955 362
Width: 517
VWidth: 255
Flags: W
HStem: -3 63<414.123 484.211> 625 71<148.111 219.999>
LayerCount: 2
Fore
SplineSet
329 354 m 0
 344 237 362 166 377 133 c 0
 412 58 456 60 469 60 c 0
 483 60 492 62 498 65 c 1
 501 64 506 55 506 52 c 0
 506 50 507 49 506 46 c 1
 501 38 476 -3 433 -3 c 0
 334 -3 310 207 293 302 c 1
 262 239 112 27 90 -5 c 5
 83 -7 75 -8 69 -8 c 4
 45 -8 15 24 15 32 c 5
 66 52 197 273 273 424 c 1
 273 536 226 625 180 625 c 0
 154 625 130 604 123 595 c 1
 120 595 116 600 113 605 c 0
 111 609 110 613 110 616 c 0
 123 660 163 696 203 696 c 0
 279 696 311 492 329 354 c 0
EndSplineSet
Validated: 545
Substitution2: "Single Substitution lookup 46 subtable" u03BB.d
EndChar

StartChar: mu
Encoding: 956 956 363
Width: 509
Flags: W
HStem: -227 21G<117 128> -9 73<157.888 240.859 401.818 460.546> 417 20G<104 115 346 357>
VStem: 86 77<250.141 422.656> 90 45<86.9783 339.784> 328 77<250.141 422.656>
LayerCount: 2
Fore
SplineSet
192 -9 m 0xec
 150 -9 136 42 124 76 c 1
 126 51 124 -89 146 -207 c 1
 141 -215 134 -227 122 -227 c 0
 112 -227 69 -203 69 -190 c 0
 69 -172 78 100 90 204 c 1xec
 90 228 86 275 86 298 c 0
 86 311 87 379 86 417 c 1
 91 425 98 437 110 437 c 0
 120 437 163 413 163 400 c 0xf4
 163 382 159 335 140 246 c 0
 139 240 135 223 135 223 c 0
 135 144 150 64 186 64 c 0
 253 64 303 155 328 227 c 1
 328 251 328 275 328 298 c 0
 328 311 329 379 328 417 c 1
 333 425 340 437 352 437 c 0
 362 437 405 413 405 400 c 0
 405 382 401 335 382 246 c 0
 381 240 377 223 377 223 c 1
 376 141 389 67 435 67 c 0
 461 67 485 88 492 97 c 1
 495 97 499 92 502 87 c 0
 504 83 505 79 505 76 c 0
 492 32 452 -4 412 -4 c 0
 364 -3 351 64 342 128 c 1
 312 58 262 -9 192 -9 c 0xec
EndSplineSet
Validated: 33
EndChar

StartChar: nu
Encoding: 957 957 364
Width: 442
Flags: W
HStem: -5 101<227 275.049> 361 71<56.1115 142.661>
VStem: 192 55<96 230.929> 368 50<235.703 429.083>
LayerCount: 2
Fore
SplineSet
247 98 m 1
 250 96 249 96 251 96 c 0
 258 96 313 154 336 210 c 0
 372 296 386 360 368 420 c 0
 366 425 375 432 378 432 c 0
 395 432 415 424 418 406 c 0
 429 347 411 245 384 183 c 0
 356 120 294 -5 238 -5 c 3
 216 -5 200 0 192 7 c 1
 192 167 200 361 88 361 c 0
 62 361 38 340 31 331 c 1
 28 331 24 336 21 341 c 0
 19 345 18 349 18 352 c 1
 31 396 71 432 111 432 c 0
 216 431 247 250 247 98 c 1
EndSplineSet
Validated: 33
EndChar

StartChar: xi
Encoding: 958 958 365
Width: 407
VWidth: 295
Flags: W
HStem: -29 69<91.86 307.469> -13 73<149.108 338.233> 289 85<284.809 353.357> 557 116<264.009 311.78> 676 17<155.683 159.668>
VStem: 38 50<44.2505 147.346> 68 55<332.883 447.77> 69 67<595.407 657.874> 340 48<-85.178 5.5>
LayerCount: 2
Fore
SplineSet
88 78 m 0xbc80
 88 58 99 40 134 40 c 0xbc80
 198 40 266 60 316 60 c 0
 366 60 388 21 388 -10 c 0
 388 -76 344 -115 321 -130 c 1
 317 -130 298 -125 298 -115 c 1
 312 -106 340 -86 340 -44 c 0
 340 -23 327 -13 303 -13 c 0x7c80
 267 -13 206 -29 159 -29 c 0
 90 -29 38 19 38 85 c 0xbc80
 38 149 94 245 154 283 c 1
 115 291 68 315 68 387 c 0xba80
 68 474 134 542 148 557 c 1
 148 557 69 558 69 606 c 0
 69 662 134 690 144 693 c 1
 154 693 167 681 167 676 c 1
 150 667 136 643 136 628 c 0xb980
 136 601 157 592 178 592 c 1
 247 646 293 673 333 673 c 0
 358 673 364 632 364 621 c 0
 364 598 298 569 250 557 c 1
 207 533 123 454 123 375 c 0xba80
 123 337 161 316 201 316 c 0
 218 316 319 374 341 374 c 0
 354 374 362 365 362 354 c 24
 362 327 350 297 340 289 c 1
 254 277 88 188 88 78 c 0xbc80
EndSplineSet
Validated: 1
EndChar

StartChar: omicron
Encoding: 959 959 366
Width: 487
Flags: W
HStem: -8 39<170.707 288.595> 400 39<197.634 311.964>
VStem: 37 82<112.701 307.65> 367 82<124.153 316.935>
LayerCount: 2
Fore
SplineSet
367 240 m 0
 367 319 329 400 257 400 c 0
 170 400 119 300 119 191 c 0
 119 113 152 31 225 31 c 0
 316 31 367 131 367 240 c 0
240 439 m 0
 368 439 449 332 449 218 c 0
 449 87 353 -8 243 -8 c 0
 114 -8 37 101 37 215 c 0
 37 348 130 439 240 439 c 0
EndSplineSet
Validated: 1
EndChar

StartChar: pi
Encoding: 960 960 367
Width: 549
VWidth: 255
Flags: W
HStem: -3 63<416.083 472.375> 356 78<71.7979 168 214.343 333.268>
VStem: 22 39<265.484 340.726> 168 48<149.521 356> 335 48<135.856 349>
LayerCount: 2
Fore
SplineSet
216 356 m 1
 210 286 190 32 168 0 c 1
 161 -2 153 -3 147 -3 c 0
 123 -3 102 29 102 37 c 1
 158 126 151 190 168 358 c 1
 113 358 61 364 61 290 c 7
 61 286 62 279 63 275 c 5
 63 269 46 265 41 265 c 5
 33 275 22 306 22 323 c 7
 22 423 116 434 160 434 c 4
 246 434 289 424 387 424 c 4
 471 424 489 432 511 444 c 5
 520 442 528 437 531 430 c 5
 531 423 510 346 479 346 c 4
 449 346 408 347 383 349 c 1
 384 288 396 172 406 111 c 0
 412 73 433 60 455 60 c 0
 467 60 481 61 487 65 c 1
 494 60 494 53 494 48 c 1
 494 40 460 -3 423 -3 c 3
 376 -3 357 39 352 89 c 0
 343 176 334 290 335 353 c 1
 304 356 255 356 216 356 c 1
EndSplineSet
Validated: 33
EndChar

